<svg xmlns="http://www.w3.org/2000/svg" xmlns:xlink="http://www.w3.org/1999/xlink" viewBox="0 0 433.58 197.89"><defs><style>.cls-1{fill:url(#linear-gradient);}.cls-2{fill:url(#linear-gradient-2);}.cls-3{fill:url(#linear-gradient-3);}.cls-4{fill:url(#linear-gradient-4);}.cls-5{fill:url(#linear-gradient-5);}.cls-6{fill:url(#linear-gradient-6);}.cls-7{fill:url(#linear-gradient-7);}.cls-8{fill:url(#linear-gradient-8);}.cls-9{fill:url(#linear-gradient-9);}.cls-10{fill:url(#linear-gradient-10);}.cls-11{fill:url(#linear-gradient-11);}.cls-12{fill:url(#linear-gradient-12);}.cls-13{fill:url(#linear-gradient-13);}.cls-14{fill:url(#linear-gradient-14);}.cls-15{fill:url(#linear-gradient-15);}.cls-16{fill:url(#linear-gradient-16);}.cls-17{fill:#221e1f;}</style><linearGradient id="linear-gradient" x1="53.27" y1="208.66" x2="120.12" y2="23.87" gradientUnits="userSpaceOnUse"><stop offset="0" stop-color="#f15c21"/><stop offset="0.56" stop-color="#8f0205"/><stop offset="1" stop-color="#150000"/></linearGradient><linearGradient id="linear-gradient-2" x1="26.81" y1="199.15" x2="93.72" y2="14.21" xlink:href="#linear-gradient"/><linearGradient id="linear-gradient-3" x1="41.65" y1="204.51" x2="108.54" y2="19.62" xlink:href="#linear-gradient"/><linearGradient id="linear-gradient-4" x1="29.2" y1="232.09" x2="118.17" y2="-13.84" xlink:href="#linear-gradient"/><linearGradient id="linear-gradient-5" x1="-4.64" y1="187.66" x2="62.15" y2="3.04" xlink:href="#linear-gradient"/><linearGradient id="linear-gradient-6" x1="0.93" y1="189.74" x2="67.8" y2="4.89" xlink:href="#linear-gradient"/><linearGradient id="linear-gradient-7" x1="-3.56" y1="188.14" x2="63.34" y2="3.23" xlink:href="#linear-gradient"/><linearGradient id="linear-gradient-8" x1="2.32" y1="190.21" x2="69.13" y2="5.54" xlink:href="#linear-gradient"/><linearGradient id="linear-gradient-9" x1="86.54" y1="272.45" x2="185.97" y2="-2.41" xlink:href="#linear-gradient"/><linearGradient id="linear-gradient-10" x1="147.63" y1="103.78" x2="147.67" y2="103.68" xlink:href="#linear-gradient"/><linearGradient id="linear-gradient-11" x1="15.46" y1="188.38" x2="78.44" y2="14.29" xlink:href="#linear-gradient"/><linearGradient id="linear-gradient-12" x1="-6.4" y1="186.98" x2="60.39" y2="2.35" xlink:href="#linear-gradient"/><linearGradient id="linear-gradient-13" x1="-9.25" y1="186.32" x2="57.7" y2="1.28" xlink:href="#linear-gradient"/><linearGradient id="linear-gradient-14" x1="-17.03" y1="182.77" x2="49.64" y2="-1.52" xlink:href="#linear-gradient"/><linearGradient id="linear-gradient-15" x1="-20.14" y1="181.89" x2="46.62" y2="-2.65" xlink:href="#linear-gradient"/><linearGradient id="linear-gradient-16" x1="39.47" y1="203.51" x2="106.26" y2="18.89" xlink:href="#linear-gradient"/></defs><title>BP_logo_color</title><g id="レイヤー_2" data-name="レイヤー 2"><g id="Layer_1" data-name="Layer 1"><path class="cls-1" d="M78.36,124.88a38,38,0,0,0,12.46-5.62C87.21,121.29,82.73,123,78.36,124.88Z"/><path class="cls-2" d="M52.94,133.41c-2.08.75-4.09,1.63-5.5,2.24C49.24,135,51.08,134.26,52.94,133.41Z"/><path class="cls-3" d="M70.82,128.68l-.42.09a28.57,28.57,0,0,0-4.13,2.9C66.86,131.3,69.49,129.54,70.82,128.68Z"/><path class="cls-4" d="M70.52,118l.11-.13C70.39,117.93,70.27,118,70.52,118Z"/><path class="cls-5" d="M12.88,136.58c-.15,1.85-.16,3.91-.17,5.74A24,24,0,0,0,12.88,136.58Z"/><path class="cls-6" d="M15,150.55a46.82,46.82,0,0,0-2.65,7.85A45.54,45.54,0,0,0,15,150.55Z"/><path class="cls-7" d="M15.29,137c.17-.62.34-1.24.5-1.86s.13-1.34.17-2C15.75,134.46,15.47,135.76,15.29,137Z"/><path class="cls-8" d="M9.77,169.58a25.58,25.58,0,0,0,2.38-7.06C11.38,164.75,10.46,167.15,9.77,169.58Z"/><path class="cls-9" d="M174.79,74c.16.94.75,2,.92,3a5.16,5.16,0,0,1-2-1.37,5.89,5.89,0,0,0-.07,1h0a27.17,27.17,0,0,0-6.89-6.43c1.05.31,2.32.51,3.45.94-16.58-21.27-60.14,13.12-46.05,35.56.42-.31,1-1.1,1.54-1.38a71.82,71.82,0,0,0,3.14,6.72c-1.93,1.16-.22.84-.27,2.29-1-.16-1.14-.64-1.87-.92,10.51,11,35.52,9.83,45.65-.78-.28-.25-1.37.21-1.81,0,1.75-1.31,3.12-3.37,4.64-4.69-.9.45-2.27,1-3.14,1.45a20,20,0,0,0,6.11-7.26,65,65,0,0,0-9.74,5.8c.68-.61,1.29-1.46,1.93-2a45.53,45.53,0,0,1-4.64,3c1.12-1.35,2.11-2.49,3.31-3.69a27.07,27.07,0,0,1-6.21,4.84,66.16,66.16,0,0,0-11.64,3.22,47.25,47.25,0,0,0,6.23.93,15.78,15.78,0,0,1-8.21,2.28,16.55,16.55,0,0,0,2.07-.56,6.79,6.79,0,0,1-4-1c1.43-.24,2.75-.45,4.13-.75l-1.88-.14c-1.56-.86-3.08-2.22-4.77-3,3.46,1.22,7.93,1.74,11.62.31-7,1-12.11-2.21-17.69-6.51,1.18,1.39,1.89,2.61,3.15,3.91-1.17-.61-2.37-1.28-3.6-1.95a11.88,11.88,0,0,1-3.37-5.93l2.7,1.62c-6.1-8.93,14-21.55,22-20.23,8.5,1.4-7.83,9.36-11.05,12.21,1.56-.92,3.2-1.66,4.78-2.53-2,1.21-3.83,2.76-5.77,4,.59-.06,1.61-.35,2.26-.49-3.17,2.08-6.43,3.88-9.36,6,2.8-1.37,6-2.75,9.22-4l-.1.07c2.29-.55,4.51-.71,6.76-1.47-4.16,1.58-7.56,4.87-11,7.54a28.85,28.85,0,0,1,7.62-3.63c-1.11.6-2.22,1.23-3.22,1.88,1.43-.57,2.9-1.2,4.39-1.88a3.56,3.56,0,0,1,.46-.49c.49-.13,1-.27,1.49-.39l-1.95.88a1.73,1.73,0,0,0-.19.28c1.1-.45,2.19-.93,3.27-1.43,4.47-1,9-1.72,13.27-3.35a1.72,1.72,0,0,1-1-.1,8,8,0,0,1-.1-1.74A30.52,30.52,0,0,1,177.86,92c-.19-1.35.07-3.41-.37-4.68.44-.17,1.72.21,2-.16C179.71,83,178.66,77.13,174.79,74Z"/><path class="cls-10" d="M147.57,103.72a.06.06,0,0,0,0,0s0,0,0,0Z"/><path class="cls-11" d="M113,74.62c-3.58-2.91-8.59-3.47-13.45-2.85l.21-.08c5.16-2.06,8.66-3.09,12.48-7.31,5.94-6.56,16.52-14.45,17.73-23.72.75-5.78,2.51-19.6-.58-24.25-3.75-5.65-14.79-9.2-21.13-7.58.26.17.62.55.77.66a4.74,4.74,0,0,0-1.91,1.2c1.34.44,2.32,1.14,3.74,1.28-4.32-.25-10.24.8-14.4,1.65A12.7,12.7,0,0,1,98.08,13c-2.22.33-4.34,1.09-6.54,1.42a23.52,23.52,0,0,1,6.55-2.77c-2.47.89-5.24,1.23-7.64,2.1a21.67,21.67,0,0,1,7.73-3.19c-4.64-.14-12.09,2.8-17.54,5.44-1.43-4.37-3.42-8.81-3.39-13.32C74.52,2.33,70.73-.13,68.14,0,65.2.16,60.63,3.48,57,4.12c3,2.87,2,7.87.51,11.69-.9.11-1.81,0-2.71.16.18,3.75-.36,7.58-3,10.52A19,19,0,0,1,52.32,23,67.76,67.76,0,0,1,49,29.39l0,0c.3-1.44.32-3.49.55-4.45a11.81,11.81,0,0,0-3.63,5.73c-3.79,1.72-7.7,3.89-11.4,4.7l.6-.42c-.06.08-.06.08,0,0l.12-.08-.08.05a33.6,33.6,0,0,1,6-4,19.93,19.93,0,0,1,3-1.93c-6.81,2.52-13.46,6.86-20.28,9.26,1.11-.42,2.36-.71,3.48-1.06-3.36,1.49-7.1,3-10.28,4.76.84-.68,1.57-1.44,2.48-2-6,3.89-12.54,7.5-17.94,11.86,8.78-3.45,17.5-9.53,26.9-11,.24.12-.13.6-.17.57a55.87,55.87,0,0,1,6.94-1.65c-5.07,1.93-11,4.38-15.93,6.64-4.37,2-7.75,5.47-12.2,7.28,0,.07.81-.08.82,0a41.77,41.77,0,0,0-4.58,3.74c4.07-2.94,11.39-7.14,16.6-7.08-.15.23-.81.81-.9,1,5.94-1.93,11.47-5.82,17.58-7.46a8.31,8.31,0,0,0-1.53.31c2.59-1.48,5.5-3.1,8.62-4.74a34,34,0,0,1-2.1,7.51c-4.44,9.36-4.6,19.35-8.41,28.79,2.21-3.84,3.19-8.14,5.19-12-.94,2.1-1.57,4.21-2.32,6.41,3.31-5.18,6.45-10.64,9.89-15.64C41.52,62,40.48,70.15,38.28,77.79,37,80.48,36.09,83.43,34.68,86c1.33-3.64,2.16-7.52,3.64-11.12-.22.3-.59.71-.77.91a35,35,0,0,0,1-3.48c-2.83,6-4.2,12.28-6.31,18.26-.54.69-1.11,1.37-1.72,2a19.5,19.5,0,0,1,.93-4.36l0,0A33.4,33.4,0,0,1,32.64,82c-1.7,5.88-4.05,11.92-6.17,17.7a.87.87,0,0,1-.1-.7c-1.91,3.17-4,6.37-6.1,9.46a21.62,21.62,0,0,1,2.93-2.33,50.55,50.55,0,0,1-2.13,7.31c2.05-4.11,3.43-8.53,5.79-12.48-4.45,9.84-5.5,21.57-8.19,32.09a18.12,18.12,0,0,1-2.91,8.78c0-.61,0-1.31,0-2-1.07,7.59-5.41,15.14-8.32,22.11,4.66-5.32,6.69-12.92,10.84-18.87a16.34,16.34,0,0,1-.35,4.51,98.85,98.85,0,0,1,6.67-12.44c-.56,7-2.7,11.39-4.06,19.78a36.87,36.87,0,0,1,1.65-10.35c-3.2,5.71-8,15.83-7.66,23a41.73,41.73,0,0,0-2.55,4.4,21.82,21.82,0,0,1,1-6.44c-.71,1.45-1.5,2.86-2.33,4.26.07-1.07,0-2.14.07-3.2a70.31,70.31,0,0,1-5.38,11.07.37.37,0,0,1-.45-.27c-.29,1-.66,1.84-1,2.75,0-.74.54-3.2.49-3-1-1.17.61-6.23,1.8-9-2.44,4.19-3.79,9-5.35,13.52.36-.19.75-1.11,1.09-1.34-.21,3.31-1.23,6.65-1.91,10a21,21,0,0,1,5.43-9.88c-.41,1.24-.72,2.87-1.14,4.22a62.49,62.49,0,0,0,5.15-11.82c-.24,8-4.37,17.29-6.86,25.1,3.1-8.22,5.62-16.94,10.33-24.67A10,10,0,0,1,13,175.9a27.71,27.71,0,0,1,1.66-3.2c.11.34-.1,2.21.24,2.29.54-.55.81-2,1.68-2.25.11.21-.65.85-.56,1.21,6.14-7.14,8.72-18,10.89-28.22A86.6,86.6,0,0,1,31.18,135c-.84,4-.67,8.26-1.63,12.16-2.15,8.8-6.16,18.89-9.32,27.93,5.39-11.17,11.75-25,15.19-36.35.67-2.21,1.42-4.74,2.16-7.43a11.26,11.26,0,0,1,4.33-.19c1.3-.74,2.74-1.08,4-1.71a31.63,31.63,0,0,1-3.8,2.58c4.49-1.49,8.73-5.25,13.46-6.37-.09-.09-.62,0-.8-.07a47.79,47.79,0,0,0,4.54-1.83A35,35,0,0,1,55.48,125a4.52,4.52,0,0,1,.61-.55c-2.56.64-4.75,2.31-7.23,3,4.41-4.2,12.28-9.06,18-10.56a17.27,17.27,0,0,1-2.44,3.28,21.38,21.38,0,0,1,7.34-5c-.55.52-.94,1.12-1.47,1.66a7.55,7.55,0,0,1,.84-.28,4.3,4.3,0,0,0,.65.58c-2.62,2.94-6.22,5.16-9.1,7.88a49,49,0,0,1,10.11-5.06,108.75,108.75,0,0,1-19.17,11.55c2.72-1,5.57-1.68,7.17-1a31.78,31.78,0,0,1,9.28-3.32,67.8,67.8,0,0,1,7.5-3.66,23.48,23.48,0,0,1-2.91.56c6.73-1.69,12.69-6.36,18.63-9.9-.45.5-.85,1-1.27,1.56,1.63-1,3.34-2.09,5-2.91-.54.56-1.08,1.29-1.69,1.87,3.17-2.14,5.82-3.46,8.37-6.37,6.62-7.58,9.68-13.76,12-23.49C116.83,79.81,117.88,78.56,113,74.62ZM23.21,106.09c-.14-.13-.41,0,.13-.61C23.31,105.68,23.25,105.89,23.21,106.09Zm74-73.76A12.94,12.94,0,0,0,96.51,31c3.25,2.08,4.26,4.47,5.07,8.67a12.12,12.12,0,0,0,1-3.72c.15,1,.54,2.31.63,3.16.62-3.07-.9-5.37-1.94-8,3.55,2.93,4.3,10.89,2.77,15-.17,0,0-1.16-.06-1.24a5.82,5.82,0,0,1-.71,1.51c-.12-1.71-.4-3.29-.67-5,.07,3.3-1.43,6.31-3.1,9.06a25.2,25.2,0,0,0-.11-9.94c.54,4.93-1.19,10.72-4.61,13.41a12.19,12.19,0,0,0,2-7.72c-2.72,9.73-11.78,11.83-18.68,17,.58,0,1-.26,1.58-.31-.84.46-1.78,1.21-2.6,1.68,2.52-.32,4.41-2.07,6.88-2.79-5.5,2.55-10.57,6.66-16.14,8.87,1.67-1.29,3.43-2.5,5.18-3.69-1.83.73-3.63,1.76-5.52,2.4a24.33,24.33,0,0,0,2.29-1.7,51.89,51.89,0,0,0-9,4.32A106.89,106.89,0,0,1,71.52,49.63c1.84-2.8,7.43-6.1,8.65-8.75,1.48-3.21,0-4.59.46-8,.22-1.55.55-3.09.85-4.64C87.42,27.74,93.82,29.07,97.2,32.33ZM86.5,16.06a26.65,26.65,0,0,0-5.28,1.77c-.09-.3-.17-.59-.26-.88C82.8,16.61,84.67,16.34,86.5,16.06ZM69.37,111.6c.35-.56.78-1.07,1.13-1.63-5.9,2.59-12,7-18,10-4.31,2.09-9.09,4-13.56,6.3L39,126a7.23,7.23,0,0,1,3.52-2.14c-1.43-12.4,8.27-22.2,11.12-34.61.31,5.65-4.15,11.79-4.24,17.28C50.81,100.68,54.25,93.31,56,87c3.32-1,6.84-2.06,10-3a26.15,26.15,0,0,1-4.15.28c3.76-1.53,7.54-2.76,11.38-2.66-.45.12-2.29,1-3.27,1.39a45,45,0,0,0,12-1.2C100.44,86,80.48,109.52,69.37,111.6Z"/><path class="cls-12" d="M29.39,87.58c0,.31,0,.6-.05.86A.61.61,0,0,0,29.39,87.58Z"/><path class="cls-13" d="M51.5,18.29c.76-1.68,1.46-3.38,2-5.1A18.49,18.49,0,0,0,51.5,18.29Z"/><path class="cls-14" d="M40.39,26.34l-.77.43-1.44,1.1S39.73,26.74,40.39,26.34Z"/><path class="cls-15" d="M33.33,30.94c1-.6,2-1.2,3-1.89A27.81,27.81,0,0,0,33.33,30.94Z"/><path class="cls-16" d="M101.49,36.92a12.54,12.54,0,0,0-1.63-5.17A25.58,25.58,0,0,1,101.49,36.92Z"/><rect class="cls-17" x="2.68" y="122.9" width="430.9" height="1.48"/><path class="cls-17" d="M288.53,95.29c-3.83,13.38,2.93,24.27,15.1,24.27s25.17-10.89,29-24.27S329.71,71,317.55,71,292.38,81.91,288.53,95.29Zm8,0c2.58-9,11-16.29,18.74-16.29s12,7.3,9.39,16.29-11,16.29-18.74,16.29S293.93,104.27,296.52,95.29Z"/><path class="cls-17" d="M388.64,70.85h-12a18.21,18.21,0,0,1,.43,5.46l-6.68,23.24c-2.42,8.43-7,12-15.19,12s-10.72-3.6-8.3-12l6.67-23.24a30.23,30.23,0,0,1,3.57-5.46h-12a17.84,17.84,0,0,1,.43,5.46L339,99.55c-3.7,12.9,1.26,20,14,20s21.77-7.11,25.47-20l6.67-23.24A30.23,30.23,0,0,1,388.64,70.85Z"/><path class="cls-17" d="M414.85,71.19H394.57a18,18,0,0,1,.44,5.46l-10.76,37.44a31,31,0,0,1-3.55,5.47H401c10.43,0,24.42-6.34,29.55-24.19S425.28,71.19,414.85,71.19Zm-11.59,40.39H393c1.15-4,7.75-27,9.31-32.42h10.31c4.39,0,14.18,1.58,10,16.21S407.66,111.58,403.26,111.58Z"/><path class="cls-17" d="M233.22,71h-24.6a17.8,17.8,0,0,1,.43,5.45l-10.8,37.62a30.75,30.75,0,0,1-3.56,5.47h12a17.93,17.93,0,0,1-.43-5.47l3.46-12h14.63c7.2,0,15.07-7,17.52-15.51S240.43,71,233.22,71Zm-6.62,23H212c2.11-7.38,3.62-12.62,4.32-15.07h14.63c2.76,0,4.11,3.45,2.94,7.54S229.37,94.07,226.6,94.07Z"/><path class="cls-17" d="M273.17,100.51a23.16,23.16,0,0,0,11.46-14C287.08,78,283.21,71,276,71H251.4a17.61,17.61,0,0,1,.42,5.45L241,114.09a30.52,30.52,0,0,1-3.57,5.47h12a17.57,17.57,0,0,1-.43-5.47c1-3.35,2.24-7.8,3.45-12h12.19L268,119.56h8.82Zm-3.78-6.44H254.76c2.11-7.38,3.61-12.62,4.32-15.07h14.63c2.76,0,4.11,3.45,2.93,7.54S272.14,94.07,269.39,94.07Z"/></g></g></svg>