<svg xmlns="http://www.w3.org/2000/svg" width="339.13" height="48.02" viewBox="0 0 339.13 48.02">
  <defs>
    <style>
      .a {
        fill: #595757;
      }

      .b {
        fill: #f7be00;
      }

      .c {
        fill: #878787;
      }
    </style>
  </defs>
  <title>g_logo_6</title>
  <g>
    <path class="a" d="M104.46,13.1a4.66,4.66,0,0,0-1.4-1.69,8.29,8.29,0,0,0-2.2-1.17,26.52,26.52,0,0,0-2.93-.87c-.88-.22-1.65-.43-2.31-.62A7.64,7.64,0,0,1,94,8.09a2.72,2.72,0,0,1-1-.87,2.33,2.33,0,0,1-.31-1.28,2.58,2.58,0,0,1,1-2.16A5.12,5.12,0,0,1,96.82,3a8.4,8.4,0,0,1,1.88.21,9.73,9.73,0,0,1,1.68.54,8.64,8.64,0,0,1,1.33.71,5,5,0,0,1,.74.58l1.17-2.95A13.12,13.12,0,0,0,100.9.69a11.22,11.22,0,0,0-4-.69,10.68,10.68,0,0,0-3.06.42A7.18,7.18,0,0,0,91.4,1.67a5.94,5.94,0,0,0-1.64,2,6.18,6.18,0,0,0-.6,2.78,5.11,5.11,0,0,0,.41,2.14,4.42,4.42,0,0,0,1.18,1.55,7.11,7.11,0,0,0,2,1.12,25.53,25.53,0,0,0,2.78.89q1.38.36,2.46.69a10.87,10.87,0,0,1,1.83.73,3.63,3.63,0,0,1,1.16,1,2.18,2.18,0,0,1,.4,1.35,2.27,2.27,0,0,1-1.08,2,5.68,5.68,0,0,1-3.06.69,9.73,9.73,0,0,1-2.37-.28,15.06,15.06,0,0,1-2.12-.69A10.48,10.48,0,0,1,91,16.78a6.72,6.72,0,0,1-1.1-.85L88.69,19a13.46,13.46,0,0,0,3.76,1.91,15.15,15.15,0,0,0,4.7.74,12.72,12.72,0,0,0,3-.35,7.44,7.44,0,0,0,2.48-1.08,5.25,5.25,0,0,0,1.68-1.91,5.92,5.92,0,0,0,.62-2.79A5.54,5.54,0,0,0,104.46,13.1Z"/>
    <polygon class="a" points="154.25 18.49 154.25 0.15 150.89 0.15 150.89 21.47 166.22 21.47 167.4 18.49 154.25 18.49"/>
    <g>
      <path class="a" d="M88.21,37.11a11.24,11.24,0,0,1,.67-3.8,10.27,10.27,0,0,1,2-3.38A10.1,10.1,0,0,1,94,27.5a9.33,9.33,0,0,1,4.26-.94,8.84,8.84,0,0,1,4.84,1.28,7.89,7.89,0,0,1,3,3.34l-1.64,1a6.18,6.18,0,0,0-1.24-1.75,6.58,6.58,0,0,0-3.29-1.81,8.24,8.24,0,0,0-1.76-.19,7.19,7.19,0,0,0-3.37.77,8,8,0,0,0-2.46,2,8.89,8.89,0,0,0-1.5,2.82,10.16,10.16,0,0,0-.51,3.17,9.58,9.58,0,0,0,2.28,6.21,8,8,0,0,0,2.51,2,6.81,6.81,0,0,0,3.14.73,7.75,7.75,0,0,0,1.83-.22,7,7,0,0,0,1.82-.72A7.33,7.33,0,0,0,103.49,44a6.43,6.43,0,0,0,1.26-1.77l1.72.89A6.17,6.17,0,0,1,105,45.2,9.33,9.33,0,0,1,103,46.74a10.81,10.81,0,0,1-2.4.95A9.92,9.92,0,0,1,98.1,48a8.4,8.4,0,0,1-4-1A10.26,10.26,0,0,1,91,44.58a11.4,11.4,0,0,1-2-3.49A11.21,11.21,0,0,1,88.21,37.11Z"/>
      <path class="a" d="M117.38,48a8.94,8.94,0,0,1-4-.91,10.09,10.09,0,0,1-3.14-2.41,11.14,11.14,0,0,1-2-3.45,11.49,11.49,0,0,1-.71-4,11.25,11.25,0,0,1,2.86-7.48,10.25,10.25,0,0,1,3.16-2.37,8.84,8.84,0,0,1,3.93-.88,8.68,8.68,0,0,1,4,.94,10.35,10.35,0,0,1,3.13,2.46,11.48,11.48,0,0,1,2,3.44,11.1,11.1,0,0,1,0,8,11.43,11.43,0,0,1-2.09,3.42,10.15,10.15,0,0,1-3.14,2.35A8.92,8.92,0,0,1,117.38,48Zm-7.84-10.73a9.78,9.78,0,0,0,.57,3.32,8.87,8.87,0,0,0,1.61,2.83,7.86,7.86,0,0,0,2.47,2,7.29,7.29,0,0,0,6.44,0,8,8,0,0,0,2.47-2,9.31,9.31,0,0,0,1.57-2.83,9.65,9.65,0,0,0,.55-3.22,9.55,9.55,0,0,0-.58-3.32A9.06,9.06,0,0,0,123,31.12a8.08,8.08,0,0,0-2.47-1.95,6.81,6.81,0,0,0-3.16-.73,6.92,6.92,0,0,0-3.25.76,7.81,7.81,0,0,0-2.47,2A9.19,9.19,0,0,0,110.1,34,9.66,9.66,0,0,0,109.54,37.26Z"/>
      <path class="a" d="M148.2,47.84V30.47l-7.72,13.44h-1.22l-7.72-13.44V47.84h-2.09V26.68h2.15l8.25,14.48,8.32-14.48h2.11V47.84Z"/>
      <path class="a" d="M172,47.84V30.47l-7.72,13.44H163l-7.72-13.44V47.84H153.2V26.68h2.15l8.25,14.48,8.32-14.48H174V47.84Z"/>
      <path class="a" d="M185.54,46.11a6.55,6.55,0,0,0,3.32-.76,6.05,6.05,0,0,0,2.12-2,8.35,8.35,0,0,0,1.1-2.82,16.27,16.27,0,0,0,.31-3.19V26.68h2.09V37.35a16.75,16.75,0,0,1-.48,4.07,9.76,9.76,0,0,1-1.53,3.38,7.75,7.75,0,0,1-2.76,2.33,9.12,9.12,0,0,1-4.14.86,8.87,8.87,0,0,1-4.22-.91,7.85,7.85,0,0,1-2.76-2.4,9.87,9.87,0,0,1-1.49-3.4,17.6,17.6,0,0,1-.44-3.93V26.68h2.05V37.35A15.86,15.86,0,0,0,179,40.6a8.11,8.11,0,0,0,1.12,2.8,6.11,6.11,0,0,0,2.1,2A6.63,6.63,0,0,0,185.54,46.11Z"/>
      <path class="a" d="M199.75,30.56V47.84h-2.08V26.68h1.61l14,17.61V26.71h2.09V47.84h-1.82Z"/>
      <path class="a" d="M219.48,47.84V26.68h2.09V47.84Z"/>
      <path class="a" d="M223.68,37.11a11.49,11.49,0,0,1,.67-3.8,10.47,10.47,0,0,1,2-3.38,10,10,0,0,1,3.16-2.43,9.33,9.33,0,0,1,4.26-.94,8.87,8.87,0,0,1,4.84,1.28,7.89,7.89,0,0,1,3,3.34l-1.64,1a6.18,6.18,0,0,0-1.24-1.75,6.7,6.7,0,0,0-3.29-1.81,8.31,8.31,0,0,0-1.76-.19,7.16,7.16,0,0,0-3.37.77,8,8,0,0,0-2.46,2,8.69,8.69,0,0,0-1.5,2.82,10.16,10.16,0,0,0-.51,3.17,9.58,9.58,0,0,0,2.28,6.21,8.09,8.09,0,0,0,2.5,2,6.85,6.85,0,0,0,3.15.73,7.88,7.88,0,0,0,1.83-.22,7,7,0,0,0,1.82-.72A7.57,7.57,0,0,0,239,44a6.2,6.2,0,0,0,1.25-1.77l1.73.89a6.32,6.32,0,0,1-1.43,2.1,9.33,9.33,0,0,1-2.05,1.54,10.81,10.81,0,0,1-2.4.95,9.92,9.92,0,0,1-2.49.33,8.47,8.47,0,0,1-4-1,10.34,10.34,0,0,1-3.12-2.48,11.63,11.63,0,0,1-2.05-3.49A11.43,11.43,0,0,1,223.68,37.11Z"/>
      <path class="a" d="M250.89,26.68h1.76l8.79,21.16h-2.2l-2.74-6.62H247l-2.71,6.62H242ZM256,39.59l-4.26-10.47-4.32,10.47Z"/>
      <path class="a" d="M275.33,28.53h-7.54V47.84H265.7V28.53h-7.54V26.68h17.17Z"/>
      <path class="a" d="M277.3,47.84V26.68h2.08V47.84Z"/>
      <path class="a" d="M291.42,48a8.94,8.94,0,0,1-4-.91,10.09,10.09,0,0,1-3.14-2.41,11.14,11.14,0,0,1-2-3.45,11.49,11.49,0,0,1-.71-4,10.91,10.91,0,0,1,.76-4,11.11,11.11,0,0,1,2.1-3.43,10.25,10.25,0,0,1,3.16-2.37,8.84,8.84,0,0,1,3.93-.88,8.68,8.68,0,0,1,4,.94,10.23,10.23,0,0,1,3.13,2.46,11.48,11.48,0,0,1,2,3.44,11.1,11.1,0,0,1,0,8,11.43,11.43,0,0,1-2.09,3.42,10.15,10.15,0,0,1-3.14,2.35A8.92,8.92,0,0,1,291.42,48Zm-7.84-10.73a9.78,9.78,0,0,0,.57,3.32,8.87,8.87,0,0,0,1.61,2.83,8,8,0,0,0,2.47,2,7.29,7.29,0,0,0,6.44,0,8,8,0,0,0,2.47-2,9.31,9.31,0,0,0,1.57-2.83,9.65,9.65,0,0,0,.55-3.22,9.55,9.55,0,0,0-.58-3.32,9.24,9.24,0,0,0-1.62-2.82,8.25,8.25,0,0,0-2.48-1.95,6.81,6.81,0,0,0-3.16-.73,6.92,6.92,0,0,0-3.25.76,7.92,7.92,0,0,0-2.47,2A9.19,9.19,0,0,0,284.14,34,9.66,9.66,0,0,0,283.58,37.26Z"/>
      <path class="a" d="M305.58,30.56V47.84h-2.09V26.68h1.61l14,17.61V26.71h2.08V47.84h-1.81Z"/>
      <path class="a" d="M337.08,30.64A6.41,6.41,0,0,0,334.69,29a8.61,8.61,0,0,0-3.39-.63,6.38,6.38,0,0,0-4.09,1.06,3.53,3.53,0,0,0-1.28,2.87,3.17,3.17,0,0,0,.35,1.57,3,3,0,0,0,1.05,1.06,7.83,7.83,0,0,0,1.84.77c.74.22,1.62.44,2.63.66a26.45,26.45,0,0,1,3.06.8,8.87,8.87,0,0,1,2.31,1.12,4.78,4.78,0,0,1,1.46,1.62,5,5,0,0,1,.5,2.39,5.33,5.33,0,0,1-.56,2.53A5.12,5.12,0,0,1,337,46.62a7.23,7.23,0,0,1-2.42,1.06,13.27,13.27,0,0,1-3.06.34A12.62,12.62,0,0,1,323,45l1.05-1.7a7.34,7.34,0,0,0,1.35,1.13,9.78,9.78,0,0,0,1.76.94,10.87,10.87,0,0,0,2.07.63,11.63,11.63,0,0,0,2.32.22,7.24,7.24,0,0,0,3.95-.91,3,3,0,0,0,1.42-2.75,3.26,3.26,0,0,0-.4-1.66,3.47,3.47,0,0,0-1.21-1.16,8.52,8.52,0,0,0-2-.85c-.79-.24-1.72-.48-2.77-.72s-2.08-.52-2.92-.8a8,8,0,0,1-2.11-1,4.06,4.06,0,0,1-1.3-1.51,4.81,4.81,0,0,1-.43-2.16,6,6,0,0,1,.55-2.61,5.15,5.15,0,0,1,1.56-1.9,7.4,7.4,0,0,1,2.39-1.17,11,11,0,0,1,3-.4,10.57,10.57,0,0,1,3.77.64,10.05,10.05,0,0,1,3,1.81Z"/>
    </g>
    <g>
      <g>
        <rect class="b" x="26" y="8.64" width="51" height="5"/>
        <rect class="b" x="26" y="18.64" width="13" height="5"/>
        <rect class="b" x="26" y="28.64" width="13" height="5"/>
        <rect class="b" x="26" y="38.64" width="51" height="5"/>
      </g>
      <g>
        <rect class="c" y="3.64" width="51" height="5"/>
        <rect class="c" y="13.64" width="26" height="5"/>
        <rect class="c" x="26" y="23.64" width="25" height="5"/>
        <rect class="c" y="33.64" width="51" height="5"/>
      </g>
    </g>
    <path class="a" d="M177.41.15h3l8.4,21.32h-3.54L183,15.67h-8.23l-2.22,5.8H169Zm4.9,13L178.89,4l-3.55,9.16Z"/>
    <path class="a" d="M124.07,15a7.61,7.61,0,1,1,0-8.31L127.23,6a10.66,10.66,0,1,0,0,9.67Z"/>
    <path class="a" d="M136.62.15h2.95L148,21.47h-3.54l-2.25-5.8H134l-2.22,5.8h-3.57Zm4.9,13L138.1,4l-3.55,9.16Z"/>
  </g>
</svg>
