<svg xmlns="http://www.w3.org/2000/svg" width="228.48" height="40" viewBox="0 0 228.48 40">
  <defs>
    <style>
      .a {
        fill: #878787;
      }
    </style>
  </defs>
  <title>g_logo_1</title>
  <g>
    <path d="M111.27,23.63a6.67,6.67,0,0,0-1.94-2.35,11.76,11.76,0,0,0-3.06-1.63,40.08,40.08,0,0,0-4.07-1.21c-1.22-.3-2.29-.59-3.21-.85a10.37,10.37,0,0,1-2.29-.92,3.66,3.66,0,0,1-1.35-1.21,3.22,3.22,0,0,1-.44-1.77,3.58,3.58,0,0,1,1.4-3,7.1,7.1,0,0,1,4.35-1.08,11.93,11.93,0,0,1,2.61.29,14.8,14.8,0,0,1,2.33.75,11.74,11.74,0,0,1,1.85,1,7,7,0,0,1,1,.81l1.62-4.09a18.32,18.32,0,0,0-3.77-1.95,15.57,15.57,0,0,0-5.54-1A14.87,14.87,0,0,0,96.53,6a9.86,9.86,0,0,0-3.39,1.72,8.19,8.19,0,0,0-2.27,2.84A8.52,8.52,0,0,0,90,14.44a7,7,0,0,0,.57,3,6.08,6.08,0,0,0,1.64,2.15A9.59,9.59,0,0,0,95,21.13a35.52,35.52,0,0,0,3.86,1.23c1.27.34,2.41.65,3.41,1a15,15,0,0,1,2.55,1,4.86,4.86,0,0,1,1.6,1.31,3,3,0,0,1,.56,1.88,3.14,3.14,0,0,1-1.5,2.83,7.87,7.87,0,0,1-4.25,1,13.72,13.72,0,0,1-3.29-.39A22,22,0,0,1,95,30a15.37,15.37,0,0,1-2.37-1.23,9.77,9.77,0,0,1-1.53-1.18l-1.7,4.3a18.81,18.81,0,0,0,5.23,2.65,21,21,0,0,0,6.52,1,17.68,17.68,0,0,0,4.21-.48,10.42,10.42,0,0,0,3.44-1.5,7.28,7.28,0,0,0,2.33-2.65A8.19,8.19,0,0,0,112,27,7.63,7.63,0,0,0,111.27,23.63Z"/>
    <polygon points="180.52 32 180.52 7 175.52 7 175.52 36 196.64 36 198.22 32 180.52 32"/>
    <path d="M212.51,7h4.14l11.83,30h-5.16l-3.11-8H208.86l-3.07,8h-5.2Zm6.82,18-4.75-12.71L209.66,25Z"/>
    <path d="M138.48,26.25a10.57,10.57,0,1,1,0-11.53l4.36-1a14.8,14.8,0,1,0,0,13.42Z"/>
    <path d="M155.89,7H160l11.83,30H166.7l-3.11-8H152.24l-3.07,8H144Zm6.82,18L158,12.29,153,25Z"/>
    <g>
      <g>
        <rect class="a" x="26" y="5" width="51" height="5"/>
        <rect class="a" x="26" y="15" width="13" height="5"/>
        <rect class="a" x="51" y="25" width="26" height="5"/>
        <rect class="a" x="26" y="35" width="51" height="5"/>
        <rect class="a" x="26" y="25" width="13" height="5"/>
      </g>
      <g>
        <rect width="51" height="5"/>
        <rect y="10" width="26" height="5"/>
        <rect x="26" y="20" width="25" height="5"/>
        <rect y="30" width="51" height="5"/>
      </g>
    </g>
  </g>
</svg>
