<?xml version="1.0" encoding="UTF-8"?><svg id="_レイヤー_1" xmlns="http://www.w3.org/2000/svg" viewBox="0 0 841.89 595.28"><defs><style>.cls-1{fill:#f08000;}.cls-2{fill:#231815;}</style></defs><g><rect class="cls-1" x="461.99" y="280.9" width="16.75" height="66.94"/><path class="cls-2" d="M616.81,280.9v4.5c-4.93-2.85-10.63-4.5-16.73-4.5-18.49,0-33.47,14.99-33.47,33.46s14.99,33.48,33.47,33.48c6.1,0,11.8-1.66,16.73-4.51v4.51h16.74v-66.94h-16.74Zm-16.73,50.21c-9.25,0-16.74-7.49-16.74-16.74s7.49-16.73,16.74-16.73,16.73,7.5,16.73,16.73-7.49,16.74-16.73,16.74Z"/><path class="cls-2" d="M524.77,280.9c-6.11,0-11.82,1.66-16.75,4.52v-37.99h-16.72v100.41h16.72v-4.53c4.93,2.87,10.64,4.53,16.75,4.53,18.48,0,33.46-14.99,33.46-33.48s-14.99-33.46-33.46-33.46Zm0,50.21c-9.25,0-16.75-7.49-16.75-16.74s7.5-16.73,16.75-16.73,16.73,7.5,16.73,16.73-7.5,16.74-16.73,16.74Z"/><path class="cls-2" d="M432.7,247.43v37.98c-4.92-2.85-10.63-4.5-16.74-4.5-18.48,0-33.46,14.99-33.46,33.46s14.98,33.48,33.46,33.48c6.1,0,11.81-1.66,16.74-4.51v4.51h16.74v-100.41h-16.74Zm-16.74,83.68c-9.23,0-16.73-7.49-16.73-16.74s7.5-16.73,16.73-16.73,16.74,7.5,16.74,16.73-7.5,16.74-16.74,16.74Z"/><path class="cls-2" d="M298.73,307.67c0-14.77-11.99-26.76-26.79-26.76-7.14,0-13.6,2.82-18.41,7.36-4.79-4.55-11.26-7.36-18.39-7.36-3.56,0-6.95,.7-10.05,1.97v-1.97h-16.74v66.94h16.74v-40.16c0-5.55,4.5-10.05,10.05-10.05s10.04,4.5,10.04,10.05v40.16h16.74v-40.18h0c.01-5.53,4.5-10.03,10.03-10.03s10.04,4.5,10.04,10.05v40.16h16.74v-40.18h0Z"/><path class="cls-2" d="M374.03,314.37h0c0-18.48-14.98-33.46-33.48-33.46s-33.47,14.99-33.47,33.46,14.99,33.48,33.47,33.48c13.73,0,25.51-8.26,30.67-20.09h-20.67c-2.78,2.11-6.24,3.35-10,3.35-6.85,0-12.74-4.13-15.32-10.04h48.13c.43-2.15,.67-4.4,.67-6.7h0Zm-33.48-16.73c6.87,0,12.75,4.14,15.34,10.05h-30.66c2.58-5.91,8.47-10.05,15.32-10.05Z"/></g><path class="cls-1" d="M480.25,257.05c0,5.31-4.32,9.62-9.64,9.62s-9.62-4.31-9.62-9.62,4.31-9.62,9.62-9.62,9.64,4.3,9.64,9.62Z"/></svg>