<svg width="36" height="37" viewBox="0 0 36 37" fill="none" xmlns="http://www.w3.org/2000/svg">
<g clip-path="url(#clip0_726_2639)">
<path d="M28.2378 36.8201H35.9109V29.1279L28.2378 36.8201Z" fill="#FCFCFD"/>
<path d="M9.70972 11.6401V26.1034H24.1371V11.6401H9.70972Z" fill="#1A1623"/>
<path d="M28.2378 36.8206L35.9109 29.1284V8.29277L32.1875 4.55322L3.84009 32.9779L7.67323 36.8206H28.2378Z" fill="#B32F0F"/>
<path d="M0 8.5125V29.1281L3.84 32.9777L32.1874 4.55298L28.464 0.820312H7.67314L0 8.5125Z" fill="#E84118"/>
<path d="M23.3829 21.539V13.3794H12.5281V24.2612H20.6675L23.3829 21.539Z" fill="#FCFCFD"/>
<path d="M30.6498 37.4321L36.0115 32.42L27.3732 23.4321L22.0115 28.4443L30.6498 37.4321Z" fill="#B32F0F"/>
</g>
<defs>
<clipPath id="clip0_726_2639">
<rect width="36" height="36" fill="white" transform="translate(0 0.820312)"/>
</clipPath>
</defs>
</svg>
