<svg width="670" height="527" viewBox="0 0 670 527" fill="none" xmlns="http://www.w3.org/2000/svg">
<g clip-path="url(#clip0_663_3096)">
<path d="M376.123 409.784L505.811 257.239L294.949 186.964L376.123 409.784Z" fill="#24222B"/>
<path d="M372.552 416.155L505.906 261.924V257.474L372.552 411.705V416.155Z" fill="#24222B"/>
<path d="M601.601 163.07L522.522 254.335L651.686 294.111L601.601 163.07Z" fill="#24222B"/>
<path d="M523.426 253.491V257.895L651.686 298.561V294.11L523.426 253.491Z" fill="#24222B"/>
<path d="M277.666 180.312L156.691 136.272L9.52979 287.13L139.646 333.746L277.666 180.312Z" fill="#24222B"/>
<path d="M139.646 338.15L277.666 184.762V180.312L139.646 333.746V338.15Z" fill="#24222B"/>
<path d="M139.646 333.746L9.52979 287.13V291.581L139.646 338.15V333.746Z" fill="#24222B"/>
<path d="M594.65 156.699L373.647 81.5508L293.663 176.188L512.857 250.493L594.65 156.699Z" fill="#24222B"/>
<path d="M512.952 254.944L594.745 161.15V156.699L512.952 250.493V254.944Z" fill="#24222B"/>
<path d="M512.857 250.493L293.663 176.188V180.639L512.857 254.944V250.493Z" fill="#24222B"/>
<path d="M364.649 424.87L143.693 349.722L63.7095 444.359L282.856 518.664L364.649 424.87Z" fill="#24222B"/>
<path d="M282.999 523.115L364.792 429.321V424.87L282.999 518.664V523.115Z" fill="#24222B"/>
<path d="M282.856 518.664L65.5186 445.203V449.654L282.856 523.115V518.664Z" fill="#24222B"/>
<path d="M151.692 340.211L362.554 411.33L286.903 187.667L151.692 340.211Z" fill="#24222B"/>
<path d="M151.692 344.663L362.554 415.781V411.331L151.692 340.212V344.663Z" fill="#24222B"/>
<path d="M49.4266 440.19L132.648 344.1L0.817383 298.515L49.4266 440.19Z" fill="#24222B"/>
<path d="M49.522 443.891L132.696 347.754L132.648 344.1L49.4268 440.19L49.522 443.891Z" fill="#24222B"/>
<path d="M0.960449 298.608V302.263L49.5221 443.891L49.4269 440.19L0.960449 298.608Z" fill="#24222B"/>
<path d="M645.354 302.919L517.094 262.253L381.836 419.904L507.334 463.1L645.354 302.919Z" fill="#24222B"/>
<path d="M507.334 463.1V466.708L645.354 306.48V302.919L507.334 463.1Z" fill="#24222B"/>
<path d="M381.836 419.903V423.511L507.334 466.707V463.099L381.836 419.903Z" fill="#24222B"/>
<path d="M281.285 87.6886H278.095L367.124 0.96875H370.362L281.285 87.6886Z" fill="#24222B"/>
<path d="M370.362 0.96875V76.6788L284.189 173.753L275.048 114.44L281.285 87.6886L370.362 0.96875Z" fill="#24222B"/>
<path d="M284.189 173.753H280.999L271.858 114.44H275.048L284.189 173.753Z" fill="#24222B"/>
<path d="M275.048 114.44H271.858L278.095 87.6885H281.285L275.048 114.44Z" fill="#24222B"/>
<path d="M351.842 366.12L372.981 371.414L381.17 430.305L297.329 526.535L285.951 443.095L351.842 366.12Z" fill="#24222B"/>
<path d="M297.329 526.535L293.901 525.832L282.57 443.188L285.951 443.095L297.329 526.535Z" fill="#1A1623"/>
<path d="M285.951 443.095L282.57 443.189L348.414 366.214L351.842 366.12L285.951 443.095Z" fill="#1A1623"/>
<path d="M375.313 400.836C375.025 401.072 374.783 401.358 374.599 401.679C374.599 401.679 364.363 421.684 348.319 429.789C347.949 429.946 347.618 430.179 347.347 430.473C347.077 430.767 346.874 431.114 346.752 431.492C346.63 431.869 346.592 432.268 346.641 432.662C346.689 433.055 346.823 433.434 347.033 433.772C347.346 434.257 347.784 434.652 348.303 434.915C348.821 435.179 349.402 435.302 349.985 435.271C350.516 435.264 351.037 435.135 351.509 434.896C361.954 429.122 370.71 420.796 376.932 410.721L375.313 400.836Z" fill="#1A1623"/>
<path d="M330.466 448.623H324.086C323.407 448.649 322.744 448.415 322.238 447.969C321.731 447.523 321.421 446.901 321.372 446.234L321.086 434.943C321.08 434.611 321.142 434.281 321.269 433.974C321.397 433.667 321.587 433.388 321.827 433.156C322.068 432.923 322.355 432.742 322.669 432.622C322.984 432.502 323.32 432.447 323.657 432.46H330.037C330.703 432.434 331.354 432.664 331.851 433.101C332.349 433.538 332.654 434.148 332.703 434.803L332.989 446.047C333.002 446.38 332.946 446.713 332.825 447.026C332.704 447.338 332.52 447.623 332.284 447.863C332.049 448.104 331.766 448.295 331.454 448.426C331.141 448.556 330.805 448.624 330.466 448.623Z" fill="#1A1623"/>
<path d="M314.135 118.095C313.293 117.727 312.343 117.677 311.465 117.953C310.588 118.23 309.844 118.814 309.374 119.594C302.644 130.509 293.101 139.479 281.713 145.596L282.808 152.67C291.711 147.282 309.327 134.773 316.135 122.686C316.417 122.203 316.549 121.649 316.516 121.093C316.465 120.418 316.212 119.772 315.789 119.238C315.365 118.704 314.789 118.306 314.135 118.095Z" fill="#1A1623"/>
<path d="M321.134 105.679L328.133 104.649C328.499 104.609 328.854 104.496 329.175 104.317C329.496 104.138 329.776 103.896 329.999 103.607C330.222 103.317 330.382 102.986 330.471 102.634C330.559 102.281 330.573 101.915 330.513 101.556L328.228 88.2979C328.078 87.5829 327.651 86.9534 327.038 86.5425C326.425 86.1315 325.674 85.9714 324.943 86.0959L317.944 87.1266C317.58 87.1672 317.229 87.2785 316.909 87.454C316.589 87.6296 316.308 87.8659 316.083 88.1493C315.857 88.4327 315.69 88.7574 315.593 89.1046C315.496 89.4518 315.47 89.8146 315.516 90.1719L317.801 103.431C317.951 104.158 318.383 104.799 319.005 105.219C319.627 105.639 320.39 105.804 321.134 105.679Z" fill="#1A1623"/>
</g>
<defs>
<clipPath id="clip0_663_3096">
<rect width="669" height="525.566" fill="white" transform="translate(0.817383 0.96875)"/>
</clipPath>
</defs>
</svg>
