<svg width="200" height="64" viewBox="0 0 200 64" fill="none" xmlns="http://www.w3.org/2000/svg">
<path d="M104.579 11.8077C104.671 11.8076 104.761 11.8276 104.844 11.8663C104.926 11.905 105 11.9615 105.058 12.0317L107.404 14.172C107.52 14.3205 107.577 14.5065 107.565 14.6946V28.743C107.568 28.7815 107.563 28.8202 107.549 28.8565C107.536 28.8928 107.515 28.9258 107.488 28.9534C107.461 28.9811 107.428 29.0026 107.392 29.0168C107.356 29.0309 107.318 29.0372 107.279 29.0354H97.362C97.2852 29.0334 97.2105 29.0605 97.1528 29.1113C97.0952 29.162 97.0588 29.2327 97.051 29.3091V31.5116C97.0449 31.5843 97.0125 31.6523 96.9598 31.7027C96.907 31.7532 96.8377 31.7826 96.7648 31.7853H87.1026C87.0636 31.7907 87.024 31.7876 86.9863 31.7763C86.9487 31.7649 86.9139 31.7456 86.8844 31.7197C86.8549 31.6937 86.8313 31.6617 86.8153 31.6258C86.7993 31.5898 86.7911 31.5509 86.7915 31.5116V12.1002C86.799 12.022 86.8347 11.9492 86.892 11.8953C86.9492 11.8415 87.0241 11.8104 87.1026 11.8077H104.579ZM97.0572 20.1385C97.0552 20.1793 97.0621 20.22 97.0772 20.258C97.0923 20.2959 97.1154 20.3302 97.1449 20.3585C97.1743 20.3868 97.2095 20.4084 97.248 20.422C97.2866 20.4356 97.3276 20.4407 97.3683 20.4371H100.404C100.445 20.4407 100.486 20.4356 100.525 20.422C100.563 20.4084 100.598 20.3868 100.628 20.3585C100.657 20.3302 100.68 20.2959 100.695 20.258C100.711 20.22 100.717 20.1793 100.715 20.1385V17.4881C100.718 17.4475 100.711 17.407 100.696 17.3693C100.68 17.3316 100.657 17.2977 100.628 17.2699C100.598 17.242 100.563 17.221 100.524 17.2082C100.486 17.1954 100.445 17.1911 100.404 17.1957H97.3683C97.3279 17.1911 97.287 17.1954 97.2485 17.2082C97.2099 17.221 97.1746 17.242 97.145 17.2699C97.1154 17.2977 97.0922 17.3316 97.0771 17.3693C97.0619 17.407 97.0551 17.4475 97.0572 17.4881V20.1385Z" fill="#1A1623"/>
<path d="M130.654 11.8077C130.74 11.8141 130.82 11.8531 130.878 11.9168C130.936 11.9805 130.967 12.0639 130.965 12.1499L129.814 27.1689C129.817 27.2075 129.811 27.2462 129.798 27.2824C129.785 27.3187 129.764 27.3517 129.737 27.3794C129.71 27.407 129.677 27.4286 129.641 27.4427C129.605 27.4568 129.567 27.4632 129.528 27.4613H125.988C125.951 27.4588 125.914 27.4638 125.88 27.4761C125.845 27.4884 125.813 27.5077 125.787 27.5328C125.76 27.5579 125.738 27.5882 125.724 27.622C125.709 27.6557 125.702 27.6921 125.702 27.7288V31.5116C125.691 31.5869 125.654 31.656 125.597 31.7063C125.54 31.7565 125.467 31.7846 125.391 31.7853H114.932C114.893 31.7897 114.854 31.7859 114.817 31.7741C114.78 31.7624 114.745 31.7431 114.716 31.7173C114.687 31.6915 114.663 31.6599 114.647 31.6245C114.63 31.5891 114.622 31.5506 114.621 31.5116V27.7288C114.621 27.6921 114.614 27.6557 114.599 27.622C114.584 27.5882 114.563 27.5579 114.536 27.5328C114.509 27.5077 114.478 27.4884 114.443 27.4761C114.408 27.4638 114.371 27.4588 114.335 27.4613H111.112C111.033 27.46 110.957 27.4293 110.9 27.3753C110.842 27.3212 110.807 27.2476 110.801 27.1689L109.725 12.1499C109.712 12.1117 109.709 12.071 109.714 12.0312C109.72 11.9913 109.735 11.9534 109.758 11.9202C109.781 11.8871 109.811 11.8597 109.846 11.8402C109.882 11.8207 109.921 11.8096 109.961 11.8077H119.642C119.728 11.8126 119.809 11.8511 119.867 11.9152C119.926 11.9792 119.956 12.0635 119.953 12.1499L120.482 19.2426C120.491 19.3279 120.534 19.4061 120.6 19.4607C120.666 19.5153 120.751 19.542 120.836 19.535H123.188C123.356 19.535 123.549 19.423 123.549 19.2426L124.072 12.1499C124.068 12.0635 124.099 11.9792 124.157 11.9152C124.215 11.8511 124.296 11.8126 124.383 11.8077H130.654Z" fill="#1A1623"/>
<path d="M153.674 22.1232C153.71 22.1206 153.747 22.1256 153.782 22.1379C153.817 22.1502 153.848 22.1695 153.875 22.1946C153.902 22.2197 153.923 22.2501 153.938 22.2838C153.953 22.3176 153.96 22.3539 153.96 22.3907V31.5116C153.963 31.5499 153.957 31.5883 153.944 31.6243C153.93 31.6603 153.909 31.693 153.882 31.7201C153.855 31.7473 153.822 31.7683 153.786 31.7817C153.75 31.7951 153.712 31.8006 153.674 31.7978H136.141C135.969 31.7956 135.801 31.739 135.662 31.636L133.342 29.4336C133.281 29.3745 133.234 29.3038 133.201 29.2257C133.169 29.1476 133.154 29.0638 133.155 28.9794V12.1002C133.162 12.022 133.198 11.9492 133.255 11.8953C133.313 11.8415 133.387 11.8104 133.466 11.8077H150.961C151.143 11.8197 151.314 11.8996 151.44 12.0317L153.78 14.172C153.9 14.3185 153.96 14.5054 153.947 14.6946V18.6328C153.94 18.7044 153.907 18.7709 153.854 18.8201C153.802 18.8693 153.733 18.8978 153.661 18.9004H147.377C147.308 18.8913 147.243 18.8606 147.191 18.8126C147.14 18.7647 147.105 18.7018 147.091 18.6328V17.1708C147.093 17.1302 147.087 17.0897 147.071 17.052C147.056 17.0143 147.033 16.9804 147.003 16.9526C146.974 16.9247 146.939 16.9037 146.9 16.8909C146.861 16.8781 146.821 16.8738 146.78 16.8784H143.719C143.679 16.8738 143.638 16.8781 143.599 16.8909C143.561 16.9037 143.526 16.9247 143.496 16.9526C143.466 16.9804 143.443 17.0143 143.428 17.052C143.413 17.0897 143.406 17.1302 143.408 17.1708V23.971C143.406 24.0116 143.413 24.0521 143.428 24.0898C143.443 24.1275 143.466 24.1614 143.496 24.1892C143.526 24.217 143.561 24.2381 143.599 24.2509C143.638 24.2637 143.679 24.268 143.719 24.2634H146.755C146.796 24.268 146.837 24.2637 146.875 24.2509C146.914 24.2381 146.949 24.217 146.979 24.1892C147.008 24.1614 147.031 24.1275 147.046 24.0898C147.062 24.0521 147.068 24.0116 147.066 23.971V22.3907C147.073 22.3186 147.105 22.2513 147.158 22.2019C147.211 22.1525 147.28 22.1245 147.353 22.1232H153.674Z" fill="#1A1623"/>
<path d="M176.731 14.172C176.874 14.3105 176.96 14.4965 176.974 14.6946V31.4929C176.974 31.6547 176.781 31.7667 176.663 31.7667H159.162C158.966 31.7753 158.773 31.7184 158.614 31.6049L156.343 29.4025C156.275 29.3464 156.218 29.2775 156.177 29.1995C156.135 29.1216 156.109 29.0362 156.101 28.9483V12.1002C156.109 12.0224 156.145 11.9504 156.202 11.8968C156.259 11.8432 156.334 11.8117 156.412 11.8077H173.913C174.115 11.8192 174.308 11.8981 174.461 12.0317L176.731 14.172ZM169.732 22.8449C169.815 22.8555 169.9 22.8326 169.966 22.7813C170.032 22.73 170.076 22.6544 170.087 22.5711V17.1708C170.083 17.1282 170.071 17.0868 170.051 17.0491C170.031 17.0113 170.003 16.9778 169.97 16.9506C169.937 16.9234 169.899 16.9031 169.859 16.8907C169.818 16.8782 169.775 16.8741 169.732 16.8784H166.696C166.656 16.8738 166.615 16.8781 166.576 16.8909C166.538 16.9037 166.502 16.9247 166.473 16.9526C166.443 16.9804 166.42 17.0143 166.405 17.052C166.39 17.0897 166.383 17.1302 166.385 17.1708V22.5711C166.385 22.6104 166.393 22.6494 166.409 22.6853C166.425 22.7212 166.448 22.7532 166.478 22.7792C166.507 22.8052 166.542 22.8245 166.58 22.8358C166.617 22.8472 166.657 22.8502 166.696 22.8449H169.732Z" fill="#1A1623"/>
<path d="M199.614 11.8077C199.7 11.8126 199.781 11.8511 199.84 11.9152C199.898 11.9792 199.929 12.0635 199.925 12.1499V31.5116C199.926 31.5509 199.917 31.5898 199.901 31.6258C199.885 31.6617 199.862 31.6937 199.832 31.7197C199.803 31.7456 199.768 31.7649 199.73 31.7763C199.693 31.7876 199.653 31.7907 199.614 31.7853H193.349C193.165 31.7743 192.993 31.6916 192.87 31.5551L189.572 26.3788C189.523 26.2232 189.336 26.2668 189.336 26.4472V31.5116C189.336 31.5486 189.329 31.5853 189.314 31.6193C189.3 31.6534 189.278 31.6841 189.251 31.7097C189.225 31.7353 189.193 31.7552 189.158 31.7682C189.124 31.7812 189.087 31.787 189.05 31.7853H179.413C179.375 31.788 179.338 31.7828 179.303 31.7701C179.268 31.7574 179.236 31.7376 179.209 31.7118C179.182 31.686 179.161 31.6549 179.146 31.6204C179.132 31.5859 179.125 31.5489 179.126 31.5116V12.1499C179.123 12.0674 179.15 11.9865 179.203 11.9231C179.256 11.8597 179.331 11.8186 179.413 11.8077H189.093C189.191 11.8118 189.287 11.8408 189.371 11.892C189.455 11.9431 189.524 12.0148 189.572 12.1002L192.801 17.2828C192.817 17.3046 192.839 17.3211 192.865 17.3299C192.89 17.3387 192.918 17.3394 192.944 17.3319C192.97 17.3244 192.993 17.3091 193.009 17.288C193.026 17.267 193.036 17.2412 193.038 17.2143V12.1499C193.034 12.0635 193.065 11.9792 193.123 11.9152C193.182 11.8511 193.263 11.8126 193.349 11.8077H199.614Z" fill="#1A1623"/>
<path d="M152.821 50.6364C152.821 50.6605 152.815 50.6841 152.805 50.7058C152.794 50.7275 152.78 50.7468 152.762 50.7626C152.743 50.7784 152.722 50.7902 152.699 50.7974C152.676 50.8046 152.652 50.807 152.628 50.8044H145.928C145.881 50.807 145.837 50.8258 145.803 50.8577C145.769 50.8895 145.747 50.9323 145.741 50.9786V51.7066C145.741 51.7305 145.746 51.7543 145.755 51.7762C145.765 51.7982 145.779 51.818 145.796 51.8344C145.814 51.8507 145.835 51.8633 145.857 51.8713C145.88 51.8792 145.904 51.8825 145.928 51.8808H152.628C152.674 51.8814 152.718 51.8978 152.754 51.9273C152.789 51.9568 152.813 51.9975 152.821 52.0425V56.2483C152.82 56.2718 152.813 56.2947 152.803 56.3157C152.792 56.3367 152.777 56.3553 152.759 56.3704C152.741 56.3855 152.72 56.3968 152.698 56.4037C152.675 56.4105 152.652 56.4127 152.628 56.4101H139.246C139.121 56.4101 139.009 56.3417 139.009 56.2483V50.1201C139.025 50.0041 139.082 49.8979 139.171 49.8214L140.67 48.5273C140.773 48.4581 140.895 48.4213 141.019 48.4216H146.618C146.668 48.4144 146.715 48.3899 146.749 48.3525C146.783 48.315 146.803 48.2668 146.805 48.2162V47.5941C146.803 47.5457 146.783 47.4998 146.748 47.4661C146.713 47.4324 146.667 47.4136 146.618 47.4137H139.246C139.197 47.4174 139.15 47.4028 139.111 47.3729C139.073 47.3429 139.048 47.2997 139.04 47.2519V44.5144C139.048 44.4649 139.072 44.4196 139.11 44.3866C139.148 44.3535 139.196 44.3349 139.246 44.334H152.628C152.677 44.3365 152.722 44.356 152.758 44.389C152.793 44.422 152.815 44.4664 152.821 44.5144V50.6364Z" fill="#1A1623"/>
<path d="M168.145 44.334C168.194 44.3365 168.239 44.356 168.275 44.389C168.31 44.422 168.332 44.4664 168.338 44.5144V54.7054C168.342 54.7565 168.333 54.8078 168.314 54.8552C168.295 54.9027 168.265 54.9451 168.226 54.9791L166.739 56.3168C166.631 56.384 166.505 56.4166 166.378 56.4101H154.763C154.638 56.4101 154.557 56.3417 154.557 56.2483V46.1071C154.57 45.9867 154.628 45.8756 154.719 45.796L156.225 44.5019C156.328 44.4192 156.454 44.3713 156.586 44.3651L168.145 44.334ZM159.311 47.6003C159.286 47.5976 159.261 47.6003 159.237 47.6082C159.213 47.6162 159.191 47.6291 159.173 47.6463C159.155 47.6634 159.14 47.6843 159.131 47.7075C159.121 47.7307 159.117 47.7557 159.118 47.7807V50.8418C159.119 50.8652 159.126 50.8882 159.136 50.9091C159.147 50.9301 159.162 50.9487 159.18 50.9638C159.198 50.979 159.219 50.9903 159.241 50.9971C159.264 51.0039 159.287 51.0061 159.311 51.0035H161.37C161.445 51.0035 161.575 50.9351 161.575 50.8418V47.7807C161.575 47.6687 161.445 47.6003 161.37 47.6003H159.311Z" fill="#1A1623"/>
<path d="M184.16 50.6364C184.159 50.6605 184.154 50.6841 184.143 50.7058C184.133 50.7275 184.119 50.7468 184.1 50.7626C184.082 50.7784 184.061 50.7902 184.038 50.7974C184.015 50.8046 183.991 50.807 183.967 50.8044H177.279C177.232 50.807 177.188 50.8258 177.154 50.8577C177.12 50.8895 177.098 50.9323 177.092 50.9786V51.7066C177.092 51.7305 177.097 51.7543 177.107 51.7762C177.116 51.7982 177.13 51.818 177.148 51.8344C177.165 51.8507 177.186 51.8633 177.209 51.8713C177.231 51.8792 177.255 51.8825 177.279 51.8808H183.98C184.026 51.8814 184.07 51.8978 184.105 51.9273C184.14 51.9568 184.164 51.9975 184.173 52.0425V56.2483C184.171 56.2718 184.165 56.2947 184.154 56.3157C184.143 56.3367 184.129 56.3553 184.111 56.3704C184.093 56.3855 184.072 56.3968 184.049 56.4037C184.027 56.4105 184.003 56.4127 183.98 56.4101H170.597C170.473 56.4101 170.361 56.3417 170.361 56.2483V50.1201C170.376 50.0041 170.434 49.8979 170.522 49.8214L172.022 48.5273C172.125 48.4581 172.246 48.4213 172.37 48.4216H177.97C178.02 48.4144 178.066 48.3899 178.1 48.3525C178.134 48.315 178.154 48.2668 178.156 48.2162V47.5941C178.155 47.5457 178.134 47.4998 178.099 47.4661C178.065 47.4324 178.018 47.4136 177.97 47.4137H170.597C170.549 47.4174 170.501 47.4028 170.463 47.3729C170.425 47.3429 170.399 47.2997 170.392 47.2519V44.5144C170.399 44.4649 170.424 44.4196 170.461 44.3866C170.499 44.3535 170.547 44.3349 170.597 44.334H183.98C184.028 44.3365 184.074 44.356 184.109 44.389C184.144 44.422 184.167 44.4664 184.173 44.5144L184.16 50.6364Z" fill="#1A1623"/>
<path d="M107.012 36.4391C107.086 36.4463 107.156 36.4795 107.208 36.533C107.26 36.5865 107.292 36.6569 107.298 36.7315V53.5734C107.303 53.6558 107.291 53.7383 107.262 53.8156C107.233 53.8929 107.188 53.963 107.13 54.0214L104.859 56.2301C104.699 56.3422 104.506 56.397 104.311 56.3856H86.7789C86.7406 56.3899 86.7018 56.3863 86.665 56.3749C86.6282 56.3636 86.5942 56.3448 86.565 56.3197C86.5358 56.2946 86.5121 56.2637 86.4954 56.229C86.4786 56.1943 86.4692 56.1566 86.4678 56.1181V42.922C86.4765 42.8443 86.5126 42.7723 86.5696 42.7187C86.6266 42.6651 86.7007 42.6336 86.7789 42.6296H93.044C93.1225 42.6323 93.1974 42.6634 93.2546 42.7172C93.3119 42.771 93.3476 42.8438 93.3551 42.922V47.2025C93.355 47.2393 93.3625 47.2757 93.3771 47.3094C93.3917 47.3431 93.4131 47.3735 93.4399 47.3986C93.4668 47.4237 93.4985 47.443 93.5332 47.4553C93.5678 47.4676 93.6046 47.4726 93.6413 47.47H96.7521C96.8703 47.47 97.0632 47.3581 97.0632 47.2025V36.7315C97.0687 36.6569 97.1005 36.5865 97.1529 36.533C97.2052 36.4795 97.2748 36.4463 97.3494 36.4391H107.012Z" fill="#1A1623"/>
<path d="M128.165 36.4389C128.256 36.4369 128.346 36.4562 128.428 36.495C128.51 36.5339 128.582 36.5914 128.638 36.6629L130.984 38.8031C131.101 38.9486 131.161 39.1325 131.152 39.3195V53.3679C131.154 53.4065 131.149 53.4451 131.135 53.4814C131.122 53.5177 131.101 53.5507 131.074 53.5784C131.047 53.606 131.015 53.6276 130.979 53.6417C130.943 53.6558 130.904 53.6622 130.865 53.6603H120.967C120.89 53.6598 120.816 53.6874 120.759 53.7379C120.702 53.7883 120.665 53.8582 120.656 53.9341V56.1427C120.648 56.2143 120.615 56.2808 120.563 56.33C120.51 56.3791 120.442 56.4077 120.37 56.4103H110.689C110.65 56.4156 110.611 56.4126 110.574 56.4017C110.537 56.3907 110.502 56.3719 110.473 56.3466C110.443 56.3213 110.42 56.2901 110.403 56.2549C110.387 56.2198 110.378 56.1815 110.378 56.1427V36.7313C110.385 36.6531 110.421 36.5803 110.478 36.5265C110.535 36.4727 110.61 36.4415 110.689 36.4389H128.165ZM120.656 44.7696C120.654 44.8102 120.661 44.8507 120.676 44.8884C120.691 44.9261 120.714 44.96 120.744 44.9878C120.773 45.0157 120.809 45.0367 120.847 45.0495C120.886 45.0623 120.927 45.0666 120.967 45.062H124.003C124.043 45.0666 124.084 45.0623 124.123 45.0495C124.161 45.0367 124.197 45.0157 124.226 44.9878C124.256 44.96 124.279 44.9261 124.294 44.8884C124.309 44.8507 124.316 44.8102 124.314 44.7696V42.1317C124.316 42.0911 124.309 42.0506 124.294 42.0129C124.279 41.9752 124.256 41.9413 124.226 41.9134C124.197 41.8856 124.161 41.8646 124.123 41.8518C124.084 41.839 124.043 41.8347 124.003 41.8392H120.967C120.927 41.8347 120.886 41.839 120.847 41.8518C120.809 41.8646 120.773 41.8856 120.744 41.9134C120.714 41.9413 120.691 41.9752 120.676 42.0129C120.661 42.0506 120.654 42.0911 120.656 42.1317V44.7696Z" fill="#1A1623"/>
<path d="M106.234 39.3322V44.9815H100.237L106.234 39.3322Z" fill="#F3D34F"/>
<path d="M117.981 46.8604H111.977V52.5159L117.981 46.8604Z" fill="#F3D34F"/>
<path d="M117.98 38.1128H111.983V46.2009H117.98V38.1128Z" fill="#E84118"/>
<path d="M106.284 45.6408V53.2934L104.393 55.1474H100.28V45.6408H106.284Z" fill="#E84118"/>
<path d="M44.8826 49.7468L60.3869 31.2127L35.1707 22.6704L44.8826 49.7468Z" fill="#E84118"/>
<path d="M44.4534 50.5185L60.3994 31.779V31.2378L44.4534 49.9773V50.5185Z" fill="#1A1623"/>
<path d="M71.841 19.7649L62.3904 30.8518L77.8324 35.6923L71.841 19.7649Z" fill="#E84118"/>
<path d="M62.4958 30.7523V31.2936L77.8321 36.2336V35.6923L62.4958 30.7523Z" fill="#1A1623"/>
<path d="M33.1055 21.8618L18.6403 16.5112L1.03931 34.8401L16.5996 40.5018L33.1055 21.8618Z" fill="#1A1623"/>
<path d="M16.5994 41.043L33.1053 22.4031V21.8618L16.5994 40.5017V41.043Z" fill="#F3D34F"/>
<path d="M16.5996 40.5018L1.03931 34.8401V35.3814L16.5996 41.0431V40.5018Z" fill="#F3D34F"/>
<path d="M71.0135 18.9935L44.5841 9.85397L35.0215 21.3577L61.2269 30.3915L71.0135 18.9935Z" fill="#1A1623"/>
<path d="M61.2397 30.9328L71.0263 19.5348V18.9935L61.2397 30.3915V30.9328Z" fill="#F3D34F"/>
<path d="M61.2269 30.3916L35.0215 21.3578V21.8991L61.2269 30.9329V30.3916Z" fill="#F3D34F"/>
<path d="M43.514 51.5823L17.0846 42.4428L7.52197 53.9465L33.7274 62.9803L43.514 51.5823Z" fill="#1A1623"/>
<path d="M33.7397 63.5217L43.5263 52.1237V51.5824L33.7397 62.9804V63.5217Z" fill="#E84118"/>
<path d="M33.7272 62.9802L7.7395 54.0522V54.5935L33.7272 63.5215V62.9802Z" fill="#F3D34F"/>
<path d="M18.0425 41.2919L43.2587 49.9338L34.2125 22.7578L18.0425 41.2919Z" fill="#F3D34F"/>
<path d="M18.0425 41.8331L43.2587 50.4749V49.9336L18.0425 41.2918V41.8331Z" fill="#E84118"/>
<path d="M5.81099 53.4426L15.7656 41.7647L0 36.2274L5.81099 53.4426Z" fill="#F3D34F"/>
<path d="M5.82323 53.8906L15.7716 42.2126L15.7654 41.7646L5.81079 53.4426L5.82323 53.8906Z" fill="#E84118"/>
<path d="M0.019043 36.2336V36.6815L5.82381 53.8905L5.81137 53.4426L0.019043 36.2336Z" fill="#E84118"/>
<path d="M77.0735 36.7564L61.7372 31.8164L45.561 50.979L60.5738 56.2238L77.0735 36.7564Z" fill="#1A1623"/>
<path d="M60.5735 56.2239V56.6657L77.0732 37.1982V36.7565L60.5735 56.2239Z" fill="#F3D34F"/>
<path d="M45.561 50.9792V51.4147L60.5738 56.6658V56.224L45.561 50.9792Z" fill="#F3D34F"/>
<path d="M33.5405 10.6069H33.1548L43.8062 0.0674438H44.1857L33.5405 10.6069Z" fill="#1A1623"/>
<path d="M44.1855 0.0674438V9.26921L33.8887 21.0654L32.7937 13.8545L33.5403 10.6069L44.1855 0.0674438Z" fill="#E84118"/>
<path d="M33.8889 21.0653H33.5032L32.4082 13.8545H32.7939L33.8889 21.0653Z" fill="#1A1623"/>
<path d="M32.7939 13.8546H32.4082L33.1548 10.6069H33.5405L32.7939 13.8546Z" fill="#1A1623"/>
<path d="M41.9776 44.4462L44.5036 45.0808L45.4866 52.2419L35.4574 63.9323L34.1011 53.7973L41.9776 44.4462Z" fill="#F3D34F"/>
<path d="M35.4569 63.9326L35.0463 63.8455L33.6899 53.8038L34.1006 53.7975L35.4569 63.9326Z" fill="#E84118"/>
<path d="M34.1006 53.7973L33.6899 53.8035L41.5665 44.4524L41.9771 44.4462L34.1006 53.7973Z" fill="#E84118"/>
<path d="M44.7957 48.6584C44.7621 48.688 44.7346 48.724 44.7148 48.7642C44.7148 48.7642 43.4705 51.1906 41.5667 52.155C41.5228 52.1746 41.4836 52.2033 41.4515 52.2391C41.4194 52.2749 41.3953 52.3171 41.3806 52.3629C41.3659 52.4087 41.3611 52.457 41.3663 52.5048C41.3716 52.5526 41.3869 52.5988 41.4112 52.6403C41.4497 52.6983 41.5026 52.7455 41.5648 52.7771C41.6269 52.8087 41.6961 52.8237 41.7658 52.8207C41.8307 52.8218 41.8948 52.8069 41.9524 52.7771C43.1853 52.0689 44.2174 51.0583 44.9513 49.8405L44.7957 48.6584Z" fill="#1A1623"/>
<path d="M39.4204 54.463H38.6552C38.6154 54.4655 38.5756 54.4601 38.538 54.447C38.5004 54.4339 38.4658 54.4134 38.4363 54.3867C38.4067 54.3601 38.3828 54.3278 38.3659 54.2917C38.349 54.2557 38.3394 54.2166 38.3379 54.1768L38.3005 52.8018C38.3005 52.721 38.3327 52.6434 38.3898 52.5863C38.447 52.5291 38.5245 52.497 38.6054 52.497H39.3644C39.4455 52.4951 39.5242 52.5244 39.5844 52.5788C39.6446 52.6332 39.6816 52.7085 39.688 52.7894L39.7253 54.1955C39.7161 54.2697 39.68 54.338 39.6238 54.3873C39.5676 54.4366 39.4952 54.4636 39.4204 54.463Z" fill="#1A1623"/>
<path d="M37.4663 14.3025C37.3632 14.2525 37.245 14.2433 37.1353 14.2767C37.0257 14.3102 36.9328 14.3838 36.8752 14.483C36.0793 15.8066 34.9484 16.8968 33.5964 17.6435L33.7271 18.5021C34.7972 17.8426 36.9001 16.3245 37.684 14.8562C37.7178 14.7977 37.735 14.731 37.7338 14.6634C37.7283 14.584 37.7002 14.5078 37.6528 14.4438C37.6054 14.3799 37.5407 14.3309 37.4663 14.3025Z" fill="#1A1623"/>
<path d="M38.3063 12.7906L39.14 12.6661C39.1838 12.6616 39.2262 12.6482 39.2647 12.6267C39.3031 12.6052 39.3368 12.5761 39.3636 12.5412C39.3904 12.5062 39.4097 12.4662 39.4205 12.4235C39.4313 12.3808 39.4332 12.3363 39.4262 12.2928L39.1525 10.6814C39.1358 10.5937 39.0855 10.5159 39.0122 10.4648C38.939 10.4136 38.8486 10.3931 38.7605 10.4077L37.9517 10.5383C37.9079 10.5429 37.8655 10.5563 37.827 10.5778C37.7886 10.5993 37.7549 10.6284 37.7281 10.6633C37.7014 10.6983 37.682 10.7383 37.6712 10.781C37.6604 10.8237 37.6585 10.8682 37.6655 10.9116L37.9081 12.5106C37.9157 12.5552 37.932 12.598 37.9561 12.6363C37.9802 12.6746 38.0117 12.7077 38.0488 12.7337C38.0858 12.7598 38.1276 12.7782 38.1719 12.788C38.2161 12.7977 38.2618 12.7986 38.3063 12.7906Z" fill="#1A1623"/>
</svg>
