<svg width="200" height="65" viewBox="0 0 200 65" fill="none" xmlns="http://www.w3.org/2000/svg">
<path d="M104.579 12.3063C104.671 12.3062 104.761 12.3262 104.844 12.3649C104.926 12.4036 105 12.4601 105.058 12.5303L107.404 14.6705C107.52 14.8191 107.577 15.005 107.565 15.1932V29.2416C107.568 29.2801 107.563 29.3188 107.549 29.3551C107.536 29.3914 107.515 29.4244 107.488 29.452C107.461 29.4797 107.428 29.5012 107.392 29.5154C107.356 29.5295 107.318 29.5358 107.279 29.534H97.362C97.2852 29.532 97.2105 29.5591 97.1528 29.6099C97.0952 29.6606 97.0588 29.7313 97.051 29.8077V32.0102C97.0449 32.0829 97.0125 32.1509 96.9598 32.2013C96.907 32.2518 96.8377 32.2811 96.7648 32.2839H87.1026C87.0636 32.2893 87.024 32.2862 86.9863 32.2749C86.9487 32.2635 86.9139 32.2442 86.8844 32.2183C86.8549 32.1923 86.8313 32.1603 86.8153 32.1243C86.7993 32.0884 86.7911 32.0495 86.7915 32.0102V12.5988C86.799 12.5206 86.8347 12.4478 86.892 12.3939C86.9492 12.3401 87.0241 12.309 87.1026 12.3063H104.579ZM97.0572 20.6371C97.0552 20.6779 97.0621 20.7186 97.0772 20.7566C97.0923 20.7945 97.1154 20.8288 97.1449 20.8571C97.1743 20.8854 97.2095 20.907 97.248 20.9206C97.2866 20.9342 97.3276 20.9393 97.3683 20.9357H100.404C100.445 20.9393 100.486 20.9342 100.525 20.9206C100.563 20.907 100.598 20.8854 100.628 20.8571C100.657 20.8288 100.68 20.7945 100.695 20.7566C100.711 20.7186 100.717 20.6779 100.715 20.6371V17.9867C100.718 17.9461 100.711 17.9056 100.696 17.8679C100.68 17.8302 100.657 17.7963 100.628 17.7685C100.598 17.7406 100.563 17.7196 100.524 17.7068C100.486 17.694 100.445 17.6897 100.404 17.6943H97.3683C97.3279 17.6897 97.287 17.694 97.2485 17.7068C97.2099 17.7196 97.1746 17.7406 97.145 17.7685C97.1154 17.7963 97.0922 17.8302 97.0771 17.8679C97.0619 17.9056 97.0551 17.9461 97.0572 17.9867V20.6371Z" fill="#1A1623"/>
<path d="M130.654 12.3063C130.74 12.3127 130.82 12.3517 130.878 12.4154C130.936 12.4791 130.967 12.5625 130.965 12.6485L129.814 27.6675C129.817 27.7061 129.811 27.7447 129.798 27.781C129.784 27.8173 129.764 27.8503 129.736 27.878C129.709 27.9056 129.677 27.9272 129.641 27.9413C129.605 27.9554 129.566 27.9618 129.528 27.9599H125.988C125.951 27.9573 125.914 27.9624 125.88 27.9747C125.845 27.987 125.813 28.0063 125.786 28.0314C125.759 28.0565 125.738 28.0868 125.723 28.1206C125.709 28.1543 125.701 28.1907 125.701 28.2274V32.0102C125.691 32.0855 125.654 32.1546 125.597 32.2049C125.54 32.2551 125.466 32.2832 125.39 32.2839H114.932C114.893 32.2883 114.854 32.2845 114.817 32.2727C114.779 32.261 114.745 32.2417 114.716 32.2159C114.686 32.1901 114.663 32.1585 114.647 32.1231C114.63 32.0876 114.621 32.0492 114.621 32.0102V28.2274C114.621 28.1907 114.613 28.1543 114.599 28.1206C114.584 28.0868 114.563 28.0565 114.536 28.0314C114.509 28.0063 114.477 27.987 114.443 27.9747C114.408 27.9624 114.371 27.9573 114.335 27.9599H111.112C111.033 27.9586 110.957 27.9279 110.9 27.8739C110.842 27.8198 110.807 27.7462 110.801 27.6675L109.724 12.6485C109.712 12.6103 109.708 12.5696 109.714 12.5298C109.72 12.4899 109.735 12.452 109.758 12.4188C109.781 12.3857 109.811 12.3583 109.846 12.3388C109.881 12.3193 109.921 12.3082 109.961 12.3063H119.642C119.728 12.3112 119.809 12.3497 119.867 12.4138C119.925 12.4778 119.956 12.5621 119.953 12.6485L120.482 19.7412C120.491 19.8265 120.533 19.9047 120.599 19.9593C120.666 20.0139 120.751 20.0406 120.836 20.0336H123.188C123.356 20.0336 123.549 19.9216 123.549 19.7412L124.071 12.6485C124.068 12.5621 124.099 12.4778 124.157 12.4138C124.215 12.3497 124.296 12.3112 124.382 12.3063H130.654Z" fill="#1A1623"/>
<path d="M153.674 22.6218C153.71 22.6192 153.747 22.6242 153.782 22.6365C153.817 22.6488 153.848 22.6681 153.875 22.6932C153.902 22.7183 153.923 22.7487 153.938 22.7824C153.953 22.8162 153.96 22.8525 153.96 22.8893V32.0102C153.963 32.0485 153.957 32.0869 153.944 32.1229C153.93 32.1589 153.909 32.1916 153.882 32.2187C153.855 32.2459 153.822 32.2669 153.786 32.2803C153.75 32.2937 153.712 32.2992 153.674 32.2964H136.141C135.969 32.2942 135.801 32.2376 135.662 32.1346L133.342 29.9322C133.281 29.8731 133.234 29.8024 133.201 29.7243C133.169 29.6462 133.154 29.5624 133.155 29.478V12.5988C133.162 12.5205 133.198 12.4478 133.255 12.3939C133.313 12.3401 133.387 12.309 133.466 12.3063H150.961C151.143 12.3183 151.314 12.3982 151.44 12.5303L153.78 14.6705C153.9 14.8171 153.96 15.0039 153.947 15.1932V19.1314C153.94 19.203 153.907 19.2695 153.854 19.3187C153.802 19.3679 153.733 19.3964 153.661 19.399H147.377C147.308 19.3899 147.243 19.3592 147.191 19.3112C147.14 19.2633 147.105 19.2004 147.091 19.1314V17.6694C147.093 17.6288 147.087 17.5883 147.071 17.5506C147.056 17.5129 147.033 17.479 147.003 17.4512C146.974 17.4233 146.939 17.4023 146.9 17.3895C146.861 17.3767 146.821 17.3724 146.78 17.377H143.719C143.679 17.3724 143.638 17.3767 143.599 17.3895C143.561 17.4023 143.526 17.4233 143.496 17.4512C143.466 17.479 143.443 17.5129 143.428 17.5506C143.413 17.5883 143.406 17.6288 143.408 17.6694V24.4696C143.406 24.5102 143.413 24.5507 143.428 24.5884C143.443 24.6261 143.466 24.66 143.496 24.6878C143.526 24.7156 143.561 24.7367 143.599 24.7495C143.638 24.7623 143.679 24.7666 143.719 24.762H146.755C146.796 24.7666 146.837 24.7623 146.875 24.7495C146.914 24.7367 146.949 24.7156 146.979 24.6878C147.008 24.66 147.031 24.6261 147.046 24.5884C147.062 24.5507 147.068 24.5102 147.066 24.4696V22.8893C147.073 22.8172 147.105 22.7499 147.158 22.7005C147.211 22.6511 147.28 22.623 147.353 22.6218H153.674Z" fill="#1A1623"/>
<path d="M176.731 14.6705C176.874 14.8091 176.96 14.9951 176.974 15.1932V31.9915C176.974 32.1533 176.781 32.2653 176.663 32.2653H159.162C158.966 32.2739 158.773 32.217 158.614 32.1035L156.343 29.9011C156.275 29.845 156.218 29.7761 156.177 29.6981C156.135 29.6202 156.109 29.5348 156.101 29.4469V12.5988C156.109 12.521 156.145 12.449 156.202 12.3954C156.259 12.3418 156.334 12.3103 156.412 12.3063H173.913C174.115 12.3178 174.308 12.3967 174.461 12.5303L176.731 14.6705ZM169.732 23.3435C169.815 23.3541 169.9 23.3312 169.966 23.2799C170.032 23.2286 170.076 23.153 170.087 23.0697V17.6694C170.083 17.6268 170.071 17.5854 170.051 17.5477C170.031 17.5099 170.003 17.4764 169.97 17.4492C169.937 17.422 169.899 17.4017 169.859 17.3893C169.818 17.3768 169.775 17.3727 169.732 17.377H166.696C166.656 17.3724 166.615 17.3767 166.576 17.3895C166.538 17.4023 166.502 17.4233 166.473 17.4512C166.443 17.479 166.42 17.5129 166.405 17.5506C166.39 17.5883 166.383 17.6288 166.385 17.6694V23.0697C166.385 23.109 166.393 23.148 166.409 23.1839C166.425 23.2198 166.448 23.2518 166.478 23.2778C166.507 23.3038 166.542 23.3231 166.58 23.3344C166.617 23.3458 166.657 23.3488 166.696 23.3435H169.732Z" fill="#1A1623"/>
<path d="M199.614 12.3063C199.7 12.3112 199.781 12.3497 199.84 12.4138C199.898 12.4778 199.929 12.5621 199.925 12.6485V32.0102C199.926 32.0495 199.917 32.0884 199.901 32.1243C199.885 32.1603 199.862 32.1923 199.832 32.2183C199.803 32.2442 199.768 32.2635 199.73 32.2749C199.693 32.2862 199.653 32.2893 199.614 32.2839H193.349C193.165 32.2729 192.993 32.1902 192.87 32.0537L189.572 26.8774C189.523 26.7218 189.336 26.7654 189.336 26.9458V32.0102C189.336 32.0472 189.329 32.0839 189.314 32.1179C189.3 32.152 189.278 32.1827 189.251 32.2083C189.225 32.2339 189.193 32.2538 189.158 32.2668C189.124 32.2798 189.087 32.2856 189.05 32.2839H179.413C179.375 32.2866 179.338 32.2814 179.303 32.2687C179.268 32.256 179.236 32.2362 179.209 32.2104C179.182 32.1846 179.161 32.1535 179.146 32.119C179.132 32.0845 179.125 32.0475 179.126 32.0102V12.6485C179.123 12.566 179.15 12.4851 179.203 12.4217C179.256 12.3583 179.331 12.3172 179.413 12.3063H189.093C189.191 12.3104 189.287 12.3394 189.371 12.3906C189.455 12.4417 189.524 12.5134 189.572 12.5988L192.801 17.7814C192.817 17.8032 192.839 17.8197 192.865 17.8285C192.89 17.8373 192.918 17.838 192.944 17.8305C192.97 17.823 192.993 17.8077 193.009 17.7866C193.026 17.7656 193.036 17.7398 193.038 17.7129V12.6485C193.034 12.5621 193.065 12.4778 193.123 12.4138C193.182 12.3497 193.263 12.3112 193.349 12.3063H199.614Z" fill="#1A1623"/>
<path d="M152.821 51.1351C152.821 51.1591 152.815 51.1827 152.805 51.2044C152.794 51.2261 152.78 51.2455 152.762 51.2612C152.743 51.277 152.722 51.2889 152.699 51.2961C152.676 51.3033 152.652 51.3056 152.628 51.3031H145.928C145.881 51.3056 145.837 51.3245 145.803 51.3563C145.769 51.3881 145.747 51.431 145.741 51.4773V52.2052C145.741 52.2292 145.746 52.2529 145.755 52.2749C145.765 52.2969 145.779 52.3166 145.796 52.333C145.814 52.3493 145.835 52.3619 145.857 52.3699C145.88 52.3779 145.904 52.3811 145.928 52.3794H152.628C152.674 52.38 152.718 52.3965 152.754 52.4259C152.789 52.4554 152.813 52.4961 152.821 52.5412V56.747C152.82 56.7704 152.813 56.7934 152.803 56.8143C152.792 56.8353 152.777 56.8539 152.759 56.869C152.741 56.8842 152.72 56.8955 152.698 56.9023C152.675 56.9091 152.652 56.9113 152.628 56.9087H139.246C139.121 56.9087 139.009 56.8403 139.009 56.747V50.6187C139.025 50.5027 139.082 50.3965 139.171 50.32L140.67 49.0259C140.773 48.9567 140.895 48.9199 141.019 48.9202H146.618C146.668 48.913 146.715 48.8886 146.749 48.8511C146.783 48.8136 146.803 48.7655 146.805 48.7149V48.0927C146.803 48.0443 146.783 47.9984 146.748 47.9647C146.713 47.9311 146.667 47.9123 146.618 47.9123H139.246C139.197 47.916 139.15 47.9014 139.111 47.8715C139.073 47.8415 139.048 47.7983 139.04 47.7505V45.013C139.048 44.9635 139.072 44.9182 139.11 44.8852C139.148 44.8521 139.196 44.8335 139.246 44.8326H152.628C152.677 44.8352 152.722 44.8547 152.758 44.8877C152.793 44.9207 152.815 44.965 152.821 45.013V51.1351Z" fill="#1A1623"/>
<path d="M168.146 44.8326C168.194 44.8352 168.24 44.8547 168.275 44.8877C168.31 44.9207 168.333 44.965 168.338 45.013V55.204C168.342 55.2552 168.334 55.3064 168.314 55.3539C168.295 55.4013 168.265 55.4437 168.227 55.4778L166.74 56.8154C166.632 56.8827 166.506 56.9152 166.379 56.9087H154.763C154.638 56.9087 154.558 56.8403 154.558 56.747V46.6057C154.57 46.4853 154.628 46.3742 154.719 46.2947L156.225 45.0006C156.328 44.9178 156.454 44.8699 156.586 44.8637L168.146 44.8326ZM159.311 48.0989C159.286 48.0962 159.261 48.0989 159.237 48.1069C159.213 48.1148 159.191 48.1278 159.173 48.1449C159.155 48.162 159.14 48.1829 159.131 48.2061C159.121 48.2293 159.117 48.2543 159.118 48.2794V51.3404C159.12 51.3639 159.126 51.3868 159.137 51.4078C159.147 51.4287 159.162 51.4473 159.18 51.4625C159.198 51.4776 159.219 51.4889 159.241 51.4957C159.264 51.5025 159.288 51.5047 159.311 51.5022H161.37C161.445 51.5022 161.576 51.4337 161.576 51.3404V48.2794C161.576 48.1674 161.445 48.0989 161.37 48.0989H159.311Z" fill="#1A1623"/>
<path d="M184.16 51.1351C184.159 51.1591 184.153 51.1827 184.143 51.2044C184.133 51.2261 184.118 51.2455 184.1 51.2612C184.082 51.277 184.061 51.2889 184.038 51.2961C184.015 51.3033 183.991 51.3056 183.967 51.3031H177.279C177.232 51.3056 177.188 51.3245 177.154 51.3563C177.12 51.3881 177.098 51.431 177.092 51.4773V52.2052C177.092 52.2292 177.097 52.2529 177.106 52.2749C177.116 52.2969 177.13 52.3166 177.147 52.333C177.165 52.3493 177.186 52.3619 177.208 52.3699C177.231 52.3779 177.255 52.3811 177.279 52.3794H183.979C184.025 52.38 184.07 52.3965 184.105 52.4259C184.14 52.4554 184.164 52.4961 184.172 52.5412V56.747C184.171 56.7704 184.165 56.7934 184.154 56.8143C184.143 56.8353 184.128 56.8539 184.11 56.869C184.092 56.8842 184.072 56.8955 184.049 56.9023C184.027 56.9091 184.003 56.9113 183.979 56.9087H170.597C170.472 56.9087 170.36 56.8403 170.36 56.747V50.6187C170.376 50.5027 170.434 50.3965 170.522 50.32L172.022 49.0259C172.125 48.9567 172.246 48.9199 172.37 48.9202H177.969C178.02 48.913 178.066 48.8886 178.1 48.8511C178.134 48.8136 178.154 48.7655 178.156 48.7149V48.0927C178.154 48.0443 178.134 47.9984 178.099 47.9647C178.064 47.9311 178.018 47.9123 177.969 47.9123H170.597C170.548 47.916 170.501 47.9014 170.463 47.8715C170.425 47.8415 170.399 47.7983 170.391 47.7505V45.013C170.399 44.9635 170.423 44.9182 170.461 44.8852C170.499 44.8521 170.547 44.8335 170.597 44.8326H183.979C184.028 44.8352 184.073 44.8547 184.109 44.8877C184.144 44.9207 184.167 44.965 184.172 45.013L184.16 51.1351Z" fill="#1A1623"/>
<path d="M200 51.1351C200 51.1588 199.995 51.1823 199.986 51.204C199.976 51.2257 199.962 51.2451 199.945 51.261C199.927 51.2768 199.906 51.2888 199.883 51.2961C199.861 51.3033 199.837 51.3057 199.813 51.3031H193.113C193.066 51.3056 193.022 51.3245 192.988 51.3563C192.954 51.3881 192.932 51.431 192.926 51.4773V52.2052C192.926 52.2292 192.931 52.2529 192.94 52.2749C192.95 52.2969 192.964 52.3166 192.981 52.333C192.999 52.3493 193.02 52.3619 193.042 52.3699C193.065 52.3779 193.089 52.3811 193.113 52.3794H199.813C199.859 52.379 199.903 52.3952 199.937 52.425C199.972 52.4548 199.994 52.4961 200 52.5412V56.747C199.999 56.7702 199.994 56.793 199.984 56.8139C199.974 56.8349 199.96 56.8535 199.942 56.8687C199.925 56.8839 199.904 56.8953 199.882 56.9022C199.86 56.9091 199.837 56.9113 199.813 56.9087H186.431C186.306 56.9087 186.194 56.8403 186.194 56.747V50.6187C186.21 50.5027 186.268 50.3965 186.356 50.32L187.856 49.0259C187.959 48.9567 188.08 48.9199 188.204 48.9202H193.803C193.853 48.9119 193.898 48.8872 193.932 48.8499C193.966 48.8127 193.987 48.7651 193.99 48.7149V48.0927C193.987 48.0448 193.966 47.9998 193.932 47.9664C193.897 47.933 193.851 47.9137 193.803 47.9123H186.431C186.382 47.916 186.335 47.9014 186.297 47.8715C186.258 47.8415 186.233 47.7983 186.225 47.7505V45.013C186.233 44.9635 186.257 44.9182 186.295 44.8852C186.333 44.8521 186.381 44.8335 186.431 44.8326H199.813C199.861 44.8354 199.906 44.8551 199.94 44.8882C199.974 44.9213 199.996 44.9656 200 45.013V51.1351Z" fill="#1A1623"/>
<path d="M107.012 36.9377C107.086 36.9448 107.156 36.9781 107.208 37.0316C107.26 37.0851 107.292 37.1554 107.298 37.2301V54.072C107.303 54.1543 107.291 54.2369 107.262 54.3142C107.233 54.3914 107.188 54.4616 107.13 54.52L104.859 56.7286C104.699 56.8408 104.506 56.8956 104.311 56.8842H86.7789C86.7406 56.8885 86.7018 56.8849 86.665 56.8735C86.6282 56.8622 86.5942 56.8433 86.565 56.8182C86.5358 56.7931 86.5121 56.7623 86.4954 56.7276C86.4786 56.6929 86.4692 56.6551 86.4678 56.6166V43.4206C86.4765 43.3429 86.5126 43.2708 86.5696 43.2173C86.6266 43.1637 86.7007 43.1321 86.7789 43.1282H93.044C93.1225 43.1309 93.1974 43.162 93.2546 43.2158C93.3119 43.2696 93.3476 43.3424 93.3551 43.4206V47.7011C93.355 47.7378 93.3625 47.7742 93.3771 47.808C93.3917 47.8417 93.4131 47.8721 93.4399 47.8972C93.4668 47.9223 93.4985 47.9416 93.5332 47.9539C93.5678 47.9662 93.6046 47.9712 93.6413 47.9686H96.7521C96.8703 47.9686 97.0632 47.8566 97.0632 47.7011V37.2301C97.0687 37.1554 97.1005 37.0851 97.1529 37.0316C97.2052 36.9781 97.2748 36.9448 97.3494 36.9377H107.012Z" fill="#1A1623"/>
<path d="M128.166 36.9375C128.256 36.9355 128.346 36.9547 128.428 36.9936C128.51 37.0325 128.582 37.0899 128.638 37.1614L130.984 39.3017C131.102 39.4472 131.162 39.6311 131.152 39.8181V53.8665C131.155 53.905 131.149 53.9437 131.136 53.98C131.122 54.0163 131.101 54.0493 131.074 54.0769C131.047 54.1045 131.015 54.1261 130.979 54.1403C130.943 54.1544 130.904 54.1607 130.866 54.1589H120.967C120.891 54.1583 120.817 54.1859 120.759 54.2364C120.702 54.2869 120.665 54.3568 120.656 54.4326V56.6413C120.649 56.7129 120.616 56.7794 120.563 56.8286C120.51 56.8777 120.442 56.9062 120.37 56.9088H110.689C110.651 56.9141 110.611 56.9112 110.574 56.9002C110.537 56.8892 110.503 56.8705 110.473 56.8452C110.444 56.8199 110.42 56.7886 110.404 56.7535C110.387 56.7183 110.378 56.6801 110.378 56.6413V37.2299C110.385 37.1517 110.421 37.0789 110.478 37.0251C110.536 36.9713 110.61 36.9401 110.689 36.9375H128.166ZM120.656 45.2682C120.654 45.3088 120.661 45.3493 120.676 45.387C120.691 45.4247 120.714 45.4586 120.744 45.4864C120.773 45.5142 120.809 45.5353 120.847 45.5481C120.886 45.5609 120.927 45.5652 120.967 45.5606H124.003C124.044 45.5652 124.085 45.5609 124.123 45.5481C124.162 45.5353 124.197 45.5142 124.226 45.4864C124.256 45.4586 124.279 45.4247 124.294 45.387C124.31 45.3493 124.316 45.3088 124.314 45.2682V42.6302C124.316 42.5897 124.31 42.5491 124.294 42.5114C124.279 42.4738 124.256 42.4398 124.226 42.412C124.197 42.3842 124.162 42.3631 124.123 42.3503C124.085 42.3375 124.044 42.3332 124.003 42.3378H120.967C120.927 42.3332 120.886 42.3375 120.847 42.3503C120.809 42.3631 120.773 42.3842 120.744 42.412C120.714 42.4398 120.691 42.4738 120.676 42.5114C120.661 42.5491 120.654 42.5897 120.656 42.6302V45.2682Z" fill="#1A1623"/>
<path d="M106.234 39.8308V45.48H100.236L106.234 39.8308Z" fill="#F3D34F"/>
<path d="M117.98 47.359H111.977V53.0145L117.98 47.359Z" fill="#F3D34F"/>
<path d="M117.981 38.6114H111.983V46.6995H117.981V38.6114Z" fill="#E84118"/>
<path d="M106.284 46.1394V53.792L104.393 55.646H100.28V46.1394H106.284Z" fill="#E84118"/>
<path d="M44.8828 50.2454L60.3871 31.7112L35.1709 23.1689L44.8828 50.2454Z" fill="#E84118"/>
<path d="M44.4536 51.0172L60.3996 32.2777V31.7364L44.4536 50.4759V51.0172Z" fill="#1A1623"/>
<path d="M71.8408 20.2635L62.3901 31.3504L77.8322 36.1908L71.8408 20.2635Z" fill="#E84118"/>
<path d="M62.4961 31.2509V31.7922L77.8324 36.7322V36.1909L62.4961 31.2509Z" fill="#1A1623"/>
<path d="M33.1053 22.3604L18.64 17.0098L1.03906 35.3387L16.5993 41.0004L33.1053 22.3604Z" fill="#1A1623"/>
<path d="M16.5991 41.5417L33.1051 22.9017V22.3604L16.5991 41.0004V41.5417Z" fill="#F3D34F"/>
<path d="M16.5993 41.0004L1.03906 35.3387V35.88L16.5993 41.5416V41.0004Z" fill="#F3D34F"/>
<path d="M71.0135 19.4921L44.5841 10.3525L35.0215 21.8563L61.2269 30.8901L71.0135 19.4921Z" fill="#1A1623"/>
<path d="M61.2397 31.4314L71.0263 20.0334V19.4921L61.2397 30.8901V31.4314Z" fill="#F3D34F"/>
<path d="M61.2269 30.8902L35.0215 21.8564V22.3977L61.2269 31.4314V30.8902Z" fill="#F3D34F"/>
<path d="M43.514 52.081L17.0846 42.9414L7.52197 54.4452L33.7274 63.479L43.514 52.081Z" fill="#1A1623"/>
<path d="M33.7397 64.0203L43.5263 52.6223V52.081L33.7397 63.479V64.0203Z" fill="#E84118"/>
<path d="M33.7269 63.4788L7.73926 54.5508V55.0921L33.7269 64.0201V63.4788Z" fill="#F3D34F"/>
<path d="M18.0425 41.7905L43.2587 50.4324L34.2125 23.2563L18.0425 41.7905Z" fill="#F3D34F"/>
<path d="M18.0425 42.3317L43.2587 50.9735V50.4322L18.0425 41.7904V42.3317Z" fill="#E84118"/>
<path d="M5.81099 53.9412L15.7656 42.2632L0 36.726L5.81099 53.9412Z" fill="#F3D34F"/>
<path d="M5.82348 54.3892L15.7718 42.7112L15.7656 42.2632L5.81104 53.9412L5.82348 54.3892Z" fill="#E84118"/>
<path d="M0.019043 36.7322V37.1801L5.82381 54.3891L5.81137 53.9412L0.019043 36.7322Z" fill="#E84118"/>
<path d="M77.0735 37.255L61.7372 32.315L45.561 51.4776L60.5738 56.7224L77.0735 37.255Z" fill="#1A1623"/>
<path d="M60.5737 56.7225V57.1642L77.0734 37.6968V37.2551L60.5737 56.7225Z" fill="#F3D34F"/>
<path d="M45.561 51.4778V51.9133L60.5738 57.1643V56.7226L45.561 51.4778Z" fill="#F3D34F"/>
<path d="M33.5405 11.1055H33.1548L43.8062 0.56604H44.1857L33.5405 11.1055Z" fill="#1A1623"/>
<path d="M44.1857 0.56604V9.76781L33.889 21.564L32.7939 14.3531L33.5405 11.1055L44.1857 0.56604Z" fill="#E84118"/>
<path d="M33.8889 21.5639H33.5032L32.4082 14.3531H32.7939L33.8889 21.5639Z" fill="#1A1623"/>
<path d="M32.7939 14.3532H32.4082L33.1548 11.1055H33.5405L32.7939 14.3532Z" fill="#1A1623"/>
<path d="M41.9776 44.9448L44.5036 45.5794L45.4866 52.7405L35.4574 64.4309L34.1011 54.2959L41.9776 44.9448Z" fill="#F3D34F"/>
<path d="M35.4569 64.4312L35.0463 64.3441L33.6899 54.3024L34.1006 54.2962L35.4569 64.4312Z" fill="#E84118"/>
<path d="M34.1006 54.2959L33.6899 54.3021L41.5665 44.951L41.9771 44.9448L34.1006 54.2959Z" fill="#E84118"/>
<path d="M44.7957 49.157C44.7621 49.1866 44.7346 49.2225 44.7148 49.2627C44.7148 49.2627 43.4705 51.6892 41.5667 52.6535C41.5228 52.6732 41.4836 52.7018 41.4515 52.7377C41.4194 52.7735 41.3953 52.8157 41.3806 52.8614C41.3659 52.9072 41.3611 52.9556 41.3663 53.0034C41.3716 53.0512 41.3869 53.0973 41.4112 53.1388C41.4497 53.1969 41.5026 53.244 41.5648 53.2757C41.6269 53.3073 41.6961 53.3223 41.7658 53.3192C41.8307 53.3204 41.8948 53.3054 41.9524 53.2757C43.1853 52.5675 44.2174 51.5568 44.9513 50.3391L44.7957 49.157Z" fill="#1A1623"/>
<path d="M39.4202 54.9616H38.6549C38.6152 54.9641 38.5754 54.9587 38.5378 54.9456C38.5002 54.9325 38.4656 54.912 38.436 54.8853C38.4064 54.8587 38.3825 54.8263 38.3656 54.7903C38.3487 54.7542 38.3392 54.7152 38.3376 54.6754L38.3003 53.3004C38.3003 53.2196 38.3324 53.142 38.3896 53.0849C38.4468 53.0277 38.5243 52.9956 38.6052 52.9956H39.3642C39.4453 52.9937 39.524 53.023 39.5841 53.0774C39.6443 53.1318 39.6814 53.2071 39.6877 53.288L39.725 54.6941C39.7159 54.7683 39.6798 54.8366 39.6236 54.8859C39.5673 54.9352 39.495 54.9622 39.4202 54.9616V54.9616Z" fill="#1A1623"/>
<path d="M37.4665 14.8012C37.3634 14.7511 37.2452 14.7419 37.1356 14.7753C37.026 14.8088 36.933 14.8825 36.8755 14.9816C36.0796 16.3052 34.9486 17.3954 33.5967 18.1422L33.7273 19.0007C34.7975 18.3412 36.9004 16.8232 37.6843 15.3549C37.718 15.2963 37.7352 15.2296 37.7341 15.162C37.7286 15.0826 37.7005 15.0064 37.6531 14.9425C37.6056 14.8785 37.5409 14.8295 37.4665 14.8012V14.8012Z" fill="#1A1623"/>
<path d="M38.3061 13.2891L39.1398 13.1647C39.1836 13.1602 39.226 13.1468 39.2644 13.1253C39.3029 13.1038 39.3365 13.0747 39.3633 13.0397C39.3901 13.0048 39.4095 12.9647 39.4203 12.922C39.431 12.8793 39.433 12.8349 39.426 12.7914L39.1522 11.18C39.1355 11.0922 39.0852 11.0145 39.012 10.9633C38.9387 10.9122 38.8484 10.8917 38.7603 10.9063L37.9514 11.0369C37.9076 11.0414 37.8652 11.0548 37.8268 11.0763C37.7883 11.0978 37.7547 11.1269 37.7279 11.1619C37.7011 11.1968 37.6817 11.2369 37.671 11.2796C37.6602 11.3223 37.6582 11.3667 37.6653 11.4102L37.9079 13.0092C37.9154 13.0538 37.9317 13.0965 37.9558 13.1348C37.98 13.1731 38.0115 13.2063 38.0485 13.2323C38.0856 13.2583 38.1274 13.2768 38.1716 13.2865C38.2158 13.2963 38.2615 13.2972 38.3061 13.2891V13.2891Z" fill="#1A1623"/>
</svg>
