<svg width="392" height="198" viewBox="0 0 392 198" fill="none" xmlns="http://www.w3.org/2000/svg">
<path d="M284.005 154.46L331.693 97.5714L254.156 71.3635L284.005 154.46Z" fill="#585562"/>
<path d="M282.692 156.836L331.728 99.3185V97.6587L282.692 155.176V156.836Z" fill="#585562"/>
<path d="M366.916 62.4529L337.837 96.4882L385.333 111.322L366.916 62.4529Z" fill="#585562"/>
<path d="M338.17 96.1736V97.8159L385.333 112.982V111.322L338.17 96.1736Z" fill="#585562"/>
<path d="M247.801 68.8826L203.317 52.459L149.204 108.719L197.049 126.103L247.801 68.8826Z" fill="#585562"/>
<path d="M197.049 127.745L247.801 70.5424V68.8826L197.049 126.103V127.745Z" fill="#585562"/>
<path d="M197.049 126.103L149.204 108.719V110.378L197.049 127.745V126.103Z" fill="#585562"/>
<path d="M364.36 60.0767L283.094 32.0518L253.683 67.345L334.284 95.0555L364.36 60.0767Z" fill="#585562"/>
<path d="M334.319 96.7153L364.395 61.7365V60.0767L334.319 95.0554V96.7153Z" fill="#585562"/>
<path d="M334.284 95.0554L253.683 67.345V69.0048L334.284 96.7153V95.0554Z" fill="#585562"/>
<path d="M279.786 160.086L198.538 132.061L169.126 167.354L249.709 195.065L279.786 160.086Z" fill="#585562"/>
<path d="M249.762 196.725L279.838 161.746V160.086L249.762 195.065V196.725Z" fill="#585562"/>
<path d="M249.709 195.065L169.792 167.669V169.329L249.709 196.725V195.065Z" fill="#585562"/>
<path d="M201.479 128.514L279.015 155.036L251.197 71.6255L201.479 128.514Z" fill="#585562"/>
<path d="M201.479 130.174L279.015 156.696V155.037L201.479 128.514V130.174Z" fill="#585562"/>
<path d="M163.874 165.799L194.476 129.964L146 112.964L163.874 165.799Z" fill="#585562"/>
<path d="M163.909 167.18L194.493 131.327L194.476 129.964L163.874 165.799L163.909 167.18Z" fill="#585562"/>
<path d="M146.053 112.999V114.362L163.909 167.179L163.874 165.799L146.053 112.999Z" fill="#585562"/>
<path d="M383.005 114.607L335.842 99.4409L286.105 158.234L332.253 174.343L383.005 114.607Z" fill="#585562"/>
<path d="M332.253 174.343V175.688L383.005 115.934V114.606L332.253 174.343Z" fill="#585562"/>
<path d="M286.105 158.234V159.579L332.253 175.688V174.343L286.105 158.234Z" fill="#585562"/>
<path d="M249.131 34.3405H247.958L280.696 2H281.886L249.131 34.3405Z" fill="#585562"/>
<path d="M281.886 2V30.2346L250.199 66.4364L246.838 44.317L249.131 34.3405L281.886 2Z" fill="#585562"/>
<path d="M250.199 66.4364H249.026L245.665 44.3169H246.838L250.199 66.4364Z" fill="#585562"/>
<path d="M246.838 44.317H245.665L247.958 34.3406H249.131L246.838 44.317Z" fill="#585562"/>
<path d="M275.076 138.176L282.849 140.151L285.86 162.113L255.031 198L250.847 166.883L275.076 138.176Z" fill="#585562"/>
<path d="M255.031 198L253.771 197.738L249.604 166.918L250.847 166.883L255.031 198Z" fill="#1A1623"/>
<path d="M250.847 166.883L249.604 166.918L273.816 138.211L275.076 138.176L250.847 166.883Z" fill="#1A1623"/>
<path d="M283.707 151.123C283.601 151.211 283.512 151.317 283.445 151.437C283.445 151.437 279.681 158.898 273.781 161.92C273.645 161.979 273.523 162.066 273.424 162.175C273.324 162.285 273.25 162.414 273.205 162.555C273.16 162.696 273.146 162.845 273.164 162.992C273.182 163.138 273.231 163.28 273.308 163.406C273.423 163.587 273.584 163.734 273.775 163.832C273.966 163.93 274.179 163.976 274.394 163.965C274.589 163.962 274.78 163.914 274.954 163.825C278.795 161.672 282.014 158.566 284.302 154.809L283.707 151.123Z" fill="#1A1623"/>
<path d="M267.216 168.944H264.87C264.62 168.954 264.376 168.866 264.19 168.7C264.004 168.534 263.89 168.302 263.872 168.053L263.767 163.842C263.764 163.719 263.787 163.596 263.834 163.481C263.881 163.366 263.951 163.262 264.039 163.176C264.128 163.089 264.233 163.021 264.349 162.977C264.465 162.932 264.588 162.911 264.712 162.916H267.058C267.303 162.907 267.542 162.992 267.725 163.155C267.908 163.318 268.02 163.546 268.038 163.79L268.143 167.983C268.148 168.108 268.128 168.232 268.083 168.348C268.039 168.465 267.971 168.571 267.884 168.661C267.798 168.75 267.694 168.822 267.579 168.87C267.464 168.919 267.34 168.944 267.216 168.944Z" fill="#1A1623"/>
<path d="M261.211 45.6799C260.901 45.5429 260.552 45.5241 260.229 45.6272C259.906 45.7303 259.633 45.948 259.46 46.239C256.986 50.3095 253.477 53.6548 249.289 55.9359L249.692 58.5742C252.965 56.5649 259.443 51.8999 261.946 47.3921C262.05 47.212 262.099 47.0055 262.086 46.7981C262.068 46.5461 261.975 46.3054 261.819 46.1063C261.663 45.9072 261.452 45.7588 261.211 45.6799Z" fill="#1A1623"/>
<path d="M263.784 41.0498L266.358 40.6655C266.493 40.6507 266.623 40.6086 266.741 40.5418C266.859 40.475 266.962 40.3848 267.044 40.2769C267.126 40.169 267.185 40.0455 267.218 39.914C267.25 39.7826 267.255 39.6459 267.233 39.5123L266.393 34.5678C266.338 34.3011 266.181 34.0664 265.956 33.9131C265.73 33.7599 265.454 33.7001 265.185 33.7466L262.612 34.131C262.478 34.1461 262.348 34.1876 262.231 34.2531C262.113 34.3185 262.01 34.4067 261.927 34.5123C261.844 34.618 261.783 34.7391 261.747 34.8686C261.711 34.9981 261.702 35.1334 261.719 35.2666L262.559 40.2112C262.614 40.4824 262.773 40.7216 263.002 40.8781C263.23 41.0346 263.511 41.0962 263.784 41.0498Z" fill="#1A1623"/>
<path d="M115.565 130.68L155.499 81.9182L90.5693 59.4543L115.565 130.68Z" fill="#F3D34F"/>
<path d="M114.465 132.717L155.528 83.4159V81.9932L114.465 131.294V132.717Z" fill="#F3D34F"/>
<path d="M184.995 51.8167L160.645 80.9898L200.417 93.7043L184.995 51.8167Z" fill="#F3D34F"/>
<path d="M160.923 80.7202V82.128L200.417 95.1271V93.7043L160.923 80.7202Z" fill="#F3D34F"/>
<path d="M85.2478 57.3279L47.9967 43.2505L2.68262 91.473L42.7484 106.374L85.2478 57.3279Z" fill="#F3D34F"/>
<path d="M42.7485 107.782L85.2479 58.7506V57.3279L42.7485 106.374V107.782Z" fill="#F3D34F"/>
<path d="M42.7484 106.374L2.68262 91.4729V92.8956L42.7484 107.782V106.374Z" fill="#F3D34F"/>
<path d="M182.854 49.7799L114.803 25.7585L90.1738 56.0099L157.669 79.7617L182.854 49.7799Z" fill="#F3D34F"/>
<path d="M157.698 81.1845L182.884 51.2027V49.78L157.698 79.7618V81.1845Z" fill="#F3D34F"/>
<path d="M157.669 79.7618L90.1738 56.01V57.4327L157.669 81.1845V79.7618Z" fill="#F3D34F"/>
<path d="M112.032 135.502L43.9945 111.481L19.3657 141.732L86.8458 165.484L112.032 135.502Z" fill="#F3D34F"/>
<path d="M86.8901 166.907L112.076 136.925V135.502L86.8901 165.484V166.907Z" fill="#F3D34F"/>
<path d="M86.8458 165.484L19.9229 142.002V143.424L86.8458 166.907V165.484Z" fill="#F3D34F"/>
<path d="M46.4575 108.441L111.387 131.174L88.092 59.6792L46.4575 108.441Z" fill="#F3D34F"/>
<path d="M46.4575 109.863L111.387 132.597V131.174L46.4575 108.441V109.863Z" fill="#F3D34F"/>
<path d="M14.9679 140.399L40.5936 109.684L0 95.1121L14.9679 140.399Z" fill="#F3D34F"/>
<path d="M14.9971 141.582L40.6081 110.852L40.5935 109.684L14.9678 140.399L14.9971 141.582Z" fill="#F3D34F"/>
<path d="M0.0439453 95.1421V96.3102L14.9972 141.582L14.9678 140.399L0.0439453 95.1421Z" fill="#F3D34F"/>
<path d="M198.467 96.5199L158.973 83.5208L117.324 133.915L155.968 147.723L198.467 96.5199Z" fill="#F3D34F"/>
<path d="M155.968 147.722V148.876L198.467 97.6579V96.5198L155.968 147.722Z" fill="#F3D34F"/>
<path d="M117.324 133.915V135.068L155.968 148.876V147.723L117.324 133.915Z" fill="#F3D34F"/>
<path d="M86.3621 27.7205H85.3799L112.794 0H113.791L86.3621 27.7205Z" fill="#F3D34F"/>
<path d="M113.791 0V24.2011L87.2566 55.2312L84.4419 36.2717L86.3624 27.7204L113.791 0Z" fill="#F3D34F"/>
<path d="M87.2564 55.2313H86.2742L83.4595 36.2717H84.4417L87.2564 55.2313Z" fill="#F3D34F"/>
<path d="M84.4417 36.2717H83.4595L85.3799 27.7205H86.3622L84.4417 36.2717Z" fill="#F3D34F"/>
<path d="M108.088 116.722L114.597 118.415L117.119 137.239L91.3026 168L87.7988 141.328L108.088 116.722Z" fill="#F3D34F"/>
<path d="M91.3024 168L90.2469 167.775L86.7578 141.358L87.7987 141.328L91.3024 168Z" fill="#1A1623"/>
<path d="M87.7987 141.328L86.7578 141.358L107.033 116.752L108.088 116.722L87.7987 141.328Z" fill="#1A1623"/>
<path d="M115.316 127.82C115.227 127.895 115.153 127.986 115.096 128.089C115.096 128.089 111.944 134.484 107.004 137.075C106.89 137.125 106.788 137.199 106.704 137.293C106.621 137.387 106.559 137.498 106.521 137.619C106.484 137.74 106.472 137.867 106.487 137.993C106.502 138.119 106.543 138.24 106.608 138.348C106.704 138.503 106.839 138.629 106.999 138.713C107.158 138.798 107.337 138.837 107.517 138.827C107.68 138.825 107.841 138.784 107.986 138.707C111.202 136.861 113.898 134.2 115.814 130.98L115.316 127.82Z" fill="#1A1623"/>
<path d="M101.506 143.095H99.5414C99.3323 143.103 99.1283 143.028 98.9724 142.886C98.8164 142.743 98.7209 142.544 98.7058 142.331L98.6178 138.722C98.6158 138.616 98.6349 138.511 98.6742 138.412C98.7134 138.314 98.7719 138.225 98.846 138.151C98.9202 138.076 99.0084 138.018 99.1053 137.98C99.2022 137.942 99.3057 137.924 99.4095 137.928H101.374C101.579 137.92 101.779 137.993 101.933 138.133C102.086 138.273 102.18 138.468 102.195 138.677L102.283 142.271C102.287 142.378 102.27 142.485 102.232 142.584C102.195 142.684 102.138 142.775 102.066 142.852C101.993 142.929 101.906 142.99 101.81 143.032C101.714 143.074 101.61 143.095 101.506 143.095Z" fill="#1A1623"/>
<path d="M96.4776 37.4398C96.2182 37.3224 95.9256 37.3063 95.6554 37.3947C95.3852 37.483 95.1561 37.6696 95.0116 37.9191C92.9391 41.408 90.0008 44.2754 86.4941 46.2307L86.8313 48.4921C89.5727 46.7698 94.997 42.7713 97.0933 38.9075C97.1802 38.7531 97.2209 38.5761 97.2106 38.3983C97.1951 38.1823 97.1171 37.976 96.9866 37.8053C96.8561 37.6347 96.679 37.5075 96.4776 37.4398Z" fill="#1A1623"/>
<path d="M98.6328 33.4711L100.788 33.1416C100.901 33.129 101.01 33.0929 101.109 33.0356C101.208 32.9784 101.294 32.9011 101.363 32.8086C101.431 32.7161 101.481 32.6103 101.508 32.4976C101.535 32.3849 101.539 32.2677 101.521 32.1532L100.817 27.915C100.771 27.6865 100.64 27.4853 100.451 27.3539C100.262 27.2226 100.031 27.1714 99.8056 27.2112L97.6505 27.5406C97.5386 27.5536 97.4302 27.5892 97.3318 27.6453C97.2334 27.7014 97.1469 27.777 97.0773 27.8676C97.0078 27.9581 96.9565 28.0619 96.9266 28.1729C96.8966 28.2839 96.8886 28.3999 96.9029 28.5141L97.6066 32.7523C97.6528 32.9848 97.7857 33.1898 97.9772 33.3239C98.1687 33.4581 98.4038 33.5109 98.6328 33.4711Z" fill="#1A1623"/>
</svg>
