<svg width="1008" height="559" viewBox="0 0 1008 559" fill="none" xmlns="http://www.w3.org/2000/svg">
<g clip-path="url(#clip0_64_1693)">
<path d="M730.11 436.5L852.819 276.447L653.304 202.713L730.11 436.5Z" fill="#FFE98C"/>
<path d="M726.731 443.185L852.909 281.363V276.693L726.731 438.515V443.185Z" fill="#FFE98C"/>
<path d="M943.455 177.643L868.631 273.399L990.845 315.133L943.455 177.643Z" fill="#FFE98C"/>
<path d="M869.487 272.515V277.135L990.845 319.803V315.133L869.487 272.515Z" fill="#FFE98C"/>
<path d="M636.951 195.732L522.486 149.525L383.244 307.809L506.359 356.719L636.951 195.732Z" fill="#FFE98C"/>
<path d="M506.358 361.34L636.951 200.402V195.732L506.358 356.719V361.34Z" fill="#FFE98C"/>
<path d="M506.359 356.719L383.244 307.809V312.479L506.359 361.34V356.719Z" fill="#FFE98C"/>
<path d="M936.878 170.958L727.767 92.1108L652.087 191.407L859.486 269.369L936.878 170.958Z" fill="#FFE98C"/>
<path d="M859.576 274.038L936.968 175.627V170.958L859.576 269.369V274.038Z" fill="#FFE98C"/>
<path d="M859.486 269.369L652.087 191.407V196.076L859.486 274.038V269.369Z" fill="#FFE98C"/>
<path d="M719.253 452.328L510.188 373.482L434.508 472.777L641.862 550.739L719.253 452.328Z" fill="#FFE98C"/>
<path d="M641.997 555.409L719.388 456.998V452.328L641.997 550.739V555.409Z" fill="#FFE98C"/>
<path d="M641.862 550.739L436.22 473.662V478.332L641.862 555.409V550.739Z" fill="#FFE98C"/>
<path d="M517.755 363.503L717.271 438.122L645.69 203.45L517.755 363.503Z" fill="#FFE98C"/>
<path d="M517.755 368.173L717.271 442.792V438.122L517.755 363.503V368.173Z" fill="#FFE98C"/>
<path d="M420.994 468.403L499.737 367.583L375 319.754L420.994 468.403Z" fill="#FFE98C"/>
<path d="M421.084 472.286L499.782 371.417L499.737 367.583L420.994 468.403L421.084 472.286Z" fill="#FFE98C"/>
<path d="M375.135 319.852V323.686L421.084 472.286L420.994 468.403L375.135 319.852Z" fill="#FFE98C"/>
<path d="M984.853 324.375L863.495 281.707L735.515 447.118L854.26 492.44L984.853 324.375Z" fill="#FFE98C"/>
<path d="M854.261 492.44V496.225L984.854 328.11V324.375L854.261 492.44Z" fill="#FFE98C"/>
<path d="M735.515 447.118V450.903L854.26 496.225V492.44L735.515 447.118Z" fill="#FFE98C"/>
<path d="M640.375 98.5503H637.357L721.596 7.56192H724.659L640.375 98.5503Z" fill="#FFE98C"/>
<path d="M724.659 7.56192V86.9986L643.123 188.85L634.474 126.619L640.375 98.5503L724.659 7.56192Z" fill="#FFE98C"/>
<path d="M643.123 188.851H640.105L631.456 126.619H634.474L643.123 188.851Z" fill="#FFE98C"/>
<path d="M634.474 126.619H631.456L637.357 98.5503H640.375L634.474 126.619Z" fill="#FFE98C"/>
<path d="M707.135 390.686L727.136 396.241L734.885 458.031L655.556 558.998L644.79 471.45L707.135 390.686Z" fill="#FFE98C"/>
<path d="M655.556 558.998L652.313 558.26L641.591 471.549L644.79 471.45L655.556 558.998Z" fill="#FCFCFD"/>
<path d="M644.79 471.45L641.591 471.549L703.892 390.785L707.135 390.686L644.79 471.45Z" fill="#FCFCFD"/>
<path d="M729.344 427.111C729.071 427.359 728.842 427.659 728.668 427.996C728.668 427.996 718.983 448.986 703.802 457.49C703.452 457.654 703.138 457.899 702.882 458.207C702.626 458.515 702.434 458.88 702.319 459.276C702.204 459.672 702.168 460.091 702.214 460.504C702.26 460.916 702.386 461.314 702.585 461.668C702.881 462.178 703.295 462.592 703.786 462.868C704.277 463.145 704.827 463.273 705.378 463.241C705.88 463.234 706.374 463.099 706.82 462.848C716.703 456.789 724.988 448.054 730.875 437.483L729.344 427.111Z" fill="#FCFCFD"/>
<path d="M686.909 477.251H680.873C680.23 477.278 679.603 477.032 679.124 476.564C678.645 476.096 678.351 475.443 678.305 474.744L678.035 462.897C678.028 462.549 678.087 462.203 678.208 461.88C678.328 461.558 678.508 461.266 678.736 461.022C678.964 460.778 679.235 460.587 679.532 460.462C679.83 460.336 680.148 460.278 680.467 460.292H686.504C687.134 460.264 687.75 460.506 688.22 460.964C688.691 461.423 688.98 462.063 689.026 462.75L689.297 474.547C689.309 474.897 689.256 475.247 689.141 475.574C689.027 475.902 688.853 476.201 688.63 476.453C688.407 476.706 688.14 476.906 687.844 477.043C687.548 477.18 687.23 477.251 686.909 477.251V477.251Z" fill="#FCFCFD"/>
<path d="M671.458 130.453C670.661 130.067 669.761 130.015 668.931 130.305C668.101 130.594 667.397 131.207 666.953 132.026C660.585 143.478 651.555 152.89 640.78 159.308L641.816 166.73C650.24 161.077 666.908 147.952 673.35 135.27C673.616 134.763 673.742 134.182 673.71 133.599C673.662 132.89 673.423 132.213 673.022 131.652C672.621 131.092 672.076 130.675 671.458 130.453V130.453Z" fill="#FCFCFD"/>
<path d="M678.08 117.426L684.702 116.345C685.049 116.303 685.385 116.185 685.688 115.997C685.992 115.809 686.257 115.555 686.468 115.252C686.679 114.948 686.831 114.601 686.914 114.231C686.998 113.861 687.011 113.476 686.954 113.101L684.792 99.1893C684.65 98.4392 684.247 97.7787 683.666 97.3475C683.086 96.9163 682.375 96.7483 681.684 96.879L675.062 97.9604C674.718 98.003 674.385 98.1197 674.082 98.3039C673.78 98.4882 673.514 98.7361 673.3 99.0334C673.087 99.3307 672.929 99.6715 672.837 100.036C672.745 100.4 672.72 100.781 672.764 101.156L674.927 115.067C675.069 115.83 675.477 116.503 676.066 116.943C676.654 117.384 677.376 117.557 678.08 117.426V117.426Z" fill="#FCFCFD"/>
</g>
<g clip-path="url(#clip1_64_1693)">
<path d="M297.327 369.51L400.07 232.004L233.019 168.656L297.327 369.51Z" fill="#EFEFF1"/>
<path d="M294.498 375.253L400.145 236.227V232.215L294.498 371.241V375.253Z" fill="#EFEFF1"/>
<path d="M475.957 147.118L413.309 229.385L515.636 265.24L475.957 147.118Z" fill="#EFEFF1"/>
<path d="M414.025 228.625V232.595L515.636 269.252V265.24L414.025 228.625Z" fill="#EFEFF1"/>
<path d="M219.327 162.66L123.487 122.962L6.90234 258.947L109.984 300.968L219.327 162.66Z" fill="#EFEFF1"/>
<path d="M109.984 304.938L219.327 166.672V162.66L109.984 300.968V304.938Z" fill="#EFEFF1"/>
<path d="M109.984 300.968L6.90234 258.947V262.959L109.984 304.938V300.968Z" fill="#EFEFF1"/>
<path d="M470.451 141.375L295.366 73.6355L232 158.943L405.652 225.922L470.451 141.375Z" fill="#EFEFF1"/>
<path d="M405.727 229.934L470.526 145.387V141.375L405.727 225.922V229.934Z" fill="#EFEFF1"/>
<path d="M405.652 225.922L232 158.943V162.955L405.652 229.934V225.922Z" fill="#EFEFF1"/>
<path d="M288.237 383.108L113.19 315.369L49.825 400.676L223.439 467.656L288.237 383.108Z" fill="#EFEFF1"/>
<path d="M223.552 471.668L288.35 387.12V383.108L223.552 467.656V471.668Z" fill="#EFEFF1"/>
<path d="M223.439 467.656L51.2581 401.437V405.449L223.439 471.668V467.656Z" fill="#EFEFF1"/>
<path d="M119.527 306.796L286.578 370.903L226.645 169.29L119.527 306.796Z" fill="#EFEFF1"/>
<path d="M119.527 310.808L286.578 374.915V370.903L119.527 306.796V310.808Z" fill="#EFEFF1"/>
<path d="M38.5096 396.918L104.44 310.301L0 269.21L38.5096 396.918Z" fill="#EFEFF1"/>
<path d="M38.585 400.254L104.477 313.595L104.44 310.301L38.5095 396.918L38.585 400.254Z" fill="#EFEFF1"/>
<path d="M0.113037 269.294V272.588L38.5849 400.254L38.5095 396.918L0.113037 269.294Z" fill="#EFEFF1"/>
<path d="M510.62 273.179L409.009 236.522L301.853 378.632L401.276 417.569L510.62 273.179Z" fill="#EFEFF1"/>
<path d="M401.276 417.569V420.821L510.62 276.389V273.179L401.276 417.569Z" fill="#EFEFF1"/>
<path d="M301.853 378.632V381.883L401.276 420.821V417.569L301.853 378.632Z" fill="#EFEFF1"/>
<path d="M222.194 79.1678H219.667L290.198 0.997223H292.763L222.194 79.1678Z" fill="#EFEFF1"/>
<path d="M292.763 0.997223V69.2434L224.495 156.747L217.253 103.282L222.194 79.1678L292.763 0.997223Z" fill="#EFEFF1"/>
<path d="M224.495 156.747H221.968L214.726 103.282H217.253L224.495 156.747Z" fill="#EFEFF1"/>
<path d="M217.253 103.282H214.726L219.667 79.1678H222.194L217.253 103.282Z" fill="#EFEFF1"/>
<path d="M278.091 330.15L294.838 334.922L301.325 388.007L234.905 474.751L225.89 399.536L278.091 330.15Z" fill="#EFEFF1"/>
<path d="M234.905 474.751L232.189 474.117L223.212 399.621L225.89 399.536L234.905 474.751Z" fill="#FCFCFD"/>
<path d="M225.89 399.536L223.212 399.621L275.376 330.234L278.091 330.15L225.89 399.536Z" fill="#FCFCFD"/>
<path d="M296.686 361.443C296.458 361.656 296.266 361.914 296.12 362.204C296.12 362.204 288.011 380.236 275.3 387.542C275.007 387.684 274.745 387.894 274.53 388.159C274.316 388.423 274.155 388.736 274.059 389.077C273.962 389.417 273.932 389.777 273.971 390.132C274.009 390.486 274.115 390.827 274.282 391.132C274.529 391.57 274.876 391.926 275.287 392.163C275.698 392.401 276.158 392.511 276.62 392.484C277.04 392.477 277.454 392.361 277.827 392.146C286.102 386.941 293.039 379.435 297.968 370.354L296.686 361.443Z" fill="#FCFCFD"/>
<path d="M261.156 404.52H256.102C255.564 404.543 255.039 404.331 254.638 403.93C254.237 403.528 253.991 402.967 253.952 402.366L253.726 392.188C253.72 391.889 253.77 391.592 253.871 391.314C253.972 391.037 254.122 390.786 254.313 390.577C254.504 390.367 254.731 390.203 254.98 390.096C255.229 389.988 255.495 389.938 255.762 389.95H260.817C261.345 389.926 261.86 390.133 262.254 390.527C262.648 390.921 262.89 391.471 262.929 392.061L263.155 402.197C263.165 402.498 263.121 402.798 263.025 403.079C262.929 403.361 262.784 403.618 262.597 403.834C262.41 404.051 262.187 404.224 261.939 404.341C261.691 404.459 261.425 404.52 261.156 404.52V404.52Z" fill="#FCFCFD"/>
<path d="M248.219 106.576C247.551 106.245 246.799 106.2 246.103 106.449C245.408 106.698 244.819 107.224 244.447 107.927C239.115 117.766 231.555 125.852 222.533 131.366L223.401 137.743C230.454 132.886 244.409 121.61 249.803 110.715C250.026 110.279 250.131 109.78 250.105 109.279C250.065 108.67 249.864 108.088 249.528 107.607C249.193 107.126 248.737 106.767 248.219 106.576V106.576Z" fill="#FCFCFD"/>
<path d="M253.763 95.3847L259.308 94.4556C259.598 94.4198 259.879 94.3181 260.134 94.1566C260.388 93.9952 260.61 93.7773 260.786 93.5164C260.963 93.2556 261.09 92.9571 261.16 92.6394C261.23 92.3216 261.242 91.9912 261.194 91.6683L259.383 79.7168C259.264 79.0724 258.927 78.5049 258.441 78.1345C257.955 77.764 257.36 77.6197 256.781 77.7319L251.236 78.661C250.948 78.6976 250.669 78.7979 250.416 78.9562C250.163 79.1144 249.94 79.3274 249.761 79.5829C249.582 79.8383 249.451 80.131 249.374 80.444C249.297 80.757 249.276 81.084 249.313 81.4061L251.123 93.3576C251.242 94.0132 251.584 94.5913 252.077 94.9696C252.569 95.3479 253.174 95.4968 253.763 95.3847V95.3847Z" fill="#FCFCFD"/>
</g>
<defs>
<clipPath id="clip0_64_1693">
<rect width="633" height="551.436" fill="white" transform="translate(375 7.56192)"/>
</clipPath>
<clipPath id="clip1_64_1693">
<rect width="530" height="473.753" fill="white" transform="translate(0 0.997223)"/>
</clipPath>
</defs>
</svg>
