<svg width="683" height="240" viewBox="0 0 683 240" fill="none" xmlns="http://www.w3.org/2000/svg">
<g clip-path="url(#clip0_44_22654)">
<path d="M391.051 76.1859L391.121 76.2713C391.724 77.0103 392.035 77.9452 391.993 78.8978V123.176C392.007 123.489 391.959 123.802 391.851 124.097L390.443 123.582L391.851 124.097C391.736 124.414 391.554 124.702 391.317 124.943C391.082 125.184 390.797 125.372 390.483 125.494C390.185 125.611 389.865 125.665 389.545 125.655H358.69V131.974V132.042L358.684 132.11C358.631 132.7 358.364 133.249 357.935 133.656L356.902 132.569L357.935 133.656C357.507 134.063 356.945 134.301 356.355 134.325L356.324 134.326H356.293H325.729C325.436 134.348 325.141 134.316 324.86 134.23L391.051 76.1859ZM391.051 76.1859L390.969 76.1116L383.623 69.4184C383.31 69.0661 382.927 68.7818 382.499 68.5832C382.037 68.369 381.533 68.2599 381.024 68.2636H325.66H325.647L325.634 68.2638C325.015 68.2747 324.422 68.5139 323.969 68.9361C323.516 69.3585 323.236 69.9341 323.183 70.5519L323.177 70.6157V70.6797V131.974V131.987L323.178 132C323.183 132.333 323.259 132.661 323.4 132.963C323.541 133.265 323.744 133.534 323.996 133.752L391.051 76.1859ZM358.145 125.118L358.142 125.114L358.145 125.118ZM367.268 95.4275H358.69V88.3289H367.268V95.4275Z" fill="#1A1623" stroke="white" stroke-width="3"/>
<path d="M463.596 68.2635L463.642 68.2663C464.298 68.3063 464.914 68.598 465.36 69.0817C465.806 69.5655 466.048 70.2036 466.033 70.8623L466.032 70.9028L466.029 70.9433L462.404 118.281C462.409 118.572 462.36 118.862 462.258 119.136C462.14 119.455 461.954 119.745 461.713 119.985M463.596 68.2635L460.654 118.923M463.596 68.2635H463.551H463.596ZM461.713 119.985L460.654 118.923M461.713 119.985C461.713 119.985 461.713 119.985 461.713 119.985L460.654 118.923M461.713 119.985C461.473 120.225 461.183 120.41 460.864 120.527C460.568 120.636 460.254 120.685 459.939 120.67M460.654 118.923C460.567 119.01 460.462 119.077 460.346 119.12C460.23 119.162 460.106 119.18 459.983 119.17M459.939 120.67H459.983V119.17M459.939 120.67H449.393M459.939 120.67C459.915 120.669 459.891 120.667 459.867 120.665L459.983 119.17M459.983 119.17L449.393 120.67M449.393 120.67V120.022V120.001L449.392 119.979C449.392 119.993 449.392 120.008 449.392 120.022C449.389 120.102 449.372 120.18 449.341 120.254C449.305 120.342 449.252 120.42 449.184 120.484L448.79 120.069L448.745 120.022L448.79 120.069L449.184 120.484C449.116 120.549 449.035 120.598 448.948 120.629L448.79 120.184L448.732 120.022L448.725 120.002L448.725 120.001L448.725 120.002L448.725 120.001L448.724 120L448.724 120L448.724 119.998L448.446 119.216L448.724 119.998L448.724 120L448.724 120L449.393 120.67ZM449.393 120.67H448.79H448.732L448.674 120.665C448.713 120.668 448.751 120.668 448.79 120.664C448.843 120.659 448.896 120.647 448.948 120.629L448.79 120.184L448.732 120.022L448.725 120.003L448.725 120.001L447.893 120.022V131.974C447.893 132.464 447.273 132.826 446.91 132.826H413.799M449.393 120.67V131.974C449.393 132.878 448.836 133.482 448.444 133.78C448.054 134.075 447.498 134.326 446.91 134.326H413.868M413.868 134.326C413.906 134.324 413.944 134.32 413.982 134.315L413.799 132.826M413.868 134.326H413.799V132.826M413.868 134.326C413.575 134.348 413.28 134.316 412.999 134.23L413.436 132.795M413.799 132.826C413.677 132.841 413.554 132.831 413.436 132.795M413.436 132.795L412.999 134.23C412.681 134.133 412.386 133.97 412.135 133.752L413.118 132.619M413.436 132.795C413.319 132.759 413.21 132.699 413.118 132.619M413.118 132.619L412.135 133.752C411.883 133.534 411.68 133.265 411.539 132.963L412.898 132.328C412.95 132.439 413.025 132.538 413.118 132.619ZM432.842 92.6578L431.214 70.7739L432.842 92.6578ZM432.842 92.6578H439.594L441.223 70.7739M432.842 92.6578L441.223 70.7739M441.223 70.7739C441.223 70.8033 441.223 70.8328 441.223 70.8623L442.723 70.8288L441.227 70.7175L441.223 70.7739ZM401.602 120.67H411.317L396.989 68.5586C396.683 68.7296 396.419 68.9674 396.218 69.2547C396.016 69.5419 395.882 69.871 395.825 70.2176C395.78 70.4962 395.786 70.7801 395.841 71.0555L399.123 118.358L399.124 118.384L399.127 118.41C399.19 119.015 399.471 119.577 399.916 119.992C400.361 120.407 400.94 120.647 401.547 120.669L401.574 120.67H401.602Z" fill="#1A1623" stroke="white" stroke-width="3"/>
<mask id="path-3-outside-1_44_22654" maskUnits="userSpaceOnUse" x="468.497" y="66.7635" width="72" height="70" fill="black">
<rect fill="white" x="468.497" y="66.7635" width="72" height="70"/>
<path d="M536.373 102.403C536.489 102.397 536.604 102.415 536.713 102.455C536.822 102.495 536.921 102.557 537.005 102.637C537.089 102.717 537.156 102.813 537.201 102.919C537.247 103.025 537.27 103.139 537.27 103.255V131.974C537.27 132.09 537.247 132.204 537.201 132.311C537.156 132.417 537.089 132.513 537.005 132.592C536.921 132.672 536.822 132.734 536.713 132.774C536.604 132.814 536.489 132.832 536.373 132.826H480.832C480.288 132.821 479.759 132.65 479.315 132.336L472.095 125.37C471.724 124.985 471.51 124.476 471.497 123.942V70.6797C471.523 70.4345 471.636 70.2068 471.817 70.0385C471.997 69.8701 472.233 69.7725 472.48 69.7635H527.849C528.425 69.8005 528.967 70.0513 529.366 70.4666L536.779 77.2203C537.156 77.6816 537.346 78.2667 537.313 78.8608V91.3029C537.292 91.5293 537.19 91.7406 537.025 91.8974C536.86 92.0541 536.643 92.1457 536.416 92.1551H516.506C516.287 92.1237 516.082 92.0248 515.921 91.8721C515.76 91.7193 515.651 91.5204 515.609 91.3029V86.6798C515.616 86.552 515.595 86.4242 515.548 86.3054C515.5 86.1866 515.427 86.0797 515.333 85.9923C515.239 85.9049 515.127 85.8391 515.005 85.7996C514.883 85.7601 514.754 85.7478 514.627 85.7636H505.014C504.886 85.7478 504.757 85.7601 504.635 85.7996C504.513 85.8391 504.401 85.9049 504.307 85.9923C504.214 86.0797 504.14 86.1866 504.093 86.3054C504.045 86.4242 504.024 86.552 504.031 86.6798V108.155C504.024 108.283 504.045 108.411 504.093 108.53C504.14 108.648 504.214 108.755 504.307 108.843C504.401 108.93 504.513 108.996 504.635 109.035C504.757 109.075 504.886 109.087 505.014 109.071H514.627C514.754 109.087 514.883 109.075 515.005 109.035C515.127 108.996 515.239 108.93 515.333 108.843C515.427 108.755 515.5 108.648 515.548 108.53C515.595 108.411 515.616 108.283 515.609 108.155V103.17C515.63 102.943 515.732 102.732 515.897 102.575C516.062 102.419 516.279 102.327 516.506 102.318L536.373 102.403Z"/>
</mask>
<path d="M536.373 102.403C536.489 102.397 536.604 102.415 536.713 102.455C536.822 102.495 536.921 102.557 537.005 102.637C537.089 102.717 537.156 102.813 537.201 102.919C537.247 103.025 537.27 103.139 537.27 103.255V131.974C537.27 132.09 537.247 132.204 537.201 132.311C537.156 132.417 537.089 132.513 537.005 132.592C536.921 132.672 536.822 132.734 536.713 132.774C536.604 132.814 536.489 132.832 536.373 132.826H480.832C480.288 132.821 479.759 132.65 479.315 132.336L472.095 125.37C471.724 124.985 471.51 124.476 471.497 123.942V70.6797C471.523 70.4345 471.636 70.2068 471.817 70.0385C471.997 69.8701 472.233 69.7725 472.48 69.7635H527.849C528.425 69.8005 528.967 70.0513 529.366 70.4666L536.779 77.2203C537.156 77.6816 537.346 78.2667 537.313 78.8608V91.3029C537.292 91.5293 537.19 91.7406 537.025 91.8974C536.86 92.0541 536.643 92.1457 536.416 92.1551H516.506C516.287 92.1237 516.082 92.0248 515.921 91.8721C515.76 91.7193 515.651 91.5204 515.609 91.3029V86.6798C515.616 86.552 515.595 86.4242 515.548 86.3054C515.5 86.1866 515.427 86.0797 515.333 85.9923C515.239 85.9049 515.127 85.8391 515.005 85.7996C514.883 85.7601 514.754 85.7478 514.627 85.7636H505.014C504.886 85.7478 504.757 85.7601 504.635 85.7996C504.513 85.8391 504.401 85.9049 504.307 85.9923C504.214 86.0797 504.14 86.1866 504.093 86.3054C504.045 86.4242 504.024 86.552 504.031 86.6798V108.155C504.024 108.283 504.045 108.411 504.093 108.53C504.14 108.648 504.214 108.755 504.307 108.843C504.401 108.93 504.513 108.996 504.635 109.035C504.757 109.075 504.886 109.087 505.014 109.071H514.627C514.754 109.087 514.883 109.075 515.005 109.035C515.127 108.996 515.239 108.93 515.333 108.843C515.427 108.755 515.5 108.648 515.548 108.53C515.595 108.411 515.616 108.283 515.609 108.155V103.17C515.63 102.943 515.732 102.732 515.897 102.575C516.062 102.419 516.279 102.327 516.506 102.318L536.373 102.403Z" fill="#1A1623"/>
<path d="M536.373 102.403L536.36 105.403L536.441 105.403L536.522 105.399L536.373 102.403ZM537.27 103.255L534.27 103.251V103.255H537.27ZM537.27 131.974H534.27L534.27 131.978L537.27 131.974ZM536.373 132.826L536.522 129.83L536.448 129.826H536.373V132.826ZM480.832 132.826L480.802 135.826L480.817 135.826H480.832V132.826ZM479.315 132.336L477.232 134.495L477.397 134.654L477.584 134.786L479.315 132.336ZM472.095 125.37L469.939 127.455L469.975 127.493L470.012 127.529L472.095 125.37ZM471.497 123.942H468.497V123.979L468.498 124.015L471.497 123.942ZM471.497 70.6797L468.513 70.3683L468.497 70.5236V70.6797H471.497ZM472.48 69.7635V66.7635H472.425L472.371 66.7655L472.48 69.7635ZM527.849 69.7635L528.041 66.7697L527.945 66.7635H527.849V69.7635ZM529.366 70.4666L527.204 72.5466L527.273 72.6177L527.346 72.6842L529.366 70.4666ZM536.779 77.2203L539.102 75.3222L538.962 75.1514L538.799 75.0027L536.779 77.2203ZM537.313 78.8608L534.317 78.6929L534.313 78.7768V78.8608H537.313ZM537.313 91.3029L540.3 91.5738L540.313 91.4387V91.3029H537.313ZM536.416 92.1551V95.1551H536.477L536.539 95.1526L536.416 92.1551ZM516.506 92.1551L516.082 95.125L516.293 95.1551H516.506V92.1551ZM515.609 91.3029H512.609V91.5912L512.664 91.8741L515.609 91.3029ZM515.609 86.6798L512.614 86.51L512.609 86.5948V86.6798H515.609ZM514.627 85.7636V88.7636H514.812L514.996 88.7408L514.627 85.7636ZM505.014 85.7636L504.644 88.7408L504.828 88.7636H505.014V85.7636ZM504.031 86.6798H507.031V86.5948L507.026 86.51L504.031 86.6798ZM504.031 108.155L507.026 108.325L507.031 108.24V108.155H504.031ZM505.014 109.071V106.071H504.828L504.644 106.094L505.014 109.071ZM514.627 109.071L514.996 106.094L514.812 106.071H514.627V109.071ZM515.609 108.155H512.609V108.24L512.614 108.325L515.609 108.155ZM515.609 103.17L512.621 102.899L512.609 103.034V103.17H515.609ZM516.506 102.318L516.519 99.3177L516.451 99.3174L516.382 99.3202L516.506 102.318ZM536.522 105.399C536.233 105.414 535.943 105.369 535.671 105.268L537.755 99.6418C537.265 99.4605 536.744 99.3806 536.223 99.4066L536.522 105.399ZM535.671 105.268C535.399 105.168 535.15 105.013 534.939 104.812L539.071 100.462C538.692 100.102 538.244 99.823 537.755 99.6418L535.671 105.268ZM534.939 104.812C534.728 104.611 534.559 104.37 534.444 104.101L539.958 101.736C539.752 101.255 539.45 100.822 539.071 100.462L534.939 104.812ZM534.444 104.101C534.329 103.833 534.27 103.544 534.27 103.251L540.27 103.259C540.271 102.735 540.164 102.217 539.958 101.736L534.444 104.101ZM534.27 103.255V131.974H540.27V103.255H534.27ZM534.27 131.978C534.27 131.686 534.329 131.396 534.444 131.128L539.958 133.493C540.164 133.012 540.271 132.494 540.27 131.971L534.27 131.978ZM534.444 131.128C534.559 130.86 534.728 130.618 534.939 130.417L539.071 134.768C539.45 134.408 539.752 133.974 539.958 133.493L534.444 131.128ZM534.939 130.417C535.15 130.217 535.399 130.062 535.671 129.961L537.755 135.588C538.244 135.406 538.692 135.128 539.071 134.768L534.939 130.417ZM535.671 129.961C535.943 129.86 536.233 129.816 536.522 129.83L536.223 135.823C536.744 135.849 537.265 135.769 537.755 135.588L535.671 129.961ZM536.373 129.826H480.832V135.826H536.373V129.826ZM480.862 129.827C480.928 129.827 480.992 129.848 481.047 129.886L477.584 134.786C478.526 135.452 479.649 135.815 480.802 135.826L480.862 129.827ZM481.399 130.178L474.178 123.211L470.012 127.529L477.232 134.495L481.399 130.178ZM474.252 123.284C474.403 123.44 474.491 123.649 474.496 123.869L468.498 124.015C468.529 125.303 469.044 126.531 469.939 127.455L474.252 123.284ZM474.497 123.942V70.6797H468.497V123.942H474.497ZM474.481 70.991C474.431 71.4673 474.211 71.9081 473.862 72.2328L469.771 67.8442C469.062 68.5055 468.614 69.4016 468.513 70.3683L474.481 70.991ZM473.862 72.2328C473.514 72.5572 473.062 72.7444 472.588 72.7616L472.371 66.7655C471.404 66.8006 470.48 67.183 469.771 67.8442L473.862 72.2328ZM472.48 72.7635H527.849V66.7635H472.48V72.7635ZM527.658 72.7574C527.487 72.7465 527.325 72.6721 527.204 72.5466L531.528 68.3866C530.608 67.4305 529.364 66.8544 528.041 66.7697L527.658 72.7574ZM527.346 72.6842L534.758 79.4379L538.799 75.0027L531.387 68.249L527.346 72.6842ZM534.455 79.1184C534.359 78.9999 534.309 78.8481 534.317 78.6929L540.308 79.0287C540.383 77.6853 539.952 76.3634 539.102 75.3222L534.455 79.1184ZM534.313 78.8608V91.3029H540.313V78.8608H534.313ZM534.325 91.0321C534.37 90.5317 534.596 90.0664 534.959 89.7222L539.091 94.0725C539.783 93.4148 540.214 92.527 540.3 91.5738L534.325 91.0321ZM534.959 89.7222C535.321 89.3781 535.795 89.1782 536.292 89.1577L536.539 95.1526C537.492 95.1132 538.399 94.7301 539.091 94.0725L534.959 89.7222ZM536.416 89.1551H516.506V95.1551H536.416V89.1551ZM516.931 89.1853C517.326 89.2419 517.696 89.4202 517.987 89.6969L513.855 94.0472C514.468 94.6294 515.247 95.0056 516.082 95.125L516.931 89.1853ZM517.987 89.6969C518.279 89.9737 518.477 90.3353 518.554 90.7318L512.664 91.8741C512.825 92.7055 513.242 93.4649 513.855 94.0472L517.987 89.6969ZM518.609 91.3029V86.6798H512.609V91.3029H518.609ZM518.604 86.8495C518.637 86.2817 518.543 85.7139 518.331 85.1864L512.764 87.4244C512.648 87.1345 512.596 86.8223 512.614 86.51L518.604 86.8495ZM518.331 85.1864C518.119 84.6589 517.794 84.1851 517.379 83.798L513.287 88.1866C513.059 87.9744 512.881 87.7142 512.764 87.4244L518.331 85.1864ZM517.379 83.798C516.964 83.4112 516.469 83.1202 515.929 82.9455L514.081 88.6537C513.786 88.5581 513.514 88.3987 513.287 88.1866L517.379 83.798ZM515.929 82.9455C515.39 82.7709 514.819 82.7167 514.257 82.7865L514.996 88.7408C514.689 88.779 514.376 88.7493 514.081 88.6537L515.929 82.9455ZM514.627 82.7636H505.014V88.7636H514.627V82.7636ZM505.383 82.7865C504.821 82.7167 504.25 82.7709 503.711 82.9455L505.559 88.6537C505.264 88.7493 504.952 88.779 504.644 88.7408L505.383 82.7865ZM503.711 82.9455C503.172 83.1201 502.677 83.411 502.262 83.798L506.353 88.1866C506.125 88.3989 505.854 88.5582 505.559 88.6537L503.711 82.9455ZM502.262 83.798C501.846 84.1851 501.521 84.6589 501.309 85.1864L506.876 87.4244C506.76 87.7142 506.581 87.9744 506.353 88.1866L502.262 83.798ZM501.309 85.1864C501.097 85.7139 501.004 86.2817 501.036 86.8495L507.026 86.51C507.044 86.8223 506.993 87.1345 506.876 87.4244L501.309 85.1864ZM501.031 86.6798V108.155H507.031V86.6798H501.031ZM501.036 107.985C501.004 108.553 501.097 109.121 501.309 109.649L506.876 107.411C506.993 107.701 507.044 108.013 507.026 108.325L501.036 107.985ZM501.309 109.649C501.521 110.176 501.846 110.65 502.262 111.037L506.353 106.648C506.581 106.861 506.76 107.121 506.876 107.411L501.309 109.649ZM502.262 111.037C502.677 111.424 503.172 111.715 503.711 111.889L505.559 106.181C505.854 106.277 506.125 106.436 506.353 106.648L502.262 111.037ZM503.711 111.889C504.25 112.064 504.821 112.118 505.383 112.048L504.644 106.094C504.952 106.056 505.264 106.086 505.559 106.181L503.711 111.889ZM505.014 112.071H514.627V106.071H505.014V112.071ZM514.257 112.048C514.819 112.118 515.39 112.064 515.929 111.889L514.081 106.181C514.376 106.086 514.689 106.056 514.996 106.094L514.257 112.048ZM515.929 111.889C516.469 111.715 516.964 111.424 517.379 111.037L513.287 106.648C513.514 106.436 513.786 106.277 514.081 106.181L515.929 111.889ZM517.379 111.037C517.794 110.65 518.119 110.176 518.331 109.649L512.764 107.411C512.881 107.121 513.059 106.861 513.287 106.648L517.379 111.037ZM518.331 109.649C518.543 109.121 518.637 108.553 518.604 107.985L512.614 108.325C512.596 108.013 512.648 107.701 512.764 107.411L518.331 109.649ZM518.609 108.155V103.17H512.609V108.155H518.609ZM518.597 103.441C518.552 103.941 518.326 104.406 517.963 104.751L513.831 100.4C513.138 101.058 512.708 101.946 512.621 102.899L518.597 103.441ZM517.963 104.751C517.601 105.095 517.127 105.295 516.63 105.315L516.382 99.3202C515.43 99.3596 514.523 99.7427 513.831 100.4L517.963 104.751ZM516.493 105.318L536.36 105.403L536.386 99.4029L516.519 99.3177L516.493 105.318Z" fill="white" mask="url(#path-3-outside-1_44_22654)"/>
<mask id="path-5-outside-2_44_22654" maskUnits="userSpaceOnUse" x="541.084" y="66.7635" width="73" height="70" fill="black">
<rect fill="white" x="541.084" y="66.7635" width="73" height="70"/>
<path d="M609.387 77.2203C609.82 77.6639 610.085 78.2439 610.135 78.8608V131.974C610.135 132.464 609.537 132.826 609.152 132.826H553.783C553.161 132.856 552.547 132.684 552.031 132.336L544.853 125.37C544.419 125.014 544.142 124.501 544.084 123.942V70.6797C544.11 70.4345 544.224 70.2068 544.404 70.0385C544.585 69.8701 544.82 69.7725 545.067 69.7635H600.458C601.095 69.8091 601.701 70.0553 602.189 70.4666L609.387 77.2203ZM587.214 104.533C587.812 104.533 588.346 104.171 588.346 103.681V86.6371C588.336 86.5015 588.298 86.3693 588.234 86.2488C588.171 86.1283 588.084 86.0219 587.978 85.9362C587.872 85.8505 587.749 85.7872 587.618 85.7502C587.487 85.7132 587.349 85.7033 587.214 85.721H577.601C577.474 85.7052 577.344 85.7175 577.222 85.757C577.1 85.7965 576.989 85.8623 576.895 85.9497C576.801 86.0371 576.728 86.144 576.68 86.2628C576.632 86.3816 576.611 86.5094 576.618 86.6371V103.681C576.621 103.804 576.648 103.924 576.7 104.035C576.752 104.146 576.827 104.245 576.92 104.326C577.012 104.406 577.121 104.466 577.238 104.502C577.356 104.538 577.479 104.548 577.601 104.533H587.214Z"/>
</mask>
<path d="M609.387 77.2203C609.82 77.6639 610.085 78.2439 610.135 78.8608V131.974C610.135 132.464 609.537 132.826 609.152 132.826H553.783C553.161 132.856 552.547 132.684 552.031 132.336L544.853 125.37C544.419 125.014 544.142 124.501 544.084 123.942V70.6797C544.11 70.4345 544.224 70.2068 544.404 70.0385C544.585 69.8701 544.82 69.7725 545.067 69.7635H600.458C601.095 69.8091 601.701 70.0553 602.189 70.4666L609.387 77.2203ZM587.214 104.533C587.812 104.533 588.346 104.171 588.346 103.681V86.6371C588.336 86.5015 588.298 86.3693 588.234 86.2488C588.171 86.1283 588.084 86.0219 587.978 85.9362C587.872 85.8505 587.749 85.7872 587.618 85.7502C587.487 85.7132 587.349 85.7033 587.214 85.721H577.601C577.474 85.7052 577.344 85.7175 577.222 85.757C577.1 85.7965 576.989 85.8623 576.895 85.9497C576.801 86.0371 576.728 86.144 576.68 86.2628C576.632 86.3816 576.611 86.5094 576.618 86.6371V103.681C576.621 103.804 576.648 103.924 576.7 104.035C576.752 104.146 576.827 104.245 576.92 104.326C577.012 104.406 577.121 104.466 577.238 104.502C577.356 104.538 577.479 104.548 577.601 104.533H587.214Z" fill="#1A1623"/>
<path d="M609.387 77.2203L611.535 75.1253L611.488 75.0778L611.44 75.0324L609.387 77.2203ZM610.135 78.8608H613.135V78.7382L613.125 78.616L610.135 78.8608ZM553.783 132.826V129.826H553.712L553.641 129.83L553.783 132.826ZM552.031 132.336L549.942 134.489L550.133 134.675L550.354 134.824L552.031 132.336ZM544.853 125.37L546.943 123.217L546.852 123.129L546.755 123.049L544.853 125.37ZM544.084 123.942H541.084V124.097L541.1 124.251L544.084 123.942ZM544.084 70.6797L541.101 70.3683L541.084 70.5236V70.6797H544.084ZM545.067 69.7635V66.7635H545.013L544.959 66.7655L545.067 69.7635ZM600.458 69.7635L600.672 66.7712L600.565 66.7635H600.458V69.7635ZM602.189 70.4666L604.241 68.2787L604.184 68.2247L604.123 68.1739L602.189 70.4666ZM588.346 86.6371H591.346V86.5219L591.337 86.4069L588.346 86.6371ZM587.214 85.721V88.721H587.41L587.605 88.6955L587.214 85.721ZM577.601 85.721L577.231 88.6982L577.416 88.721H577.601V85.721ZM576.618 86.6371H579.618V86.5522L579.614 86.4674L576.618 86.6371ZM576.618 103.681H573.618V103.707L573.619 103.732L576.618 103.681ZM577.601 104.533V101.533H577.418L577.236 101.556L577.601 104.533ZM607.24 79.3154C607.186 79.2598 607.152 79.1858 607.145 79.1057L613.125 78.616C613.017 77.3021 612.454 76.0679 611.535 75.1253L607.24 79.3154ZM607.135 78.8608V131.974H613.135V78.8608H607.135ZM607.135 131.974C607.135 130.941 607.746 130.37 607.96 130.205C608.101 130.097 608.25 130.015 608.408 129.956C608.552 129.901 608.806 129.826 609.152 129.826V135.826C610.141 135.826 611.012 135.427 611.616 134.963C612.226 134.495 613.135 133.498 613.135 131.974H607.135ZM609.152 129.826H553.783V135.826H609.152V129.826ZM553.641 129.83C553.664 129.829 553.687 129.835 553.708 129.849L550.354 134.824C551.406 135.533 552.658 135.883 553.925 135.823L553.641 129.83ZM554.121 130.184L546.943 123.217L542.764 127.522L549.942 134.489L554.121 130.184ZM546.755 123.049C546.931 123.193 547.045 123.403 547.069 123.633L541.1 124.251C541.24 125.598 541.906 126.834 542.952 127.69L546.755 123.049ZM547.084 123.942V70.6797H541.084V123.942H547.084ZM547.068 70.991C547.019 71.4673 546.798 71.9081 546.45 72.2327L542.358 67.8442C541.649 68.5055 541.202 69.4016 541.101 70.3683L547.068 70.991ZM546.45 72.2327C546.102 72.5573 545.649 72.7444 545.176 72.7616L544.959 66.7655C543.991 66.8006 543.068 67.1829 542.358 67.8442L546.45 72.2327ZM545.067 72.7635H600.458V66.7635H545.067V72.7635ZM600.244 72.7559C600.249 72.7562 600.252 72.7579 600.254 72.7594L604.123 68.1739C603.15 67.3526 601.941 66.8619 600.672 66.7712L600.244 72.7559ZM600.136 72.6545L607.335 79.4082L611.44 75.0324L604.241 68.2787L600.136 72.6545ZM587.214 107.533C588.087 107.533 589.003 107.276 589.771 106.715C590.551 106.147 591.346 105.111 591.346 103.681H585.346C585.346 102.741 585.874 102.131 586.237 101.867C586.589 101.61 586.939 101.533 587.214 101.533V107.533ZM591.346 103.681V86.6371H585.346V103.681H591.346ZM591.337 86.4069C591.295 85.8635 591.143 85.3347 590.89 84.8528L585.579 87.6448C585.452 87.4039 585.376 87.1394 585.355 86.8674L591.337 86.4069ZM590.89 84.8528C590.636 84.3706 590.287 83.9459 589.865 83.6041L586.09 88.2683C585.88 88.098 585.706 87.886 585.579 87.6448L590.89 84.8528ZM589.865 83.6041C589.442 83.2621 588.955 83.0099 588.432 82.8626L586.804 88.6378C586.544 88.5644 586.301 88.4388 586.09 88.2683L589.865 83.6041ZM588.432 82.8626C587.909 82.7153 587.362 82.6758 586.823 82.7466L587.605 88.6955C587.337 88.7307 587.064 88.711 586.804 88.6378L588.432 82.8626ZM587.214 82.721H577.601V88.721H587.214V82.721ZM577.971 82.7439C577.408 82.6741 576.837 82.7283 576.298 82.9029L578.147 88.6111C577.852 88.7067 577.539 88.7364 577.231 88.6982L577.971 82.7439ZM576.298 82.9029C575.759 83.0775 575.264 83.3683 574.849 83.7554L578.941 88.144C578.713 88.3563 578.442 88.5156 578.147 88.6111L576.298 82.9029ZM574.849 83.7554C574.434 84.1428 574.108 84.6167 573.896 85.1438L579.463 87.3818C579.347 87.6712 579.169 87.9315 578.941 88.144L574.849 83.7554ZM573.896 85.1438C573.685 85.6708 573.591 86.2385 573.623 86.8069L579.614 86.4674C579.631 86.7802 579.58 87.0923 579.463 87.3818L573.896 85.1438ZM573.618 86.6371V103.681H579.618V86.6371H573.618ZM573.619 103.732C573.628 104.276 573.752 104.812 573.982 105.305L579.418 102.766C579.545 103.036 579.613 103.331 579.618 103.63L573.619 103.732ZM573.982 105.305C574.213 105.798 574.544 106.236 574.954 106.592L578.885 102.059C579.11 102.254 579.292 102.494 579.418 102.766L573.982 105.305ZM574.954 106.592C575.364 106.948 575.844 107.213 576.363 107.371L578.113 101.632C578.397 101.719 578.66 101.864 578.885 102.059L574.954 106.592ZM576.363 107.371C576.882 107.53 577.428 107.577 577.966 107.511L577.236 101.556C577.53 101.52 577.829 101.546 578.113 101.632L576.363 107.371ZM577.601 107.533H587.214V101.533H577.601V107.533Z" fill="white" mask="url(#path-5-outside-2_44_22654)"/>
<path d="M681.828 68.2635L681.874 68.2663C682.53 68.3063 683.146 68.5981 683.592 69.0817C684.033 69.5605 684.275 70.1904 684.265 70.8419V131.974V131.987L684.265 132C684.259 132.333 684.183 132.661 684.042 132.963L682.683 132.328L684.042 132.963C683.902 133.265 683.699 133.534 683.447 133.752L682.464 132.619L683.447 133.752C683.196 133.97 682.901 134.133 682.583 134.23L682.583 134.23C682.301 134.316 682.006 134.348 681.713 134.326H661.959H661.898L661.837 134.322C660.909 134.246 660.037 133.842 659.379 133.182L659.265 133.067L659.177 132.929L650.749 119.7V131.958C650.754 132.276 650.694 132.592 650.573 132.887L650.573 132.887C650.448 133.19 650.26 133.462 650.023 133.687M681.828 68.2635L649.249 131.974C649.252 132.091 649.231 132.207 649.186 132.314C649.142 132.422 649.075 132.519 648.99 132.6C648.906 132.68 648.805 132.742 648.695 132.781C648.585 132.82 648.468 132.835 648.351 132.826M681.828 68.2635H681.783H661.959H661.913L661.868 68.2663C661.212 68.3063 660.596 68.5981 660.15 69.0817C659.708 69.5605 659.467 70.1904 659.476 70.8419M681.828 68.2635L659.476 70.8419M650.023 133.687L649.012 132.623L650.023 133.687C650.023 133.687 650.023 133.687 650.023 133.687ZM650.023 133.687C649.786 133.913 649.505 134.085 649.197 134.195L648.699 132.791L649.197 134.195C648.912 134.296 648.61 134.34 648.308 134.326M648.308 134.326H648.351V132.826M648.308 134.326C648.284 134.325 648.26 134.324 648.236 134.322L648.351 132.826M648.308 134.326H617.91M648.351 132.826H617.868M617.868 132.826L617.98 134.322C617.957 134.324 617.934 134.325 617.91 134.326M617.868 132.826C617.751 132.835 617.633 132.82 617.521 132.781C617.41 132.742 617.308 132.681 617.222 132.601L616.202 133.7C616.44 133.921 616.72 134.09 617.027 134.197C617.31 134.296 617.61 134.34 617.91 134.326M617.868 132.826V134.326H617.91M616.95 131.974V70.8288M616.95 131.974H682.765V70.8288C682.771 70.559 682.672 70.2973 682.489 70.0987C682.306 69.9001 682.053 69.78 681.783 69.7635H661.959C661.689 69.78 661.436 69.9001 661.252 70.0987C661.069 70.2973 660.97 70.559 660.976 70.8288M616.95 131.974H615.45V131.973M616.95 131.974L615.45 131.97C615.45 131.971 615.45 131.972 615.45 131.973M616.95 70.8288C616.942 70.5691 617.032 70.316 617.202 70.119C617.372 69.922 617.61 69.7953 617.868 69.7635H648.501C648.809 69.7818 649.109 69.8748 649.373 70.0345M616.95 70.8288H615.45V70.8452M616.95 70.8288L615.45 70.8707C615.45 70.8622 615.45 70.8537 615.45 70.8452M649.373 70.0345C649.637 70.1941 649.859 70.4155 650.018 70.6797M649.373 70.0345L650.148 68.7505C650.617 69.0337 651.011 69.4259 651.296 69.8941M649.373 70.0345L650.148 68.7505C649.676 68.465 649.141 68.2989 648.59 68.2662L648.545 68.2635H648.501H617.868H617.777L617.686 68.2747C617.058 68.3517 616.48 68.6596 616.066 69.1394C615.658 69.613 615.438 70.2202 615.45 70.8452M650.018 70.6797L659.476 85.8364V83.0031M650.018 70.6797L651.302 69.9055C651.3 69.9017 651.298 69.8979 651.296 69.8941M650.018 70.6797L651.29 69.8855L651.296 69.8941M659.476 83.0031L660.976 85.4068V70.8288M659.476 83.0031V70.8419M659.476 83.0031L651.296 69.8941M660.976 70.8288H659.476V70.8419M660.976 70.8288L659.477 70.8623C659.476 70.8555 659.476 70.8487 659.476 70.8419M659.476 70.8419L615.45 131.973M615.45 70.8452V131.973M660.976 86.8289V86.5754L660.578 86.8238L660.976 86.8289ZM660.976 86.8289H660.579H660.573H660.57M660.976 86.8289H660.57M660.57 86.8289L660.567 86.8308L660.57 86.8289ZM661.959 132.826C661.385 132.78 660.848 132.531 660.442 132.123L681.783 132.826H661.959ZM660.976 86.562V85.8066L660.57 86.8222L660.57 86.8228L660.571 86.8225L660.571 86.8224L660.976 86.562Z" fill="#1A1623" stroke="white" stroke-width="3"/>
<mask id="path-8-outside-3_44_22654" maskUnits="userSpaceOnUse" x="486.997" y="169.411" width="50" height="45" fill="black">
<rect fill="white" x="486.997" y="169.411" width="50" height="45"/>
<path d="M533.681 192.331C533.679 192.405 533.661 192.478 533.629 192.545C533.597 192.611 533.551 192.67 533.495 192.718C533.439 192.767 533.373 192.802 533.302 192.824C533.231 192.845 533.157 192.852 533.083 192.843H511.892C511.739 192.848 511.593 192.909 511.482 193.016C511.372 193.122 511.305 193.265 511.294 193.418V195.549C511.287 195.628 511.298 195.707 511.326 195.782C511.354 195.856 511.398 195.923 511.456 195.979C511.513 196.034 511.582 196.075 511.657 196.101C511.733 196.126 511.813 196.134 511.892 196.124H533.083C533.228 196.122 533.369 196.173 533.479 196.267C533.589 196.361 533.661 196.492 533.681 196.635V209.951C533.679 210.025 533.661 210.097 533.629 210.164C533.597 210.23 533.551 210.29 533.495 210.338C533.439 210.386 533.373 210.422 533.302 210.443C533.231 210.465 533.157 210.471 533.083 210.462H490.744C490.338 210.462 489.997 210.249 489.997 209.951V190.691C490.046 190.331 490.219 189.999 490.488 189.754L495.252 185.663C495.578 185.439 495.966 185.32 496.362 185.322H514.05C514.207 185.299 514.352 185.223 514.461 185.107C514.569 184.991 514.635 184.841 514.648 184.683V182.552C514.633 182.404 514.563 182.265 514.453 182.163C514.343 182.061 514.2 182.003 514.05 181.999H490.744C490.59 182.011 490.436 181.966 490.313 181.871C490.191 181.777 490.108 181.64 490.082 181.487V172.965C490.108 172.809 490.188 172.667 490.31 172.566C490.432 172.464 490.586 172.409 490.744 172.411H533.083C533.232 172.42 533.373 172.48 533.482 172.581C533.591 172.682 533.662 172.818 533.681 172.965V192.331Z"/>
</mask>
<path d="M533.681 192.331C533.679 192.405 533.661 192.478 533.629 192.545C533.597 192.611 533.551 192.67 533.495 192.718C533.439 192.767 533.373 192.802 533.302 192.824C533.231 192.845 533.157 192.852 533.083 192.843H511.892C511.739 192.848 511.593 192.909 511.482 193.016C511.372 193.122 511.305 193.265 511.294 193.418V195.549C511.287 195.628 511.298 195.707 511.326 195.782C511.354 195.856 511.398 195.923 511.456 195.979C511.513 196.034 511.582 196.075 511.657 196.101C511.733 196.126 511.813 196.134 511.892 196.124H533.083C533.228 196.122 533.369 196.173 533.479 196.267C533.589 196.361 533.661 196.492 533.681 196.635V209.951C533.679 210.025 533.661 210.097 533.629 210.164C533.597 210.23 533.551 210.29 533.495 210.338C533.439 210.386 533.373 210.422 533.302 210.443C533.231 210.465 533.157 210.471 533.083 210.462H490.744C490.338 210.462 489.997 210.249 489.997 209.951V190.691C490.046 190.331 490.219 189.999 490.488 189.754L495.252 185.663C495.578 185.439 495.966 185.32 496.362 185.322H514.05C514.207 185.299 514.352 185.223 514.461 185.107C514.569 184.991 514.635 184.841 514.648 184.683V182.552C514.633 182.404 514.563 182.265 514.453 182.163C514.343 182.061 514.2 182.003 514.05 181.999H490.744C490.59 182.011 490.436 181.966 490.313 181.871C490.191 181.777 490.108 181.64 490.082 181.487V172.965C490.108 172.809 490.188 172.667 490.31 172.566C490.432 172.464 490.586 172.409 490.744 172.411H533.083C533.232 172.42 533.373 172.48 533.482 172.581C533.591 172.682 533.662 172.818 533.681 172.965V192.331Z" fill="#1A1623"/>
<path d="M533.681 192.331L536.68 192.43L536.681 192.381V192.331H533.681ZM533.083 192.843L533.444 189.865L533.264 189.843H533.083V192.843ZM511.892 192.843V189.843H511.844L511.796 189.844L511.892 192.843ZM511.294 193.418L508.301 193.212L508.294 193.315V193.418H511.294ZM511.294 195.549L514.283 195.812L514.294 195.681V195.549H511.294ZM511.892 196.124V193.124H511.706L511.522 193.147L511.892 196.124ZM533.083 196.124V199.124H533.099L533.114 199.124L533.083 196.124ZM533.681 196.635H536.681V196.419L536.651 196.206L533.681 196.635ZM533.681 209.951L536.68 210.049L536.681 210V209.951H533.681ZM533.083 210.462L533.444 207.484L533.264 207.462H533.083V210.462ZM489.997 190.691L487.024 190.287L486.997 190.488V190.691H489.997ZM490.488 189.754L488.533 187.478L488.498 187.508L488.463 187.54L490.488 189.754ZM495.252 185.663L493.556 183.188L493.421 183.281L493.297 183.387L495.252 185.663ZM496.362 185.322L496.347 188.322L496.355 188.322H496.362V185.322ZM514.05 185.322V188.322H514.273L514.494 188.289L514.05 185.322ZM514.648 184.683L517.638 184.923L517.648 184.803V184.683H514.648ZM514.648 182.552H517.648V182.397L517.632 182.243L514.648 182.552ZM514.05 181.999L514.137 179L514.094 178.999H514.05V181.999ZM490.744 181.999V178.999H490.619L490.495 179.009L490.744 181.999ZM490.082 181.487H487.082V181.743L487.125 181.995L490.082 181.487ZM490.082 172.965L487.121 172.48L487.082 172.721V172.965H490.082ZM490.744 172.411L490.705 175.411L490.725 175.411H490.744V172.411ZM533.083 172.411L533.257 169.416L533.17 169.411H533.083V172.411ZM533.681 172.965H536.681V172.766L536.655 172.569L533.681 172.965ZM530.683 192.233C530.694 191.89 530.777 191.553 530.926 191.244L536.332 193.845C536.545 193.403 536.664 192.921 536.68 192.43L530.683 192.233ZM530.926 191.244C531.075 190.934 531.286 190.66 531.546 190.438L535.445 194.999C535.817 194.681 536.119 194.288 536.332 193.845L530.926 191.244ZM531.546 190.438C531.806 190.216 532.109 190.05 532.435 189.952L534.169 195.696C534.638 195.554 535.072 195.317 535.445 194.999L531.546 190.438ZM532.435 189.952C532.762 189.853 533.105 189.824 533.444 189.865L532.723 195.821C533.208 195.88 533.701 195.837 534.169 195.696L532.435 189.952ZM533.083 189.843H511.892V195.843H533.083V189.843ZM511.796 189.844C510.902 189.873 510.049 190.232 509.403 190.853L513.562 195.178C513.137 195.587 512.576 195.822 511.989 195.841L511.796 189.844ZM509.403 190.853C508.756 191.475 508.363 192.316 508.301 193.212L514.287 193.624C514.247 194.215 513.987 194.769 513.562 195.178L509.403 190.853ZM508.294 193.418V195.549H514.294V193.418H508.294ZM508.306 195.285C508.259 195.811 508.332 196.341 508.517 196.835L514.135 194.728C514.265 195.074 514.315 195.444 514.283 195.812L508.306 195.285ZM508.517 196.835C508.702 197.33 508.996 197.776 509.376 198.141L513.535 193.816C513.8 194.071 514.006 194.383 514.135 194.728L508.517 196.835ZM509.376 198.141C509.756 198.506 510.212 198.782 510.712 198.948L512.603 193.254C512.952 193.369 513.27 193.561 513.535 193.816L509.376 198.141ZM510.712 198.948C511.211 199.113 511.741 199.166 512.263 199.101L511.522 193.147C511.886 193.101 512.255 193.138 512.603 193.254L510.712 198.948ZM511.892 199.124H533.083V193.124H511.892V199.124ZM533.114 199.124C532.534 199.13 531.971 198.925 531.529 198.548L535.428 193.987C534.766 193.421 533.922 193.115 533.053 193.124L533.114 199.124ZM531.529 198.548C531.087 198.17 530.796 197.643 530.712 197.065L536.651 196.206C536.525 195.341 536.09 194.553 535.428 193.987L531.529 198.548ZM530.681 196.635V209.951H536.681V196.635H530.681ZM530.683 209.852C530.694 209.509 530.777 209.172 530.926 208.863L536.332 211.465C536.545 211.022 536.664 210.54 536.68 210.049L530.683 209.852ZM530.926 208.863C531.075 208.554 531.286 208.279 531.546 208.057L535.445 212.618C535.817 212.3 536.119 211.907 536.332 211.465L530.926 208.863ZM531.546 208.057C531.806 207.835 532.109 207.67 532.435 207.571L534.169 213.315C534.638 213.174 535.072 212.936 535.445 212.618L531.546 208.057ZM532.435 207.571C532.762 207.473 533.105 207.443 533.444 207.484L532.723 213.44C533.208 213.499 533.701 213.457 534.169 213.315L532.435 207.571ZM533.083 207.462H490.744V213.462H533.083V207.462ZM490.744 207.462C491.029 207.462 491.444 207.531 491.879 207.82C492.328 208.118 492.997 208.827 492.997 209.951H486.997C486.997 211.373 487.836 212.337 488.557 212.816C489.265 213.287 490.053 213.462 490.744 213.462V207.462ZM492.997 209.951V190.691H486.997V209.951H492.997ZM492.969 191.095C492.924 191.431 492.761 191.74 492.513 191.967L488.463 187.54C487.677 188.259 487.167 189.23 487.024 190.287L492.969 191.095ZM492.442 192.03L497.206 187.939L493.297 183.387L488.533 187.478L492.442 192.03ZM496.948 188.138C496.77 188.259 496.561 188.323 496.347 188.322L496.378 182.322C495.371 182.317 494.386 182.619 493.556 183.188L496.948 188.138ZM496.362 188.322H514.05V182.322H496.362V188.322ZM514.494 188.289C515.319 188.166 516.08 187.767 516.651 187.156L512.27 183.057C512.625 182.678 513.096 182.431 513.606 182.355L514.494 188.289ZM516.651 187.156C517.223 186.546 517.571 185.758 517.638 184.923L511.658 184.443C511.699 183.924 511.916 183.435 512.27 183.057L516.651 187.156ZM517.648 184.683V182.552H511.648V184.683H517.648ZM517.632 182.243C517.541 181.368 517.135 180.558 516.492 179.962L512.415 184.364C511.992 183.972 511.724 183.439 511.664 182.862L517.632 182.243ZM516.492 179.962C515.849 179.367 515.012 179.025 514.137 179L513.963 184.997C513.388 184.981 512.838 184.756 512.415 184.364L516.492 179.962ZM514.05 178.999H490.744V184.999H514.05V178.999ZM490.495 179.009C491.086 178.96 491.676 179.133 492.147 179.497L488.48 184.246C489.196 184.799 490.093 185.063 490.994 184.988L490.495 179.009ZM492.147 179.497C492.618 179.861 492.937 180.389 493.039 180.979L487.125 181.995C487.279 182.89 487.764 183.693 488.48 184.246L492.147 179.497ZM493.082 181.487V172.965H487.082V181.487H493.082ZM493.043 173.45C492.952 174.005 492.664 174.508 492.235 174.867L488.385 170.265C487.713 170.827 487.264 171.613 487.121 172.48L493.043 173.45ZM492.235 174.867C491.806 175.226 491.263 175.418 490.705 175.411L490.783 169.412C489.908 169.4 489.057 169.702 488.385 170.265L492.235 174.867ZM490.744 175.411H533.083V169.411H490.744V175.411ZM532.91 175.406C532.364 175.375 531.846 175.155 531.444 174.782L535.521 170.38C534.9 169.805 534.1 169.465 533.257 169.416L532.91 175.406ZM531.444 174.782C531.041 174.41 530.78 173.907 530.708 173.361L536.655 172.569C536.543 171.728 536.141 170.955 535.521 170.38L531.444 174.782ZM530.681 172.965V192.331H536.681V172.965H530.681Z" fill="white" mask="url(#path-8-outside-3_44_22654)"/>
<mask id="path-10-outside-4_44_22654" maskUnits="userSpaceOnUse" x="536.192" y="169.433" width="50" height="45" fill="black">
<rect fill="white" x="536.192" y="169.433" width="50" height="45"/>
<path d="M582.194 172.433C582.342 172.441 582.483 172.501 582.593 172.602C582.702 172.703 582.772 172.839 582.792 172.986V205.178C582.8 205.342 582.771 205.505 582.708 205.656C582.646 205.807 582.55 205.942 582.429 206.052L577.686 210.313C577.338 210.519 576.938 210.623 576.533 210.611H539.855C539.449 210.611 539.192 210.398 539.192 210.1V177.929C539.229 177.548 539.413 177.197 539.705 176.949L544.469 172.859C544.798 172.598 545.202 172.449 545.622 172.433H582.194ZM554.231 182.744C554.153 182.738 554.074 182.749 554 182.775C553.926 182.802 553.859 182.843 553.802 182.898C553.746 182.952 553.701 183.018 553.672 183.09C553.643 183.163 553.63 183.241 553.633 183.319V192.971C553.636 193.045 553.653 193.119 553.685 193.186C553.717 193.254 553.762 193.314 553.818 193.364C553.874 193.414 553.939 193.452 554.01 193.476C554.081 193.5 554.156 193.509 554.231 193.503H560.746C561.003 193.503 561.387 193.29 561.387 192.971V183.362C561.371 183.204 561.297 183.057 561.178 182.951C561.06 182.845 560.906 182.786 560.746 182.787L554.231 182.744Z"/>
</mask>
<path d="M582.194 172.433C582.342 172.441 582.483 172.501 582.593 172.602C582.702 172.703 582.772 172.839 582.792 172.986V205.178C582.8 205.342 582.771 205.505 582.708 205.656C582.646 205.807 582.55 205.942 582.429 206.052L577.686 210.313C577.338 210.519 576.938 210.623 576.533 210.611H539.855C539.449 210.611 539.192 210.398 539.192 210.1V177.929C539.229 177.548 539.413 177.197 539.705 176.949L544.469 172.859C544.798 172.598 545.202 172.449 545.622 172.433H582.194ZM554.231 182.744C554.153 182.738 554.074 182.749 554 182.775C553.926 182.802 553.859 182.843 553.802 182.898C553.746 182.952 553.701 183.018 553.672 183.09C553.643 183.163 553.63 183.241 553.633 183.319V192.971C553.636 193.045 553.653 193.119 553.685 193.186C553.717 193.254 553.762 193.314 553.818 193.364C553.874 193.414 553.939 193.452 554.01 193.476C554.081 193.5 554.156 193.509 554.231 193.503H560.746C561.003 193.503 561.387 193.29 561.387 192.971V183.362C561.371 183.204 561.297 183.057 561.178 182.951C561.06 182.845 560.906 182.786 560.746 182.787L554.231 182.744Z" fill="#1A1623"/>
<path d="M582.194 172.433L582.367 169.438L582.28 169.433H582.194V172.433ZM582.792 172.986H585.792V172.788L585.766 172.59L582.792 172.986ZM582.792 205.178H579.792V205.25L579.795 205.322L582.792 205.178ZM582.429 206.052L584.434 208.283L584.441 208.276L582.429 206.052ZM577.686 210.313L579.216 212.893L579.471 212.742L579.691 212.544L577.686 210.313ZM576.533 210.611L576.62 207.612L576.576 207.611H576.533V210.611ZM539.192 177.929L536.206 177.643L536.192 177.786V177.929H539.192ZM539.705 176.949L541.645 179.238L541.652 179.231L541.659 179.225L539.705 176.949ZM544.469 172.859L542.61 170.504L542.561 170.542L542.514 170.583L544.469 172.859ZM545.622 172.433V169.433H545.563L545.503 169.435L545.622 172.433ZM554.231 182.744L553.998 185.735L554.105 185.743L554.211 185.744L554.231 182.744ZM553.633 183.319H556.633V183.257L556.63 183.195L553.633 183.319ZM553.633 192.971H550.633V193.024L550.635 193.077L553.633 192.971ZM554.231 193.503V190.503H554.115L553.999 190.512L554.231 193.503ZM561.387 183.362H564.387V183.211L564.372 183.061L561.387 183.362ZM560.746 182.787L560.727 185.787L560.744 185.787L560.761 185.787L560.746 182.787ZM582.02 175.428C581.475 175.396 580.956 175.176 580.554 174.803L584.631 170.401C584.011 169.827 583.21 169.486 582.367 169.438L582.02 175.428ZM580.554 174.803C580.152 174.431 579.891 173.929 579.818 173.382L585.766 172.59C585.654 171.75 585.251 170.976 584.631 170.401L580.554 174.803ZM579.792 172.986V205.178H585.792V172.986H579.792ZM579.795 205.322C579.782 205.042 579.831 204.763 579.938 204.504L585.478 206.807C585.712 206.247 585.817 205.641 585.788 205.034L579.795 205.322ZM579.938 204.504C580.046 204.245 580.209 204.014 580.416 203.827L584.441 208.276C584.891 207.87 585.245 207.368 585.478 206.807L579.938 204.504ZM580.424 203.82L575.681 208.081L579.691 212.544L584.434 208.283L580.424 203.82ZM576.156 207.732C576.297 207.649 576.457 207.608 576.62 207.612L576.446 213.61C577.418 213.638 578.379 213.39 579.216 212.893L576.156 207.732ZM576.533 207.611H539.855V213.611H576.533V207.611ZM539.855 207.611C540.151 207.611 540.692 207.688 541.229 208.112C541.82 208.578 542.192 209.31 542.192 210.1H536.192C536.192 211.188 536.693 212.176 537.514 212.823C538.28 213.427 539.152 213.611 539.855 213.611V207.611ZM542.192 210.1V177.929H536.192V210.1H542.192ZM542.179 178.216C542.14 178.614 541.948 178.981 541.645 179.238L537.765 174.661C536.878 175.413 536.317 176.483 536.206 177.643L542.179 178.216ZM541.659 179.225L546.423 175.135L542.514 170.583L537.751 174.673L541.659 179.225ZM546.327 175.214C546.159 175.346 545.954 175.422 545.742 175.43L545.503 169.435C544.45 169.477 543.438 169.851 542.61 170.504L546.327 175.214ZM545.622 175.433H582.194V169.433H545.622V175.433ZM554.464 179.753C553.964 179.714 553.461 179.782 552.989 179.951L555.011 185.599C554.687 185.716 554.342 185.762 553.998 185.735L554.464 179.753ZM552.989 179.951C552.516 180.12 552.085 180.387 551.723 180.735L555.882 185.06C555.633 185.3 555.336 185.483 555.011 185.599L552.989 179.951ZM551.723 180.735C551.361 181.084 551.076 181.505 550.888 181.972L556.456 184.209C556.327 184.531 556.131 184.821 555.882 185.06L551.723 180.735ZM550.888 181.972C550.7 182.44 550.615 182.942 550.636 183.444L556.63 183.195C556.645 183.54 556.586 183.886 556.456 184.209L550.888 181.972ZM550.633 183.319V192.971H556.633V183.319H550.633ZM550.635 193.077C550.652 193.557 550.766 194.028 550.971 194.463L556.4 191.909C556.541 192.209 556.619 192.534 556.631 192.864L550.635 193.077ZM550.971 194.463C551.175 194.898 551.465 195.286 551.823 195.605L555.813 191.124C556.059 191.343 556.259 191.61 556.4 191.909L550.971 194.463ZM551.823 195.605C552.181 195.923 552.599 196.166 553.053 196.319L554.968 190.633C555.279 190.738 555.567 190.905 555.813 191.124L551.823 195.605ZM553.053 196.319C553.507 196.472 553.986 196.531 554.463 196.494L553.999 190.512C554.327 190.487 554.656 190.528 554.968 190.633L553.053 196.319ZM554.231 196.503H560.746V190.503H554.231V196.503ZM560.746 196.503C561.586 196.503 562.353 196.201 562.927 195.783C563.511 195.358 564.387 194.428 564.387 192.971H558.387C558.387 191.833 559.071 191.169 559.398 190.931C559.717 190.699 560.163 190.503 560.746 190.503V196.503ZM564.387 192.971V183.362H558.387V192.971H564.387ZM564.372 183.061C564.281 182.158 563.856 181.323 563.182 180.718L559.174 185.183C558.738 184.791 558.461 184.249 558.402 183.663L564.372 183.061ZM563.182 180.718C562.509 180.114 561.635 179.782 560.731 179.787L560.761 185.787C560.177 185.79 559.611 185.575 559.174 185.183L563.182 180.718ZM560.766 179.787L554.251 179.744L554.211 185.744L560.727 185.787L560.766 179.787Z" fill="white" mask="url(#path-10-outside-4_44_22654)"/>
<mask id="path-12-outside-5_44_22654" maskUnits="userSpaceOnUse" x="586.2" y="169.411" width="50" height="45" fill="black">
<rect fill="white" x="586.2" y="169.411" width="50" height="45"/>
<path d="M632.906 192.331C632.901 192.406 632.881 192.479 632.846 192.546C632.812 192.613 632.764 192.672 632.706 192.719C632.649 192.767 632.581 192.803 632.509 192.824C632.437 192.845 632.362 192.852 632.287 192.843H611.096C610.944 192.852 610.8 192.915 610.691 193.021C610.581 193.126 610.513 193.267 610.498 193.418V195.549C610.495 195.627 610.508 195.705 610.537 195.778C610.566 195.85 610.611 195.916 610.667 195.97C610.724 196.025 610.791 196.066 610.865 196.093C610.939 196.119 611.018 196.13 611.096 196.124H632.308C632.456 196.122 632.599 196.172 632.712 196.266C632.826 196.359 632.902 196.49 632.928 196.635V209.951C632.922 210.026 632.902 210.099 632.868 210.165C632.833 210.232 632.786 210.291 632.728 210.339C632.67 210.387 632.603 210.422 632.531 210.443C632.459 210.465 632.383 210.471 632.308 210.462H589.969C589.563 210.462 589.2 210.249 589.2 209.951V190.691C589.249 190.326 589.432 189.992 589.713 189.754L594.477 185.663C594.795 185.439 595.176 185.32 595.566 185.322H613.254C613.413 185.302 613.56 185.228 613.669 185.111C613.778 184.994 613.843 184.843 613.852 184.683V182.552C613.841 182.402 613.773 182.261 613.662 182.158C613.551 182.055 613.405 181.998 613.254 181.999H589.969C589.815 182.011 589.661 181.966 589.538 181.871C589.416 181.777 589.333 181.64 589.307 181.487V172.965C589.333 172.809 589.413 172.667 589.535 172.566C589.657 172.464 589.811 172.409 589.969 172.411H632.308C632.461 172.415 632.607 172.473 632.72 172.574C632.834 172.676 632.907 172.814 632.928 172.965L632.906 192.331Z"/>
</mask>
<path d="M632.906 192.331C632.901 192.406 632.881 192.479 632.846 192.546C632.812 192.613 632.764 192.672 632.706 192.719C632.649 192.767 632.581 192.803 632.509 192.824C632.437 192.845 632.362 192.852 632.287 192.843H611.096C610.944 192.852 610.8 192.915 610.691 193.021C610.581 193.126 610.513 193.267 610.498 193.418V195.549C610.495 195.627 610.508 195.705 610.537 195.778C610.566 195.85 610.611 195.916 610.667 195.97C610.724 196.025 610.791 196.066 610.865 196.093C610.939 196.119 611.018 196.13 611.096 196.124H632.308C632.456 196.122 632.599 196.172 632.712 196.266C632.826 196.359 632.902 196.49 632.928 196.635V209.951C632.922 210.026 632.902 210.099 632.868 210.165C632.833 210.232 632.786 210.291 632.728 210.339C632.67 210.387 632.603 210.422 632.531 210.443C632.459 210.465 632.383 210.471 632.308 210.462H589.969C589.563 210.462 589.2 210.249 589.2 209.951V190.691C589.249 190.326 589.432 189.992 589.713 189.754L594.477 185.663C594.795 185.439 595.176 185.32 595.566 185.322H613.254C613.413 185.302 613.56 185.228 613.669 185.111C613.778 184.994 613.843 184.843 613.852 184.683V182.552C613.841 182.402 613.773 182.261 613.662 182.158C613.551 182.055 613.405 181.998 613.254 181.999H589.969C589.815 182.011 589.661 181.966 589.538 181.871C589.416 181.777 589.333 181.64 589.307 181.487V172.965C589.333 172.809 589.413 172.667 589.535 172.566C589.657 172.464 589.811 172.409 589.969 172.411H632.308C632.461 172.415 632.607 172.473 632.72 172.574C632.834 172.676 632.907 172.814 632.928 172.965L632.906 192.331Z" fill="#1A1623"/>
<path d="M632.906 192.331L635.899 192.542L635.906 192.438L635.906 192.335L632.906 192.331ZM632.287 192.843L632.639 189.864L632.464 189.843H632.287V192.843ZM611.096 192.843V189.843H611.003L610.911 189.849L611.096 192.843ZM610.498 193.418L607.512 193.123L607.498 193.27V193.418H610.498ZM610.498 195.549L613.495 195.673L613.498 195.611V195.549H610.498ZM611.096 196.124V193.124H610.979L610.863 193.133L611.096 196.124ZM632.308 196.124V199.124H632.331L632.353 199.123L632.308 196.124ZM632.928 196.635H635.928V196.374L635.883 196.117L632.928 196.635ZM632.928 209.951L635.92 210.161L635.928 210.056V209.951H632.928ZM632.308 210.462L632.661 207.483L632.485 207.462H632.308V210.462ZM589.2 190.691L586.227 190.291L586.2 190.49V190.691H589.2ZM589.713 189.754L591.655 192.04L591.661 192.035L591.667 192.03L589.713 189.754ZM594.477 185.663L592.755 183.206L592.634 183.291L592.522 183.387L594.477 185.663ZM595.566 185.322L595.552 188.322H595.566V185.322ZM613.254 185.322V188.322H613.439L613.623 188.299L613.254 185.322ZM613.852 184.683L616.847 184.848L616.852 184.766V184.683H613.852ZM613.852 182.552H616.852V182.445L616.844 182.338L613.852 182.552ZM613.254 181.999V184.999L613.261 184.999L613.254 181.999ZM589.969 181.999V178.999H589.844L589.72 179.009L589.969 181.999ZM589.307 181.487H586.307V181.743L586.35 181.995L589.307 181.487ZM589.307 172.965L586.346 172.48L586.307 172.721V172.965H589.307ZM589.969 172.411L589.93 175.411L589.95 175.411H589.969V172.411ZM632.308 172.411L632.381 169.412L632.345 169.411H632.308V172.411ZM632.928 172.965L635.928 172.969L635.928 172.766L635.901 172.565L632.928 172.965ZM629.914 192.121C629.937 191.79 630.027 191.467 630.18 191.172L635.513 193.92C635.734 193.491 635.865 193.022 635.899 192.542L629.914 192.121ZM630.18 191.172C630.332 190.876 630.542 190.616 630.797 190.406L634.616 195.033C634.987 194.727 635.292 194.349 635.513 193.92L630.18 191.172ZM630.797 190.406C631.051 190.196 631.346 190.039 631.663 189.946L633.355 195.702C633.817 195.567 634.246 195.339 634.616 195.033L630.797 190.406ZM631.663 189.946C631.98 189.853 632.312 189.825 632.639 189.864L631.934 195.822C632.411 195.878 632.894 195.838 633.355 195.702L631.663 189.946ZM632.287 189.843H611.096V195.843H632.287V189.843ZM610.911 189.849C610.05 189.902 609.234 190.259 608.611 190.858L612.77 195.183C612.366 195.572 611.838 195.803 611.281 195.837L610.911 189.849ZM608.611 190.858C607.988 191.458 607.598 192.261 607.512 193.123L613.483 193.713C613.428 194.273 613.175 194.794 612.77 195.183L608.611 190.858ZM607.498 193.418V195.549H613.498V193.418H607.498ZM607.5 195.424C607.48 195.926 607.565 196.428 607.753 196.896L613.321 194.659C613.451 194.982 613.51 195.328 613.495 195.673L607.5 195.424ZM607.753 196.896C607.941 197.363 608.226 197.784 608.588 198.133L612.747 193.808C612.996 194.047 613.192 194.337 613.321 194.659L607.753 196.896ZM608.588 198.133C608.95 198.481 609.381 198.748 609.854 198.917L611.876 193.268C612.201 193.385 612.498 193.568 612.747 193.808L608.588 198.133ZM609.854 198.917C610.326 199.086 610.829 199.154 611.329 199.115L610.863 193.133C611.206 193.106 611.552 193.152 611.876 193.268L609.854 198.917ZM611.096 199.124H632.308V193.124H611.096V199.124ZM632.353 199.123C631.789 199.132 631.239 198.939 630.803 198.579L634.622 193.952C633.959 193.404 633.122 193.111 632.263 193.124L632.353 199.123ZM630.803 198.579C630.366 198.219 630.071 197.714 629.973 197.153L635.883 196.117C635.734 195.267 635.286 194.5 634.622 193.952L630.803 198.579ZM629.928 196.635V209.951H635.928V196.635H629.928ZM629.935 209.74C629.959 209.408 630.05 209.085 630.201 208.791L635.534 211.539C635.755 211.112 635.886 210.643 635.92 210.161L629.935 209.74ZM630.201 208.791C630.352 208.497 630.562 208.236 630.818 208.025L634.637 212.652C635.009 212.346 635.314 211.967 635.534 211.539L630.201 208.791ZM630.818 208.025C631.074 207.814 631.369 207.658 631.685 207.565L633.377 213.322C633.837 213.186 634.266 212.959 634.637 212.652L630.818 208.025ZM631.685 207.565C632.001 207.472 632.333 207.444 632.661 207.483L631.956 213.441C632.433 213.498 632.916 213.457 633.377 213.322L631.685 207.565ZM632.308 207.462H589.969V213.462H632.308V207.462ZM589.969 207.462C590.251 207.462 590.639 207.528 591.049 207.791C591.453 208.049 592.2 208.75 592.2 209.951H586.2C586.2 211.45 587.129 212.406 587.816 212.845C588.51 213.289 589.282 213.462 589.969 213.462V207.462ZM592.2 209.951V190.691H586.2V209.951H592.2ZM592.173 191.091C592.124 191.462 591.938 191.8 591.655 192.04L587.771 187.467C586.926 188.185 586.375 189.191 586.227 190.291L592.173 191.091ZM591.667 192.03L596.431 187.939L592.522 183.387L587.758 187.478L591.667 192.03ZM596.198 188.12C596.009 188.253 595.783 188.323 595.552 188.322L595.58 182.322C594.57 182.318 593.582 182.626 592.755 183.206L596.198 188.12ZM595.566 188.322H613.254V182.322H595.566V188.322ZM613.623 188.299C614.478 188.193 615.269 187.791 615.859 187.161L611.478 183.061C611.85 182.664 612.347 182.412 612.884 182.345L613.623 188.299ZM615.859 187.161C616.449 186.53 616.8 185.712 616.847 184.848L610.856 184.518C610.886 183.974 611.107 183.458 611.478 183.061L615.859 187.161ZM616.852 184.683V182.552H610.852V184.683H616.852ZM616.844 182.338C616.779 181.427 616.369 180.576 615.7 179.957L611.624 184.359C611.177 183.945 610.903 183.376 610.859 182.767L616.844 182.338ZM615.7 179.957C615.032 179.338 614.155 178.996 613.246 178.999L613.261 184.999C612.655 185 612.07 184.772 611.624 184.359L615.7 179.957ZM613.254 178.999H589.969V184.999H613.254V178.999ZM589.72 179.009C590.311 178.96 590.901 179.133 591.372 179.497L587.705 184.246C588.421 184.799 589.318 185.063 590.219 184.988L589.72 179.009ZM591.372 179.497C591.843 179.861 592.162 180.389 592.264 180.979L586.35 181.995C586.504 182.89 586.988 183.693 587.705 184.246L591.372 179.497ZM592.307 181.487V172.965H586.307V181.487H592.307ZM592.268 173.45C592.177 174.006 591.889 174.508 591.46 174.867L587.61 170.265C586.938 170.827 586.489 171.613 586.346 172.48L592.268 173.45ZM591.46 174.867C591.031 175.226 590.488 175.418 589.93 175.411L590.008 169.412C589.133 169.4 588.282 169.702 587.61 170.265L591.46 174.867ZM589.969 175.411H632.308V169.411H589.969V175.411ZM632.235 175.41C631.676 175.397 631.139 175.185 630.721 174.811L634.72 170.338C634.075 169.761 633.245 169.433 632.381 169.412L632.235 175.41ZM630.721 174.811C630.302 174.437 630.03 173.924 629.955 173.365L635.901 172.565C635.785 171.705 635.366 170.915 634.72 170.338L630.721 174.811ZM629.928 172.962L629.906 192.328L635.906 192.335L635.928 172.969L629.928 172.962Z" fill="white" mask="url(#path-12-outside-5_44_22654)"/>
<path d="M684.5 192.356L684.499 192.381C684.49 192.663 684.422 192.94 684.299 193.195L684.5 192.356ZM684.5 192.356V192.331V192.356ZM640.063 181.999C639.912 182.006 639.763 181.958 639.645 181.864C639.527 181.77 639.448 181.636 639.422 181.487V172.965L640.063 172.411L640.076 170.911C640.073 170.911 640.07 170.911 640.067 170.911C639.55 170.909 639.048 171.094 638.656 171.433C638.262 171.773 638.005 172.247 637.935 172.765L637.922 172.865V172.965V181.487V181.617L637.944 181.745C638.033 182.255 638.306 182.714 638.71 183.036C639.101 183.349 639.59 183.512 640.089 183.499M640.063 181.999V183.499H640.089M640.063 181.999L640.136 183.497C640.12 183.498 640.104 183.498 640.089 183.499M640.063 181.999L662.466 183.499M640.089 183.499H662.466M662.466 183.499V183.822M662.466 183.499L662.113 194.624M662.466 183.499V182.552H663.368H663.37H663.411H663.966L663.372 182.595L663.37 182.595L663.368 182.595L662.47 182.66C662.487 182.89 662.59 183.103 662.758 183.258C662.924 183.413 663.142 183.498 663.368 183.499L662.466 183.499ZM662.466 183.822H645.684M662.466 183.822H663.368V184.65M662.466 183.822V184.683H663.289L663.368 185.322V184.722V184.683M645.684 183.822H645.681V185.322L645.688 183.822C645.686 183.822 645.685 183.822 645.684 183.822ZM645.684 183.822C644.985 183.82 644.303 184.034 643.73 184.435L643.67 184.477L643.614 184.525L638.857 188.61C638.855 188.611 638.854 188.612 638.853 188.613C638.292 189.092 637.927 189.76 637.828 190.491L637.815 190.591V190.691V209.951C637.815 210.771 638.32 211.311 638.725 211.575C639.136 211.842 639.614 211.962 640.063 211.962H682.34C682.581 211.977 682.823 211.949 683.054 211.879C683.324 211.798 683.574 211.661 683.788 211.478C684.002 211.295 684.176 211.069 684.299 210.814C684.299 210.814 684.299 210.814 684.299 210.814L682.948 210.164M682.948 210.164C682.98 210.097 682.997 210.025 683 209.951V196.635C682.984 196.49 682.913 196.357 682.802 196.262C682.691 196.167 682.548 196.117 682.402 196.124M682.948 210.164C682.915 210.23 682.87 210.29 682.814 210.338C682.757 210.386 682.692 210.422 682.621 210.443C682.55 210.465 682.475 210.471 682.402 210.462L682.948 210.164ZM682.402 196.124V194.624H682.379C682.365 194.624 682.351 194.625 682.337 194.625L682.402 196.124ZM682.402 196.124H661.211C661.132 196.13 661.054 196.119 660.98 196.093C660.906 196.066 660.839 196.025 660.782 195.97C660.726 195.916 660.681 195.85 660.652 195.778C660.623 195.705 660.609 195.627 660.613 195.549V193.418M660.613 193.418L661.211 193.477V194.343H662.113M660.613 193.418H661.188L660.806 193.021C660.696 193.126 660.628 193.267 660.613 193.418ZM662.113 194.343V194.624M662.113 194.343V193.418H661.246L683.788 193.859C683.788 193.859 683.788 193.859 683.788 193.859C683.574 194.042 683.324 194.178 683.054 194.26L683.054 194.26C682.823 194.33 682.581 194.358 682.34 194.343H662.113ZM662.113 194.624H661.211H661.152L661.094 194.628C661.133 194.625 661.172 194.625 661.211 194.626C661.304 194.631 661.397 194.649 661.486 194.681C661.611 194.726 661.726 194.797 661.822 194.889C661.918 194.982 661.994 195.094 662.044 195.218L661.222 195.549L661.211 195.553L661.222 195.549L662.044 195.218C662.086 195.323 662.109 195.435 662.112 195.549C662.112 195.569 662.112 195.59 662.111 195.611L662.113 195.58V195.549V194.624ZM663.368 184.65L663.966 184.683H663.368M663.368 184.65V184.683M663.368 184.65L663.326 184.683H663.368M663.284 184.643L663.284 184.645L662.469 184.6C662.479 184.408 662.558 184.226 662.688 184.086C662.819 183.946 662.995 183.857 663.184 183.834L663.284 184.643Z" fill="#1A1623" stroke="white" stroke-width="3"/>
<path d="M390.196 145.992L390.12 145.984H390.045H359.668H359.59L359.511 145.993C358.922 146.054 358.373 146.323 357.963 146.752L359.047 147.789L357.963 146.752C357.553 147.18 357.308 147.741 357.273 148.334L357.271 148.378V148.422V180.839H348.543V167.98V167.918L348.538 167.856C348.487 167.24 348.212 166.666 347.766 166.24C347.319 165.814 346.733 165.567 346.118 165.543L346.089 165.542H346.061H326.13H326.116L326.101 165.543C325.474 165.555 324.874 165.801 324.42 166.235C323.966 166.668 323.691 167.257 323.651 167.884L323.647 167.932V167.98V209.716C323.647 210.347 323.883 210.988 324.411 211.457C324.921 211.908 325.554 212.069 326.13 212.069H381.46C382.4 212.114 383.331 211.849 384.106 211.312L384.207 211.241L384.296 211.155L391.474 204.188L391.484 204.179L391.493 204.169C391.828 203.831 392.088 203.427 392.255 202.981C392.415 202.553 392.486 202.098 392.463 201.642V148.422V148.363L392.458 148.304C392.412 147.714 392.159 147.16 391.746 146.737C391.332 146.315 390.783 146.052 390.196 145.992Z" fill="#1A1623" stroke="white" stroke-width="3"/>
<path d="M465.737 154.013L465.667 153.928L465.586 153.854L458.257 147.176C457.95 146.812 457.568 146.518 457.138 146.312C456.668 146.088 456.152 145.976 455.632 145.984H400.277H400.262L400.248 145.985C399.621 145.997 399.021 146.243 398.567 146.677C398.112 147.11 397.837 147.699 397.797 148.326L397.794 148.374V148.422V209.695C397.794 210.325 398.03 210.967 398.558 211.435C399.067 211.887 399.7 212.047 400.277 212.047H430.909H430.923L430.937 212.047C431.537 212.036 432.112 211.804 432.552 211.396C432.993 210.987 433.267 210.43 433.322 209.832L433.328 209.763V209.695V203.376H464.147C464.462 203.391 464.776 203.343 465.072 203.234C465.391 203.116 465.68 202.931 465.921 202.691C466.162 202.451 466.348 202.162 466.466 201.842L466.466 201.842C466.576 201.546 466.624 201.231 466.61 200.916V156.64C466.651 155.687 466.341 154.752 465.737 154.013ZM432.723 165.443L432.721 165.441L432.723 165.443Z" fill="#1A1623" stroke="white" stroke-width="3"/>
<path d="M387.764 156.646V153.177L385.236 155.553L366.246 173.406L363.488 175.999H367.273H386.264H387.764V174.499V156.646Z" fill="#F3D34F" stroke="white" stroke-width="3"/>
<path d="M424.46 181.515L427.222 178.922H423.433H404.442H402.942V180.422V198.254V201.72L405.469 199.348L424.46 181.515Z" fill="#F3D34F" stroke="white" stroke-width="3"/>
<path d="M424.933 152.811V151.311H423.433H404.464H402.964V152.811V178.334V179.834H404.464H423.433H424.933V178.334V152.811Z" fill="#E84118" stroke="white" stroke-width="3"/>
<path d="M387.913 176.566V175.066H386.413H367.422H365.922V176.566V206.563V208.063H367.422H380.432H381.042L381.479 207.637L387.461 201.799L387.913 201.358V200.726V176.566Z" fill="#E84118" stroke="white" stroke-width="3"/>
<path d="M166.983 186.554L167.866 189.011L169.544 187.01L227.734 117.641L229.145 115.959L227.064 115.256L132.453 83.2986L129.511 82.3048L130.562 85.2271L166.983 186.554Z" fill="#E84118" stroke="white" stroke-width="3"/>
<path d="M165.293 188.944V193.013L167.934 189.918L227.768 119.781L228.127 119.361V118.808V116.784V112.714L225.486 115.81L165.652 185.946L165.293 186.367V186.92V188.944Z" fill="#1A1623" stroke="white" stroke-width="3"/>
<path d="M270.968 73.3248L270.073 70.9512L268.424 72.8794L232.942 114.382L231.464 116.111L233.635 116.788L291.59 134.876L294.525 135.792L293.44 132.915L270.968 73.3248Z" fill="#E84118" stroke="white" stroke-width="3"/>
<path d="M234.947 113.545L232.988 112.916V114.973V116.976V118.069L234.029 118.404L291.578 136.896L293.537 137.526V135.468V133.444V132.35L292.495 132.016L234.947 113.545Z" fill="#1A1623" stroke="white" stroke-width="3"/>
<path d="M125.341 82.6901L126.799 81.0474L124.738 80.2871L70.4576 60.2604L69.5377 59.9209L68.8577 60.6274L2.82845 129.23L1.22824 130.892L3.39723 131.68L61.779 152.878L62.7365 153.226L63.4128 152.464L125.341 82.6901Z" fill="#1A1623" stroke="white" stroke-width="3"/>
<path d="M60.791 153.471V157.42L63.4127 154.467L125.341 84.7143L125.719 84.2882V83.7184V81.6944V77.7446L123.097 80.6987L61.1692 150.473L60.791 150.899V151.468V153.471Z" fill="#F3D34F" stroke="white" stroke-width="3"/>
<path d="M63.7909 151.468V150.417L62.8029 150.058L4.42113 128.86L2.40918 128.129V130.27V132.294V133.345L3.39769 133.704L61.7794 154.881L63.7909 155.611V153.471V151.468Z" fill="#F3D34F" stroke="white" stroke-width="3"/>
<path d="M267.582 71.935L269.025 70.2589L266.934 69.5385L167.773 35.3652L166.795 35.0281L166.132 35.8227L130.244 78.8589L128.85 80.5308L130.909 81.2382L229.258 115.028L230.22 115.358L230.883 114.588L267.582 71.935Z" fill="#1A1623" stroke="white" stroke-width="3"/>
<path d="M228.289 115.633V119.676L230.926 116.612L267.625 73.9589L267.988 73.5371V72.9806V70.9566V66.9135L265.351 69.9783L228.652 112.631L228.289 113.053V113.609V115.633Z" fill="#F3D34F" stroke="white" stroke-width="3"/>
<path d="M231.246 113.609V112.539L230.233 112.191L131.884 78.4009L129.896 77.7181V79.8195V81.8435V82.9142L130.909 83.2621L229.258 117.052L231.246 117.735V115.633V113.609Z" fill="#F3D34F" stroke="white" stroke-width="3"/>
<path d="M164.384 193.885L165.826 192.209L163.736 191.489L64.5956 157.315L63.6174 156.978L62.9548 157.773L27.067 200.809L25.6729 202.481L27.7315 203.188L126.06 236.978L127.021 237.308L127.684 236.538L164.384 193.885Z" fill="#1A1623" stroke="white" stroke-width="3"/>
<path d="M125.111 237.583V241.627L127.748 238.562L164.448 195.909L164.811 195.487V194.931V192.907V188.864L162.174 191.928L125.474 234.581L125.111 235.003V235.559V237.583Z" fill="#E84118" stroke="white" stroke-width="3"/>
<path d="M128.047 235.559V234.488L127.033 234.14L29.5169 200.734L27.5308 200.054V202.153V204.177V205.249L28.5446 205.596L126.061 239.002L128.047 239.683V237.583V235.559Z" fill="#F3D34F" stroke="white" stroke-width="3"/>
<path d="M66.5664 153.421L65.0942 155.104L67.2104 155.828L161.822 188.169L164.689 189.149L163.73 186.275L129.786 84.5644L128.957 82.0813L127.234 84.0518L66.5664 153.421Z" fill="#F3D34F" stroke="white" stroke-width="3"/>
<path d="M66.1956 156.432V157.505L67.2104 157.852L161.822 190.193L163.807 190.872V188.774V186.75V185.677L162.792 185.33L68.1807 152.989L66.1956 152.311V154.409V156.432Z" fill="#E84118" stroke="white" stroke-width="3"/>
<path d="M20.3896 200.354L21.236 202.855L22.9507 200.848L60.2911 157.151L61.7143 155.486L59.6469 154.761L0.496102 134.031L-2.4073 133.014L-1.42079 135.928L20.3896 200.354Z" fill="#F3D34F" stroke="white" stroke-width="3"/>
<path d="M20.3535 201.595L20.4528 205.507L22.9939 202.53L60.3129 158.812L60.6792 158.383L60.6719 157.819L60.6506 156.158L60.5993 152.173L58.0103 155.202L20.67 198.899L20.2962 199.336L20.3108 199.912L20.3535 201.595Z" fill="#E84118" stroke="white" stroke-width="3"/>
<path d="M1.48509 135.01L-1.43604 135.49V137.151V137.398L-1.35692 137.632L20.4321 202.037L23.3525 201.519L23.3098 199.835L23.304 199.608L23.2314 199.393L1.48509 135.01Z" fill="#E84118" stroke="white" stroke-width="3"/>
<path d="M290.339 138.421L291.794 136.709L289.655 136.022L232.106 117.529L231.151 117.222L230.502 117.988L169.813 189.679L168.403 191.346L170.464 192.065L226.774 211.708L227.745 212.047L228.411 211.263L290.339 138.421Z" fill="#1A1623" stroke="white" stroke-width="3"/>
<path d="M226.125 209.32L225.768 209.74V210.292V211.932V216.013L228.411 212.904L290.339 140.04L290.696 139.62V139.069V137.45V133.37L288.053 136.478L226.125 209.32Z" fill="#F3D34F" stroke="white" stroke-width="3"/>
<path d="M171.452 189.232L169.458 188.536V190.648V192.289V193.354L170.464 193.705L226.774 213.348L228.768 214.044V211.932V210.292V209.226L227.762 208.875L171.452 189.232Z" fill="#F3D34F" stroke="white" stroke-width="3"/>
<path d="M125.842 41.0743H126.458L126.896 40.6421L166.864 1.20642L169.466 -1.36133H165.81H164.357H163.742L163.304 -0.928792L123.357 38.5068L120.756 41.0743H124.411H125.842Z" fill="#1A1623" stroke="white" stroke-width="3"/>
<path d="M167.31 0.138672V-3.4486L164.756 -0.929074L124.789 38.5066L124.478 38.8129L124.38 39.238L121.582 51.4032L121.518 51.6821L121.561 51.965L125.662 78.9372L126.147 82.1275L128.274 79.7L166.938 35.5559L167.31 35.1317V34.5676V0.138672Z" fill="#E84118" stroke="white" stroke-width="3"/>
<path d="M127.145 80.2117H128.891L128.628 78.4862L124.527 51.514L124.333 50.2395H123.044H121.613H119.867L120.13 51.965L124.231 78.9372L124.425 80.2117H125.714H127.145Z" fill="#1A1623" stroke="white" stroke-width="3"/>
<path d="M123.044 53.2395H124.238L124.506 52.0758L127.304 39.9106L127.726 38.0743H125.842H124.411H123.217L122.949 39.238L120.151 51.4032L119.728 53.2395H121.613H123.044Z" fill="#1A1623" stroke="white" stroke-width="3"/>
<path d="M157.869 164.736L156.96 164.505L156.354 165.222L126.79 200.227L126.36 200.735L126.449 201.394L131.554 239.339L132 242.651L134.178 240.116L171.797 196.356L172.237 195.844L172.145 195.174L168.471 168.394L168.334 167.392L167.354 167.144L157.869 164.736Z" fill="#F3D34F" stroke="white" stroke-width="3"/>
<path d="M132.736 240.607L134.81 241.038L134.528 238.939L129.422 200.994L129.242 199.657L127.894 199.695L126.377 199.738L124.709 199.784L124.932 201.438L130.017 239.02L130.159 240.072L131.198 240.288L132.736 240.607Z" fill="#E84118" stroke="white" stroke-width="3"/>
<path d="M127.978 202.694L128.649 202.675L129.082 202.162L158.646 167.158L160.809 164.598L157.459 164.691L155.921 164.733L155.249 164.752L154.816 165.265L125.273 200.27L123.111 202.831L126.461 202.736L127.978 202.694Z" fill="#E84118" stroke="white" stroke-width="3"/>
<path d="M169.513 181.738L169.094 179.144L167.073 180.824C166.804 181.047 166.578 181.318 166.406 181.622L166.388 181.653L166.373 181.684L166.373 181.684L166.373 181.684L166.372 181.685L166.371 181.686L166.364 181.701C166.357 181.715 166.345 181.737 166.329 181.767C166.298 181.828 166.249 181.92 166.183 182.04C166.052 182.281 165.854 182.634 165.593 183.071C165.071 183.947 164.301 185.154 163.314 186.471C161.328 189.124 158.558 192.097 155.272 193.79C154.931 193.946 154.625 194.169 154.373 194.446C154.107 194.739 153.907 195.086 153.787 195.463C153.667 195.84 153.63 196.238 153.678 196.631C153.726 197.024 153.858 197.402 154.065 197.739L154.07 197.749L154.076 197.758C154.359 198.205 154.756 198.567 155.226 198.809C155.686 199.046 156.201 199.158 156.718 199.136C157.177 199.125 157.628 199.01 158.037 198.8L158.061 198.788L158.084 198.775C162.995 196.023 167.113 192.055 170.039 187.253L170.327 186.78L170.239 186.233L169.513 181.738Z" fill="#1A1623" stroke="white" stroke-width="3"/>
<path d="M142.33 202.695L142.329 202.659L142.201 197.525L142.201 197.517L142.201 197.517C142.194 197.161 142.26 196.808 142.394 196.479L143.783 197.047L142.394 196.479C142.529 196.149 142.73 195.851 142.984 195.603C143.238 195.354 143.54 195.16 143.872 195.032C144.192 194.909 144.534 194.849 144.877 194.858H147.693C148.367 194.84 149.024 195.08 149.528 195.529C150.042 195.987 150.358 196.626 150.409 197.313L150.412 197.349L150.412 197.386L150.54 202.491C150.552 202.842 150.494 203.191 150.368 203.518L148.968 202.982L150.368 203.518C150.242 203.849 150.05 204.15 149.804 204.405C149.558 204.66 149.263 204.862 148.937 205C148.612 205.138 148.262 205.209 147.908 205.208M142.33 202.695L145.046 203.708M142.33 202.695L142.333 202.73C142.383 203.423 142.701 204.068 143.219 204.53C143.727 204.984 144.39 205.226 145.07 205.208M142.33 202.695L145.046 203.708M147.908 205.208L147.909 203.708V205.208H147.908ZM147.908 205.208H145.07M145.07 205.208C145.081 205.208 145.093 205.208 145.105 205.207L145.046 203.708M145.07 205.208H145.046V203.708" fill="#1A1623" stroke="white" stroke-width="3"/>
<path d="M135.323 64.5948C138.22 62.1459 141.124 59.212 142.785 56.2263C143.054 55.7555 143.179 55.2169 143.147 54.6757L143.147 54.6652L143.146 54.6547C143.101 54.0503 142.878 53.4731 142.504 52.9962C142.146 52.5392 141.666 52.1942 141.12 52.0003C140.424 51.7116 139.647 51.6784 138.928 51.908C138.188 52.1442 137.559 52.6422 137.161 53.3093C134.278 58.0439 130.193 61.9356 125.317 64.5899L124.393 65.0932L124.552 66.1338L125.043 69.3509L125.384 71.5843L127.31 70.4031C129.361 69.1451 132.399 67.0669 135.323 64.5948Z" fill="#1A1623" stroke="white" stroke-width="3"/>
<path d="M149.41 45.6341L149.41 45.6341L149.409 45.6291L148.384 39.5998L148.379 39.5735L148.374 39.5475C148.228 38.8398 147.811 38.2178 147.214 37.8122C146.623 37.4106 145.9 37.2521 145.196 37.3684L142.091 37.8319C141.742 37.8755 141.404 37.9857 141.097 38.157C140.78 38.3334 140.501 38.571 140.277 38.8562L141.456 39.7837L140.277 38.8562C140.052 39.1414 139.887 39.4685 139.79 39.8186C139.693 40.1686 139.667 40.5343 139.714 40.8945L139.718 40.9248L139.723 40.955L140.748 46.9843L140.752 47.0082L140.757 47.032C140.902 47.7456 141.32 48.3736 141.92 48.7842C142.515 49.1913 143.244 49.3532 143.955 49.2372L147.061 48.7737C147.415 48.7303 147.758 48.6174 148.069 48.4414C148.39 48.2597 148.671 48.0144 148.894 47.7202C149.118 47.4261 149.279 47.0894 149.368 46.7306C149.456 46.3718 149.471 45.9987 149.41 45.6341Z" fill="#1A1623" stroke="white" stroke-width="3"/>
<path d="M381.03 69.7636C381.319 69.7608 381.605 69.8225 381.868 69.9441C382.13 70.0657 382.362 70.2443 382.547 70.4666L389.959 77.2203C390.336 77.6816 390.526 78.2667 390.493 78.8608V123.218C390.502 123.342 390.485 123.466 390.443 123.582C390.4 123.699 390.333 123.805 390.246 123.894C390.159 123.982 390.054 124.051 389.939 124.097C389.823 124.142 389.699 124.162 389.575 124.155H358.173C357.932 124.149 357.697 124.232 357.515 124.39C357.333 124.548 357.217 124.768 357.19 125.008V131.974C357.17 132.201 357.067 132.412 356.902 132.569C356.737 132.725 356.521 132.817 356.293 132.826H325.66C325.538 132.841 325.415 132.831 325.297 132.795C325.18 132.759 325.071 132.699 324.978 132.619C324.886 132.538 324.811 132.439 324.759 132.328C324.707 132.217 324.68 132.097 324.677 131.974V70.6797C324.699 70.4328 324.811 70.2025 324.992 70.0333C325.174 69.864 325.412 69.768 325.66 69.7636H381.03ZM357.19 96.0114C357.186 96.1382 357.21 96.2643 357.259 96.3814C357.308 96.4985 357.381 96.6038 357.474 96.6905C357.567 96.7771 357.677 96.8431 357.798 96.8839C357.918 96.9248 358.046 96.9396 358.173 96.9275H367.786C367.913 96.9433 368.042 96.931 368.164 96.8915C368.286 96.852 368.398 96.7862 368.492 96.6988C368.586 96.6114 368.659 96.5045 368.707 96.3858C368.754 96.267 368.775 96.1392 368.768 96.0114V87.745C368.775 87.6173 368.754 87.4895 368.707 87.3707C368.659 87.2519 368.586 87.145 368.492 87.0576C368.398 86.9702 368.286 86.9044 368.164 86.8649C368.042 86.8254 367.913 86.8131 367.786 86.8289H358.173C358.046 86.8168 357.918 86.8316 357.798 86.8725C357.677 86.9134 357.567 86.9793 357.474 87.0659C357.381 87.1526 357.308 87.2579 357.259 87.375C357.21 87.4921 357.186 87.6182 357.19 87.745V96.0114Z" fill="#1A1623"/>
<path d="M463.551 69.7635C463.821 69.78 464.074 69.9001 464.257 70.0987C464.44 70.2973 464.539 70.559 464.533 70.8288L460.902 118.254C460.911 118.377 460.894 118.5 460.852 118.615C460.809 118.731 460.741 118.836 460.654 118.923C460.567 119.01 460.462 119.077 460.346 119.12C460.23 119.162 460.106 119.18 459.983 119.17H448.79C448.673 119.161 448.556 119.176 448.446 119.216C448.336 119.255 448.235 119.316 448.151 119.397C448.066 119.477 447.999 119.574 447.955 119.682C447.91 119.79 447.889 119.906 447.893 120.022V131.974C447.893 132.464 447.273 132.826 446.91 132.826H413.799C413.677 132.841 413.554 132.831 413.436 132.795C413.319 132.759 413.21 132.699 413.118 132.619C413.025 132.538 412.95 132.439 412.898 132.328C412.846 132.217 412.819 132.097 412.817 131.974V120.022C412.817 119.905 412.793 119.788 412.746 119.681C412.699 119.573 412.63 119.476 412.544 119.396C412.458 119.316 412.356 119.254 412.245 119.216C412.133 119.177 412.015 119.161 411.898 119.17H401.602C401.355 119.161 401.119 119.063 400.939 118.895C400.758 118.727 400.644 118.499 400.619 118.254L397.329 70.8288C397.294 70.709 397.286 70.5827 397.306 70.4593C397.326 70.336 397.374 70.2188 397.446 70.1164C397.517 70.014 397.611 69.9291 397.721 69.868C397.83 69.8069 397.952 69.7712 398.077 69.7635H428.731C429.001 69.78 429.254 69.9001 429.438 70.0987C429.621 70.2973 429.72 70.559 429.714 70.8288L431.38 93.2204C431.412 93.4916 431.548 93.7401 431.758 93.9146C431.969 94.089 432.239 94.1761 432.512 94.1578H439.925C440.197 94.171 440.464 94.0821 440.673 93.9086C440.883 93.735 441.02 93.4895 441.057 93.2204L442.723 70.8288C442.717 70.559 442.816 70.2973 442.999 70.0987C443.182 69.9001 443.436 69.78 443.706 69.7635H463.551Z" fill="#1A1623"/>
<path d="M536.373 102.403C536.489 102.397 536.604 102.415 536.713 102.455C536.822 102.495 536.921 102.557 537.005 102.637C537.089 102.717 537.156 102.813 537.201 102.919C537.247 103.025 537.27 103.139 537.27 103.255V131.974C537.27 132.09 537.247 132.204 537.201 132.311C537.156 132.417 537.089 132.513 537.005 132.592C536.921 132.672 536.822 132.734 536.713 132.774C536.604 132.814 536.489 132.832 536.373 132.826H480.832C480.288 132.821 479.759 132.65 479.315 132.336L472.095 125.37C471.724 124.985 471.51 124.476 471.497 123.942V70.6797C471.523 70.4345 471.636 70.2068 471.817 70.0385C471.997 69.8701 472.233 69.7725 472.48 69.7635H527.849C528.425 69.8005 528.967 70.0513 529.366 70.4666L536.779 77.2203C537.156 77.6816 537.346 78.2667 537.313 78.8608V91.3029C537.292 91.5293 537.19 91.7406 537.025 91.8974C536.86 92.0541 536.643 92.1457 536.416 92.1551H516.506C516.287 92.1237 516.082 92.0248 515.921 91.8721C515.76 91.7193 515.651 91.5204 515.609 91.3029V86.6798C515.616 86.552 515.595 86.4242 515.548 86.3054C515.5 86.1866 515.427 86.0797 515.333 85.9923C515.239 85.9049 515.127 85.8391 515.005 85.7996C514.883 85.7601 514.754 85.7478 514.627 85.7636H505.014C504.886 85.7478 504.757 85.7601 504.635 85.7996C504.513 85.8391 504.401 85.9049 504.307 85.9923C504.214 86.0797 504.14 86.1866 504.093 86.3054C504.045 86.4242 504.024 86.552 504.031 86.6798V108.155C504.024 108.283 504.045 108.411 504.093 108.53C504.14 108.648 504.214 108.755 504.307 108.843C504.401 108.93 504.513 108.996 504.635 109.035C504.757 109.075 504.886 109.087 505.014 109.071H514.627C514.754 109.087 514.883 109.075 515.005 109.035C515.127 108.996 515.239 108.93 515.333 108.843C515.427 108.755 515.5 108.648 515.548 108.53C515.595 108.411 515.616 108.283 515.609 108.155V103.17C515.63 102.943 515.732 102.732 515.897 102.575C516.062 102.419 516.279 102.327 516.506 102.318L536.373 102.403Z" fill="#1A1623"/>
<path d="M609.387 77.2203C609.82 77.6639 610.085 78.2439 610.135 78.8608V131.974C610.135 132.464 609.537 132.826 609.152 132.826H553.783C553.161 132.856 552.547 132.684 552.031 132.336L544.853 125.37C544.419 125.014 544.142 124.501 544.084 123.942V70.6797C544.11 70.4345 544.224 70.2068 544.404 70.0385C544.585 69.8701 544.82 69.7725 545.067 69.7635H600.458C601.095 69.8091 601.701 70.0553 602.189 70.4666L609.387 77.2203ZM587.214 104.533C587.812 104.533 588.346 104.171 588.346 103.681V86.6371C588.336 86.5015 588.298 86.3693 588.234 86.2488C588.171 86.1283 588.084 86.0219 587.978 85.9362C587.872 85.8505 587.749 85.7872 587.618 85.7502C587.487 85.7132 587.349 85.7033 587.214 85.721H577.601C577.474 85.7052 577.344 85.7175 577.222 85.757C577.1 85.7965 576.989 85.8623 576.895 85.9497C576.801 86.0371 576.728 86.144 576.68 86.2628C576.632 86.3816 576.611 86.5094 576.618 86.6371V103.681C576.621 103.804 576.648 103.924 576.7 104.035C576.752 104.146 576.827 104.245 576.92 104.326C577.012 104.406 577.121 104.466 577.238 104.502C577.356 104.538 577.479 104.548 577.601 104.533H587.214Z" fill="#1A1623"/>
<path d="M681.783 69.7635C682.053 69.78 682.306 69.9001 682.489 70.0987C682.672 70.2973 682.771 70.559 682.765 70.8288V131.974C682.763 132.097 682.735 132.217 682.683 132.328C682.632 132.439 682.557 132.538 682.464 132.619C682.372 132.699 682.263 132.759 682.146 132.795C682.028 132.831 681.904 132.841 681.783 132.826H661.959C661.385 132.78 660.848 132.531 660.442 132.123L650.018 115.761C649.868 115.271 649.249 115.399 649.249 115.974V131.974C649.252 132.091 649.231 132.207 649.186 132.314C649.142 132.422 649.075 132.519 648.99 132.6C648.906 132.68 648.805 132.742 648.695 132.781C648.585 132.82 648.468 132.835 648.351 132.826H617.868C617.751 132.835 617.633 132.82 617.521 132.781C617.41 132.742 617.308 132.681 617.222 132.601C617.136 132.521 617.067 132.424 617.02 132.316C616.973 132.208 616.949 132.092 616.95 131.974V70.8288C616.942 70.5691 617.032 70.316 617.202 70.119C617.372 69.922 617.61 69.7953 617.868 69.7635H648.501C648.809 69.7818 649.109 69.8748 649.373 70.0345C649.637 70.1941 649.859 70.4155 650.018 70.6797L660.229 87.0419C660.276 87.1153 660.345 87.1715 660.427 87.2023C660.509 87.2331 660.598 87.2368 660.682 87.2129C660.766 87.189 660.84 87.1387 660.893 87.0695C660.946 87.0003 660.975 86.916 660.976 86.8289V70.8288C660.97 70.559 661.069 70.2973 661.252 70.0987C661.436 69.9001 661.689 69.78 661.959 69.7635H681.783Z" fill="#1A1623"/>
<path d="M533.681 192.331C533.679 192.405 533.661 192.478 533.629 192.545C533.597 192.611 533.551 192.67 533.495 192.718C533.439 192.767 533.373 192.802 533.302 192.824C533.231 192.845 533.157 192.852 533.083 192.843H511.892C511.739 192.848 511.593 192.909 511.482 193.016C511.372 193.122 511.305 193.265 511.294 193.418V195.549C511.287 195.628 511.298 195.707 511.326 195.782C511.354 195.856 511.398 195.923 511.456 195.979C511.513 196.034 511.582 196.075 511.657 196.101C511.733 196.126 511.813 196.134 511.892 196.124H533.083C533.228 196.122 533.369 196.173 533.479 196.267C533.589 196.361 533.661 196.492 533.681 196.635V209.951C533.679 210.025 533.661 210.097 533.629 210.164C533.597 210.23 533.551 210.29 533.495 210.338C533.439 210.386 533.373 210.422 533.302 210.443C533.231 210.465 533.157 210.471 533.083 210.462H490.744C490.338 210.462 489.997 210.249 489.997 209.951V190.691C490.046 190.331 490.219 189.999 490.488 189.754L495.252 185.663C495.578 185.439 495.966 185.32 496.362 185.322H514.05C514.207 185.299 514.352 185.223 514.461 185.107C514.569 184.991 514.635 184.841 514.648 184.683V182.552C514.633 182.404 514.563 182.265 514.453 182.163C514.343 182.061 514.2 182.003 514.05 181.999H490.744C490.59 182.011 490.436 181.966 490.313 181.871C490.191 181.777 490.108 181.64 490.082 181.487V172.965C490.108 172.809 490.188 172.667 490.31 172.566C490.432 172.464 490.586 172.409 490.744 172.411H533.083C533.232 172.42 533.373 172.48 533.482 172.581C533.591 172.682 533.662 172.818 533.681 172.965V192.331Z" fill="#1A1623"/>
<path d="M582.194 172.433C582.342 172.441 582.483 172.501 582.593 172.602C582.702 172.703 582.772 172.839 582.792 172.986V205.178C582.8 205.342 582.771 205.505 582.708 205.656C582.646 205.807 582.55 205.942 582.429 206.052L577.686 210.313C577.338 210.519 576.938 210.623 576.533 210.611H539.855C539.449 210.611 539.192 210.398 539.192 210.1V177.929C539.229 177.548 539.413 177.197 539.705 176.949L544.469 172.859C544.798 172.598 545.202 172.449 545.622 172.433H582.194ZM554.231 182.744C554.153 182.738 554.074 182.749 554 182.775C553.926 182.802 553.859 182.843 553.802 182.898C553.746 182.952 553.701 183.018 553.672 183.09C553.643 183.163 553.63 183.241 553.633 183.319V192.971C553.636 193.045 553.653 193.119 553.685 193.186C553.717 193.254 553.762 193.314 553.818 193.364C553.874 193.414 553.939 193.452 554.01 193.476C554.081 193.5 554.156 193.509 554.231 193.503H560.746C561.003 193.503 561.387 193.29 561.387 192.971V183.362C561.371 183.204 561.297 183.057 561.178 182.951C561.06 182.845 560.906 182.786 560.746 182.787L554.231 182.744Z" fill="#1A1623"/>
<path d="M632.906 192.331C632.901 192.406 632.881 192.479 632.846 192.546C632.812 192.613 632.764 192.672 632.706 192.719C632.649 192.767 632.581 192.803 632.509 192.824C632.437 192.845 632.362 192.852 632.287 192.843H611.096C610.944 192.852 610.8 192.915 610.691 193.021C610.581 193.126 610.513 193.267 610.498 193.418V195.549C610.495 195.627 610.508 195.705 610.537 195.778C610.566 195.85 610.611 195.916 610.667 195.97C610.724 196.025 610.791 196.066 610.865 196.093C610.939 196.119 611.018 196.13 611.096 196.124H632.308C632.456 196.122 632.599 196.172 632.712 196.266C632.826 196.359 632.902 196.49 632.928 196.635V209.951C632.922 210.026 632.902 210.099 632.868 210.165C632.833 210.232 632.786 210.291 632.728 210.339C632.67 210.387 632.603 210.422 632.531 210.443C632.459 210.465 632.383 210.471 632.308 210.462H589.969C589.563 210.462 589.2 210.249 589.2 209.951V190.691C589.249 190.326 589.432 189.992 589.713 189.754L594.477 185.663C594.795 185.439 595.176 185.32 595.566 185.322H613.254C613.413 185.302 613.56 185.228 613.669 185.111C613.778 184.994 613.843 184.843 613.852 184.683V182.552C613.841 182.402 613.773 182.261 613.662 182.158C613.551 182.055 613.405 181.998 613.254 181.999H589.969C589.815 182.011 589.661 181.966 589.538 181.871C589.416 181.777 589.333 181.64 589.307 181.487V172.965C589.333 172.809 589.413 172.667 589.535 172.566C589.657 172.464 589.811 172.409 589.969 172.411H632.308C632.461 172.415 632.607 172.473 632.72 172.574C632.834 172.676 632.907 172.814 632.928 172.965L632.906 192.331Z" fill="#1A1623"/>
<path d="M683 192.331C682.997 192.405 682.98 192.478 682.948 192.545C682.915 192.611 682.87 192.67 682.814 192.718C682.757 192.767 682.692 192.802 682.621 192.824C682.55 192.845 682.475 192.852 682.402 192.843H661.211C661.059 192.852 660.915 192.915 660.806 193.021C660.696 193.126 660.628 193.267 660.613 193.418V195.549C660.609 195.627 660.623 195.705 660.652 195.778C660.681 195.85 660.726 195.916 660.782 195.97C660.839 196.025 660.906 196.066 660.98 196.093C661.054 196.119 661.132 196.13 661.211 196.124H682.402C682.548 196.117 682.691 196.167 682.802 196.262C682.913 196.357 682.984 196.49 683 196.635V209.951C682.997 210.025 682.98 210.097 682.948 210.164C682.915 210.23 682.87 210.29 682.814 210.338C682.757 210.386 682.692 210.422 682.621 210.443C682.55 210.465 682.475 210.471 682.402 210.462H640.063C639.678 210.462 639.315 210.249 639.315 209.951V190.691C639.364 190.326 639.547 189.992 639.828 189.754L644.591 185.663C644.91 185.439 645.291 185.32 645.681 185.322H663.368C663.527 185.302 663.674 185.228 663.784 185.111C663.893 184.994 663.958 184.843 663.966 184.683V182.552C663.956 182.402 663.888 182.261 663.777 182.158C663.666 182.055 663.52 181.998 663.368 181.999H640.063C639.912 182.006 639.763 181.958 639.645 181.864C639.527 181.77 639.448 181.636 639.422 181.487V172.965C639.443 172.811 639.519 172.669 639.637 172.567C639.755 172.465 639.906 172.41 640.063 172.411H682.402C682.552 172.416 682.695 172.474 682.805 172.576C682.915 172.678 682.984 172.816 683 172.965V192.331Z" fill="#1A1623"/>
<path d="M390.045 147.484C390.283 147.509 390.506 147.616 390.674 147.787C390.842 147.958 390.944 148.183 390.963 148.422V201.684C390.981 201.946 390.942 202.209 390.85 202.455C390.758 202.701 390.614 202.925 390.429 203.112L383.251 210.079C382.739 210.433 382.122 210.606 381.5 210.569H326.13C325.511 210.569 325.147 210.228 325.147 209.716V167.98C325.163 167.729 325.273 167.494 325.455 167.32C325.637 167.146 325.878 167.047 326.13 167.042H346.061C346.311 167.052 346.549 167.153 346.73 167.325C346.911 167.498 347.023 167.731 347.043 167.98V181.487C347.04 181.604 347.061 181.72 347.106 181.827C347.15 181.935 347.217 182.032 347.301 182.113C347.386 182.193 347.487 182.255 347.597 182.294C347.707 182.333 347.824 182.348 347.94 182.339H357.788C358.151 182.339 358.771 181.977 358.771 181.487V148.422C358.785 148.185 358.883 147.961 359.047 147.789C359.211 147.617 359.431 147.509 359.668 147.484H390.045Z" fill="#1A1623"/>
<path d="M455.646 147.484C455.938 147.478 456.228 147.54 456.492 147.666C456.755 147.792 456.985 147.978 457.163 148.209L464.576 154.962C464.952 155.424 465.143 156.009 465.11 156.603V200.96C465.119 201.083 465.102 201.206 465.059 201.322C465.017 201.437 464.949 201.542 464.862 201.629C464.775 201.716 464.669 201.783 464.554 201.826C464.438 201.869 464.314 201.886 464.191 201.876H432.811C432.569 201.869 432.335 201.953 432.153 202.111C431.971 202.269 431.855 202.489 431.828 202.728V209.695C431.807 209.925 431.702 210.139 431.532 210.296C431.363 210.454 431.141 210.543 430.909 210.547H400.277C399.657 210.547 399.294 210.206 399.294 209.695V148.422C399.31 148.171 399.42 147.936 399.602 147.762C399.784 147.588 400.025 147.489 400.277 147.484H455.646ZM431.828 173.796C431.821 173.925 431.842 174.053 431.89 174.173C431.938 174.293 432.01 174.401 432.104 174.49C432.197 174.579 432.308 174.646 432.43 174.688C432.552 174.731 432.682 174.746 432.811 174.734H442.402C442.531 174.746 442.66 174.731 442.782 174.688C442.904 174.646 443.016 174.579 443.109 174.49C443.202 174.401 443.275 174.293 443.323 174.173C443.37 174.053 443.391 173.925 443.385 173.796V165.487C443.391 165.359 443.37 165.23 443.323 165.11C443.275 164.991 443.202 164.883 443.109 164.794C443.016 164.705 442.904 164.637 442.782 164.595C442.66 164.553 442.531 164.537 442.402 164.55H432.811C432.682 164.537 432.552 164.553 432.43 164.595C432.308 164.637 432.197 164.705 432.104 164.794C432.01 164.883 431.938 164.991 431.89 165.11C431.842 165.23 431.821 165.359 431.828 165.487V173.796Z" fill="#1A1623"/>
<path d="M386.264 156.646V174.499H367.273L386.264 156.646Z" fill="#F3D34F"/>
<path d="M423.433 180.422H404.442V198.254L423.433 180.422Z" fill="#F3D34F"/>
<path d="M423.433 152.811H404.464V178.334H423.433V152.811Z" fill="#E84118"/>
<path d="M386.413 176.566V200.726L380.432 206.563H367.422V176.566H386.413Z" fill="#E84118"/>
<path d="M168.395 186.046L226.584 116.677L131.973 84.7197L168.395 186.046Z" fill="#E84118"/>
<path d="M166.793 188.944L226.627 118.808V116.784L166.793 186.92V188.944Z" fill="#1A1623"/>
<path d="M269.564 73.8541L234.082 115.356L292.037 133.444L269.564 73.8541Z" fill="#E84118"/>
<path d="M234.488 114.973V116.976L292.037 135.468V133.444L234.488 114.973Z" fill="#1A1623"/>
<path d="M124.219 81.6944L69.9384 61.6676L3.90918 130.27L62.2909 151.468L124.219 81.6944Z" fill="#1A1623"/>
<path d="M62.291 153.471L124.219 83.7184V81.6944L62.291 151.468V153.471Z" fill="#F3D34F"/>
<path d="M62.2909 151.468L3.90918 130.27V132.294L62.2909 153.471V151.468Z" fill="#F3D34F"/>
<path d="M266.445 70.9566L167.284 36.7834L131.396 79.8195L229.746 113.609L266.445 70.9566Z" fill="#1A1623"/>
<path d="M229.789 115.633L266.488 72.9806V70.9566L229.789 113.609V115.633Z" fill="#F3D34F"/>
<path d="M229.746 113.609L131.396 79.8195V81.8435L229.746 115.633V113.609Z" fill="#F3D34F"/>
<path d="M163.247 192.907L64.1068 158.733L28.219 201.77L126.547 235.559L163.247 192.907Z" fill="#1A1623"/>
<path d="M126.611 237.583L163.311 194.931V192.907L126.611 235.559V237.583Z" fill="#E84118"/>
<path d="M126.547 235.559L29.0308 202.153V204.177L126.547 237.583V235.559Z" fill="#F3D34F"/>
<path d="M67.6956 154.409L162.307 186.75L128.363 85.0393L67.6956 154.409Z" fill="#F3D34F"/>
<path d="M67.6956 156.432L162.307 188.774V186.75L67.6956 154.409V156.432Z" fill="#E84118"/>
<path d="M21.8104 199.873L59.1507 156.177L0 135.447L21.8104 199.873Z" fill="#F3D34F"/>
<path d="M21.853 201.557L59.172 157.839L59.1507 156.177L21.8103 199.873L21.853 201.557Z" fill="#E84118"/>
<path d="M0.0639648 135.49V137.151L21.853 201.557L21.8103 199.873L0.0639648 135.49Z" fill="#E84118"/>
<path d="M289.196 137.45L231.647 118.957L170.958 190.648L227.268 210.292L289.196 137.45Z" fill="#1A1623"/>
<path d="M227.268 210.292V211.932L289.196 139.069V137.45L227.268 210.292Z" fill="#F3D34F"/>
<path d="M170.958 190.648V192.289L227.268 211.932V210.292L170.958 190.648Z" fill="#F3D34F"/>
<path d="M125.842 39.5743H124.411L164.357 0.138672H165.81L125.842 39.5743Z" fill="#1A1623"/>
<path d="M165.81 0.138672V34.5676L127.145 78.7117L123.044 51.7395L125.842 39.5743L165.81 0.138672Z" fill="#E84118"/>
<path d="M127.145 78.7117H125.714L121.613 51.7395H123.044L127.145 78.7117Z" fill="#1A1623"/>
<path d="M123.044 51.7395H121.613L124.411 39.5743H125.842L123.044 51.7395Z" fill="#1A1623"/>
<path d="M157.5 166.19L166.985 168.598L170.659 195.378L133.041 239.139L127.936 201.194L157.5 166.19Z" fill="#F3D34F"/>
<path d="M133.041 239.139L131.503 238.819L126.419 201.237L127.936 201.194L133.041 239.139Z" fill="#E84118"/>
<path d="M127.936 201.194L126.419 201.237L155.962 166.233L157.5 166.19L127.936 201.194Z" fill="#E84118"/>
<path d="M168.032 181.977C167.903 182.085 167.794 182.215 167.711 182.361C167.711 182.361 163.119 191.458 155.92 195.144C155.754 195.215 155.605 195.321 155.484 195.455C155.362 195.588 155.271 195.746 155.217 195.918C155.162 196.09 155.145 196.271 155.167 196.45C155.188 196.629 155.249 196.801 155.343 196.955C155.483 197.175 155.68 197.355 155.912 197.475C156.145 197.595 156.406 197.65 156.667 197.636C156.905 197.633 157.139 197.575 157.351 197.466C162.037 194.84 165.966 191.054 168.758 186.473L168.032 181.977Z" fill="#1A1623"/>
<path d="M147.909 203.708H145.046C144.742 203.72 144.444 203.613 144.217 203.411C143.99 203.208 143.851 202.925 143.829 202.622L143.701 197.487C143.698 197.336 143.726 197.186 143.783 197.047C143.84 196.907 143.925 196.78 144.033 196.675C144.141 196.569 144.27 196.486 144.411 196.432C144.552 196.377 144.703 196.352 144.854 196.358H147.717C148.016 196.346 148.308 196.451 148.531 196.65C148.754 196.848 148.891 197.126 148.913 197.423L149.041 202.537C149.047 202.688 149.022 202.84 148.968 202.982C148.913 203.124 148.831 203.253 148.725 203.363C148.619 203.472 148.493 203.559 148.352 203.619C148.212 203.678 148.061 203.708 147.909 203.708Z" fill="#1A1623"/>
<path d="M140.582 53.4013C140.204 53.2342 139.777 53.2114 139.384 53.337C138.99 53.4627 138.656 53.7282 138.446 54.0831C135.426 59.0465 131.144 63.1257 126.034 65.9074L126.526 69.1244C130.52 66.6743 138.424 60.9859 141.479 55.4892C141.606 55.2695 141.665 55.0177 141.65 54.7648C141.627 54.4576 141.514 54.164 141.324 53.9212C141.133 53.6785 140.875 53.4975 140.582 53.4013Z" fill="#1A1623"/>
<path d="M143.722 47.7554L146.862 47.2867C147.027 47.2687 147.186 47.2174 147.33 47.1359C147.474 47.0544 147.6 46.9445 147.7 46.8129C147.8 46.6813 147.872 46.5308 147.911 46.3705C147.951 46.2102 147.958 46.0435 147.93 45.8806L146.905 39.8513C146.838 39.5261 146.646 39.2399 146.371 39.053C146.096 38.8661 145.759 38.7933 145.431 38.8499L142.291 39.3186C142.128 39.3371 141.97 39.3877 141.826 39.4675C141.683 39.5474 141.557 39.6548 141.456 39.7837C141.354 39.9126 141.28 40.0602 141.236 40.2181C141.192 40.376 141.181 40.541 141.201 40.7035L142.227 46.7328C142.294 47.0635 142.488 47.3552 142.767 47.546C143.046 47.7369 143.389 47.812 143.722 47.7554Z" fill="#1A1623"/>
</g>
<defs>
<clipPath id="clip0_44_22654">
<rect width="683" height="239" fill="white" transform="translate(0 0.138672)"/>
</clipPath>
</defs>
</svg>
