<svg width="150" height="90" viewBox="0 0 150 90" fill="none" xmlns="http://www.w3.org/2000/svg">
<path d="M149.077 0H29.1136L0.0771484 28.1234V89.1414H149.077V0Z" fill="#1A1623"/>
<path d="M50.1294 62.9962C30.4247 71.375 3.20057 68.9701 0 68.6597V75.4093C2.35223 75.6421 6.90266 75.9524 12.7639 75.9524C26.3731 76.2749 39.9184 73.984 52.6746 69.2026C53.4922 68.8522 54.1383 68.19 54.4708 67.3609C54.8034 66.5318 54.7952 65.6038 54.4482 64.7807C54.1076 63.9705 53.4627 63.3285 52.6539 62.9943C51.845 62.6601 50.9377 62.6608 50.1294 62.9962Z" fill="#FCFCFD"/>
<path d="M84.1565 60.3266L90.7487 60.4933C92.7074 60.5429 94.3348 58.9858 94.3841 57.0154L94.6554 46.1575C94.7046 44.1871 93.157 42.5498 91.1984 42.5002L84.6062 42.3335C82.6475 42.284 81.0201 43.8411 80.9708 45.8114L80.6995 56.6694C80.6503 58.6397 82.1979 60.2771 84.1565 60.3266Z" fill="#FCFCFD"/>
</svg>
