<svg width="150" height="90" viewBox="0 0 150 90" fill="none" xmlns="http://www.w3.org/2000/svg">
<path d="M0.728516 0H120.692L149.729 28.1234V89.1414H0.728516V0Z" fill="#1A1623"/>
<path d="M99.6763 62.9962C119.381 71.375 146.605 68.9701 149.806 68.6597V75.4093C147.453 75.6421 142.903 75.9524 137.042 75.9524C123.433 76.2749 109.887 73.984 97.1311 69.2026C96.3134 68.8522 95.6674 68.19 95.3348 67.3609C95.0023 66.5318 95.0105 65.6038 95.3574 64.7807C95.6981 63.9705 96.343 63.3285 97.1518 62.9943C97.9606 62.6601 98.8679 62.6608 99.6763 62.9962V62.9962Z" fill="#FCFCFD"/>
<path d="M65.6491 60.3266L59.0569 60.4933C57.0983 60.5429 55.4708 58.9858 55.4216 57.0154L55.1503 46.1575C55.101 44.1871 56.6486 42.5498 58.6073 42.5002L65.1995 42.3335C67.1582 42.284 68.7856 43.8411 68.8348 45.8114L69.1062 56.6694C69.1554 58.6397 67.6078 60.2771 65.6491 60.3266Z" fill="#FCFCFD"/>
</svg>
