<svg width="150" height="90" viewBox="0 0 150 90" fill="none" xmlns="http://www.w3.org/2000/svg">
<path d="M149.077 0.0253906H29.1136L0.0771484 28.1488V89.1668H149.077V0.0253906Z" fill="#E84118"/>
<path d="M50.1294 63.0216C30.4247 71.4004 3.20057 68.9955 0 68.6851V75.4347C2.35223 75.6674 6.90266 75.9778 12.7639 75.9778C26.3731 76.3003 39.9184 74.0093 52.6746 69.228C53.4922 68.8776 54.1383 68.2154 54.4708 67.3863C54.8034 66.5572 54.7952 65.6292 54.4482 64.806C54.1076 63.9959 53.4627 63.3539 52.6539 63.0197C51.845 62.6855 50.9377 62.6862 50.1294 63.0216Z" fill="#1A1623"/>
<path d="M84.1565 60.3518L90.7487 60.5185C92.7074 60.568 94.3348 59.0109 94.3841 57.0406L94.6554 46.1826C94.7046 44.2123 93.157 42.5749 91.1984 42.5254L84.6062 42.3587C82.6475 42.3092 81.0201 43.8662 80.9708 45.8366L80.6995 56.6945C80.6503 58.6649 82.1979 60.3022 84.1565 60.3518Z" fill="#1A1623"/>
</svg>
