<svg width="150" height="89" viewBox="0 0 150 89" fill="none" xmlns="http://www.w3.org/2000/svg">
<path d="M0.402832 0H120.535L149.613 27.9962V88.7382H0.402832V0Z" fill="#F3D34F"/>
<path d="M149.651 68.3495C146.524 68.6584 119.261 71.0527 99.4514 62.6732C99.0432 62.5008 98.6051 62.4104 98.1619 62.4073C97.7188 62.4042 97.2793 62.4885 96.8687 62.6553C96.4581 62.822 96.0845 63.0679 95.769 63.3791C95.4535 63.6902 95.2023 64.0604 95.0299 64.4687C94.8574 64.8769 94.7673 65.3152 94.7642 65.7583C94.7612 66.2015 94.8452 66.6408 95.012 67.0513C95.1787 67.4619 95.4248 67.8356 95.736 68.1511C96.0472 68.4666 96.4174 68.7178 96.8256 68.8902C109.599 73.6526 123.164 75.9331 136.792 75.6092C142.623 75.6092 147.219 75.3003 149.574 75.0686L149.651 68.3495Z" fill="#1A1623"/>
<path d="M65.0853 42.152L58.484 42.318C56.5226 42.3673 54.9726 43.9972 55.0219 45.9587L55.2936 56.7678C55.3429 58.7292 56.9729 60.2792 58.9343 60.2299L65.5356 60.064C67.497 60.0147 69.047 58.3847 68.9977 56.4233L68.726 45.6142C68.6767 43.6527 67.0467 42.1027 65.0853 42.152Z" fill="#1A1623"/>
</svg>
