<svg width="61" height="51" viewBox="0 0 61 51" fill="none" xmlns="http://www.w3.org/2000/svg">
<g clip-path="url(#clip0_378_4526)">
<path d="M35.1739 39.3893L47.3268 24.8805L27.5664 18.1927L35.1739 39.3893Z" fill="#E84118"/>
<path d="M34.8403 39.9968L47.337 25.3243V24.9017L34.8403 39.5742V39.9968Z" fill="#1A1623"/>
<path d="M56.3037 15.9186L48.8945 24.6006L60.9999 28.3882L56.3037 15.9186Z" fill="#E84118"/>
<path d="M48.9819 24.5213V24.9439L61 28.8108V28.3882L48.9819 24.5213Z" fill="#1A1623"/>
<path d="M25.9451 17.5614L14.6093 13.3697L0.816895 27.7226L13.0095 32.1547L25.9451 17.5614Z" fill="#1A1623"/>
<path d="M13.0098 32.5773L25.9454 17.9841V17.5615L13.0098 32.1547V32.5773Z" fill="#F3D34F"/>
<path d="M13.0095 32.1547L0.816895 27.7226V28.1452L13.0095 32.5773V32.1547Z" fill="#F3D34F"/>
<path d="M55.6534 15.3137L34.941 8.1637L27.4473 17.1653L47.9877 24.2387L55.6534 15.3137Z" fill="#1A1623"/>
<path d="M47.9956 24.6613L55.6639 15.7363V15.3137L47.9956 24.2387V24.6613Z" fill="#F3D34F"/>
<path d="M47.9877 24.2387L27.4473 17.1653V17.5905L47.9877 24.6613V24.2387Z" fill="#F3D34F"/>
<path d="M34.1002 40.8261L13.3878 33.6761L5.89404 42.6803L26.4345 49.7511L34.1002 40.8261Z" fill="#1A1623"/>
<path d="M26.4448 50.1737L34.1105 41.2487V40.8261L26.4448 49.7511V50.1737Z" fill="#E84118"/>
<path d="M26.4345 49.7511L6.06592 42.7596V43.1822L26.4345 50.1737V49.7511Z" fill="#F3D34F"/>
<path d="M14.1416 32.7728L33.9047 39.5372L26.8128 18.2614L14.1416 32.7728Z" fill="#F3D34F"/>
<path d="M14.1416 33.1954L33.9047 39.9624V39.5372L14.1416 32.7728V33.1954Z" fill="#E84118"/>
<path d="M4.55603 42.2841L12.3565 33.1426L0 28.8055L4.55603 42.2841Z" fill="#F3D34F"/>
<path d="M4.56144 42.6328L12.362 33.4912L12.3567 33.1426L4.55615 42.2842L4.56144 42.6328Z" fill="#E84118"/>
<path d="M0.0131836 28.8134V29.1621L4.56128 42.6328L4.55599 42.2841L0.0131836 28.8134Z" fill="#E84118"/>
<path d="M60.4052 29.2228L48.3871 25.356L35.708 40.3533L47.4722 44.4632L60.4052 29.2228Z" fill="#1A1623"/>
<path d="M47.4722 44.4632V44.8066L60.4052 29.5662V29.2228L47.4722 44.4632Z" fill="#F3D34F"/>
<path d="M35.708 40.3533V40.6967L47.4722 44.8066V44.4632L35.708 40.3533Z" fill="#F3D34F"/>
<path d="M26.2863 8.74741H25.9849L34.3327 0.498596H34.6315L26.2863 8.74741Z" fill="#1A1623"/>
<path d="M34.6313 0.498596V7.70409L26.5584 16.9355L25.7017 11.2936L26.286 8.74741L34.6313 0.498596Z" fill="#E84118"/>
<path d="M26.5586 16.9355H26.2598L25.4004 11.2936H25.7018L26.5586 16.9355Z" fill="#1A1623"/>
<path d="M25.7018 11.2937H25.4004L25.9848 8.74744H26.2862L25.7018 11.2937Z" fill="#1A1623"/>
<path d="M32.8968 35.2397L34.8773 35.739L35.6468 41.3438L27.7881 50.4986L26.7251 42.5615L32.8968 35.2397Z" fill="#F3D34F"/>
<path d="M27.7882 50.4986L27.4656 50.4299L26.4053 42.5694L26.7252 42.5615L27.7882 50.4986Z" fill="#E84118"/>
<path d="M26.7252 42.5615L26.4053 42.5694L32.5796 35.2477L32.8969 35.2397L26.7252 42.5615Z" fill="#E84118"/>
<path d="M35.0972 38.5334C35.0705 38.5571 35.0489 38.5858 35.0337 38.618C35.0337 38.6365 34.0712 40.5171 32.5666 41.2593C32.5324 41.2745 32.5018 41.2968 32.4768 41.3248C32.4518 41.3527 32.4331 41.3856 32.4219 41.4213C32.4106 41.457 32.4071 41.4947 32.4115 41.5319C32.416 41.5691 32.4283 41.6049 32.4476 41.637C32.4773 41.683 32.5186 41.7204 32.5673 41.7455C32.6161 41.7705 32.6705 41.7823 32.7253 41.7796C32.7748 41.7789 32.8236 41.7672 32.8681 41.7453C33.976 41.188 34.7878 40.1394 35.2267 39.4632L35.0972 38.5334Z" fill="#1A1623"/>
<path d="M30.8925 43.0844L30.2949 43.0976C30.232 43.1005 30.1704 43.0786 30.1234 43.0367C30.0764 42.9947 30.0478 42.936 30.0437 42.8731L30.0146 41.7955C30.015 41.7643 30.0215 41.7334 30.0338 41.7047C30.0461 41.676 30.0639 41.65 30.0862 41.6282C30.1086 41.6063 30.135 41.5891 30.164 41.5775C30.193 41.5659 30.224 41.56 30.2553 41.5604L30.8529 41.5472C30.9158 41.5443 30.9774 41.5662 31.0244 41.6082C31.0714 41.6502 31.1 41.7089 31.1041 41.7717L31.1332 42.8467C31.1325 42.91 31.1068 42.9705 31.0618 43.015C31.0167 43.0595 30.9559 43.0844 30.8925 43.0844Z" fill="#1A1623"/>
<path d="M29.3644 11.6423C29.2839 11.6037 29.1917 11.597 29.1064 11.6234C29.0211 11.6499 28.9489 11.7076 28.9043 11.7849C28.1798 13.1399 26.7546 14.0115 26.313 14.2572L26.4135 14.9307C27.2517 14.4024 28.9017 13.227 29.5178 12.0754C29.5419 12.029 29.5538 11.9772 29.5522 11.9249C29.5512 11.8648 29.533 11.8062 29.4998 11.7561C29.4665 11.706 29.4195 11.6665 29.3644 11.6423Z" fill="#1A1623"/>
<path d="M30.0203 10.4616L30.6761 10.3613C30.7439 10.3514 30.8053 10.3156 30.8473 10.2614C30.8892 10.2072 30.9084 10.1388 30.9008 10.0707L30.6866 8.80818C30.6803 8.77398 30.6672 8.74136 30.6482 8.71222C30.6292 8.68307 30.6047 8.65795 30.5759 8.63832C30.5472 8.61869 30.5148 8.60492 30.4807 8.59781C30.4466 8.59069 30.4115 8.59038 30.3773 8.59687L29.7215 8.68668C29.6536 8.69653 29.5922 8.73235 29.5503 8.78656C29.5084 8.84077 29.4892 8.90913 29.4967 8.97722L29.7109 10.2398C29.716 10.2749 29.7282 10.3087 29.7466 10.339C29.7651 10.3694 29.7895 10.3957 29.8184 10.4164C29.8473 10.4371 29.88 10.4518 29.9147 10.4596C29.9494 10.4673 29.9853 10.468 30.0203 10.4616Z" fill="#1A1623"/>
</g>
<defs>
<clipPath id="clip0_378_4526">
<rect width="61" height="50" fill="white" transform="translate(0 0.498596)"/>
</clipPath>
</defs>
</svg>
